<?xml version="1.0" encoding="UTF-8" standalone="no"?>
<svg
   viewBox="0 0 110 110"
   version="1.1"
   id="svg1"
   sodipodi:docname="earth_to_sun_angle.svg"
   inkscape:version="1.4 (e7c3feb100, 2024-10-09)"
   width="110"
   height="110"
   xmlns:inkscape="http://www.inkscape.org/namespaces/inkscape"
   xmlns:sodipodi="http://sodipodi.sourceforge.net/DTD/sodipodi-0.dtd"
   xmlns="http://www.w3.org/2000/svg"
   xmlns:svg="http://www.w3.org/2000/svg">
  <defs
     id="defs1" />
  <sodipodi:namedview
     id="namedview1"
     pagecolor="#505050"
     bordercolor="#ffffff"
     borderopacity="1"
     inkscape:showpageshadow="0"
     inkscape:pageopacity="0"
     inkscape:pagecheckerboard="1"
     inkscape:deskcolor="#505050"
     inkscape:zoom="2.9612994"
     inkscape:cx="-31.911667"
     inkscape:cy="59.602213"
     inkscape:window-width="1920"
     inkscape:window-height="2128"
     inkscape:window-x="0"
     inkscape:window-y="0"
     inkscape:window-maximized="0"
     inkscape:current-layer="svg1" />
  <g
     id="g7"
     transform="matrix(-1,0,0,1,21.72,-1.5)" />
  <path
     id="path2"
     d="m 68.095238,13.566667 v 2.147619 a 10.47619,10.47619 0 0 1 -10.47619,10.47619 H 47.142857 v 10.476191 a 5.2380952,5.2380952 0 0 1 -5.238095,5.238095 H 31.428571 v 10.47619 H 42.847619 L 31.9,63.328571 11.57619,43.004762 c -0.680952,2.985714 -1.1,6.128571 -1.1,9.37619 0,9.114286 2.933334,17.6 7.857143,24.461905 l -7.438095,7.490476 C 4.0333333,75.480952 0,64.428571 0,52.380952 A 52.380952,52.380952 0 0 1 52.380952,0 c 12.047619,0 23.1,4.0333333 31.952381,10.895238 l -7.490476,7.438095 C 74.171429,16.447619 71.238095,14.82381 68.095238,13.566667 Z M 0,103.34762 103.29524,0 110,6.652381 89.780952,26.871429 98.319048,27.604762 89.047619,47.457143 C 88.314286,43.319048 87.004762,39.338095 84.7,35.461905 84.385714,34.728571 83.704762,34.1 83.233333,33.419048 l -7.542857,7.542857 c 2.147619,3.771428 3.457143,8.171428 3.457143,12.833333 0,14.457143 -11.733333,26.190476 -26.190476,26.190476 -4.714286,0 -9.061905,-1.309524 -12.833333,-3.457143 L 6.652381,110 0,103.34762 M 52.957143,69.509524 c 8.695238,0 15.714286,-7.019048 15.714286,-15.714286 0,-1.728571 -0.366667,-3.352381 -0.890477,-4.923809 L 48.033333,68.619048 c 1.571429,0.523809 3.195238,0.890476 4.92381,0.890476 m 0,20.952381 c -4.295238,0 -8.538095,-0.890476 -12.414286,-2.304762 L 52.957143,106.17619 65.580952,88.157143 c -3.87619,1.414286 -8.119047,2.304762 -12.623809,2.304762 M 84.647619,72.128571 c -2.2,3.876191 -5.028571,7.12381 -8.119048,9.795239 L 98.214286,79.985714 88.995238,60.238095 c -0.733333,4.033334 -2.147619,8.119048 -4.347619,11.890476 z"
     style="stroke-width:5.2381" />
</svg>
