<?xml version="1.0" encoding="UTF-8" standalone="no"?>
<svg
   viewBox="0 0 110 110"
   x="0px"
   y="0px"
   version="1.1"
   id="svg4"
   sodipodi:docname="fractional-year.svg"
   width="110"
   height="110"
   inkscape:version="1.4 (e7c3feb100, 2024-10-09)"
   xmlns:inkscape="http://www.inkscape.org/namespaces/inkscape"
   xmlns:sodipodi="http://sodipodi.sourceforge.net/DTD/sodipodi-0.dtd"
   xmlns="http://www.w3.org/2000/svg"
   xmlns:svg="http://www.w3.org/2000/svg"
   xmlns:rdf="http://www.w3.org/1999/02/22-rdf-syntax-ns#"
   xmlns:cc="http://creativecommons.org/ns#"
   xmlns:dc="http://purl.org/dc/elements/1.1/">
  <sodipodi:namedview
     id="namedview4"
     pagecolor="#505050"
     bordercolor="#ffffff"
     borderopacity="1"
     inkscape:showpageshadow="0"
     inkscape:pageopacity="0"
     inkscape:pagecheckerboard="1"
     inkscape:deskcolor="#505050"
     inkscape:zoom="3.1615964"
     inkscape:cx="18.028867"
     inkscape:cy="47.602534"
     inkscape:window-width="1488"
     inkscape:window-height="2128"
     inkscape:window-x="0"
     inkscape:window-y="0"
     inkscape:window-maximized="0"
     inkscape:current-layer="svg4" />
  <defs
     id="defs1">
    <style
       id="style1">.cls-1{fill-rule:evenodd;}</style>
  </defs>
  <title
     id="title1">i-21</title>
  <path
     class="cls-1"
     d="m 94.129092,24.944222 v 0 a 9.03663,9.03663 0 0 0 0.903663,-3.919638 9.194771,9.194771 0 0 0 -13.950298,-7.907051 v 0 A 49.34,49.34 0 1 0 94.129092,24.944222 Z M 54.955301,98.061855 A 43.138612,43.138612 0 1 1 77.095044,17.861763 v 0 a 9.1721795,9.1721795 0 0 0 8.675165,12.425367 9.03663,9.03663 0 0 0 3.919638,-0.903663 v 0 A 43.127317,43.127317 0 0 1 54.955301,98.061855 Z"
     id="path1"
     style="stroke-width:1.12958" />
  <metadata
     id="metadata4">
    <rdf:RDF>
      <cc:Work
         rdf:about="">
        <dc:title>i-21</dc:title>
      </cc:Work>
    </rdf:RDF>
  </metadata>
  <path
     d="M 55.010865,44.133859 A 10.866143,10.866142 0 0 1 65.877008,55.000001 10.866143,10.866142 0 0 1 55.010865,65.866142 10.866143,10.866142 0 0 1 44.144723,55.000001 10.866143,10.866142 0 0 1 55.010865,44.133859 m 0,4.346457 a 6.519686,6.519686 0 0 0 -6.519685,6.519685 6.519686,6.519686 0 0 0 6.519685,6.519686 6.519686,6.519686 0 0 0 6.519686,-6.519686 6.519686,6.519686 0 0 0 -6.519686,-6.519685 m 0,-15.2126 5.194016,7.432441 c -1.60819,-0.586772 -3.368505,-0.912755 -5.194016,-0.912755 -1.825511,0 -3.585826,0.325983 -5.194015,0.912755 l 5.194015,-7.432441 m -18.820158,10.866142 9.040631,-0.76063 c -1.303939,1.108347 -2.477481,2.455748 -3.390237,4.020473 -0.95622,1.60819 -1.499527,3.259842 -1.80378,4.976692 l -3.846615,-8.236535 m 0.04347,21.732284 3.824882,-8.193071 c 0.304254,1.673386 0.891024,3.368505 1.803781,4.93323 0.912754,1.608188 2.086298,2.955591 3.368504,4.063937 L 36.234178,65.866142 M 73.809294,44.13386 69.962682,52.370394 c -0.304252,-1.71685 -0.891024,-3.390235 -1.803781,-4.976692 -0.912755,-1.564725 -2.064565,-2.933859 -3.368502,-4.042205 l 9.018895,0.782362 m -0.02174,21.732283 -8.997168,0.782363 c 1.282204,-1.108347 2.434016,-2.47748 3.346772,-4.042204 0.912755,-1.586458 1.499527,-3.259843 1.803781,-4.976693 l 3.846615,8.236535 M 55.01087,76.732283 49.77339,69.25638 c 1.608189,0.586771 3.368504,0.956218 5.23748,0.956218 1.782048,0 3.542363,-0.369447 5.150551,-0.956218 z"
     id="path1-7"
     style="stroke-width:2.17323" />
</svg>
