<?xml version="1.0" encoding="UTF-8" standalone="no"?>
<svg
   viewBox="0 0 110 110"
   version="1.1"
   id="svg1"
   sodipodi:docname="map-clock.svg"
   width="110"
   height="110"
   inkscape:version="1.3.2 (091e20ef0f, 2023-11-25, custom)"
   xmlns:inkscape="http://www.inkscape.org/namespaces/inkscape"
   xmlns:sodipodi="http://sodipodi.sourceforge.net/DTD/sodipodi-0.dtd"
   xmlns="http://www.w3.org/2000/svg"
   xmlns:svg="http://www.w3.org/2000/svg">
  <defs
     id="defs1" />
  <sodipodi:namedview
     id="namedview1"
     pagecolor="#505050"
     bordercolor="#ffffff"
     borderopacity="1"
     inkscape:showpageshadow="0"
     inkscape:pageopacity="0"
     inkscape:pagecheckerboard="1"
     inkscape:deskcolor="#505050"
     inkscape:zoom="0.5"
     inkscape:cx="9"
     inkscape:cy="10"
     inkscape:window-width="1920"
     inkscape:window-height="1080"
     inkscape:window-x="0"
     inkscape:window-y="0"
     inkscape:window-maximized="1"
     inkscape:current-layer="svg1" />
  <path
     d="m 66.248594,44.994375 h 6.749156 v 19.12261 l 12.868392,7.604049 -3.374578,5.489314 -16.24297,-9.718785 V 44.994375 m 35.995496,17.99775 A 31.496063,31.496063 0 0 1 70.748031,94.488188 c -13.498312,0 -25.19685,-8.63892 -29.606299,-20.697412 l -6.389201,-2.249719 -24.026997,9.313836 -0.71991,0.134983 A 2.2497188,2.2497188 0 0 1 7.755906,78.740157 V 10.708661 c 0,-1.034871 0.674915,-1.844769 1.619797,-2.15973 L 34.752531,0 61.749156,9.448818 85.776153,0 h 0.71991 a 2.2497188,2.2497188 0 0 1 2.249719,2.249718 v 34.870641 c 8.143982,5.624297 13.498308,15.163105 13.498308,25.871766 m -62.992121,0 c 0,-14.263217 9.493813,-26.321709 22.497187,-30.191226 V 18.492688 L 34.752531,8.998875 v 53.498312 l 4.499438,1.574804 c 0,-0.359955 0,-0.71991 0,-1.079866 M 70.748031,40.494938 A 22.497188,22.497188 0 0 0 48.250844,62.992125 22.497188,22.497188 0 0 0 70.748031,85.489313 22.497188,22.497188 0 0 0 93.245219,62.992125 22.497188,22.497188 0 0 0 70.748031,40.494938 Z"
     id="path1"
     style="stroke-width:4.49944" />
</svg>
