<?xml version="1.0" encoding="UTF-8" standalone="no"?>
<svg
   version="1.1"
   x="0px"
   y="0px"
   viewBox="0 0 184.12366 161.99219"
   xml:space="preserve"
   id="svg2"
   sodipodi:docname="noun-data-analysis-4929828.svg"
   width="184.12366"
   height="161.99219"
   inkscape:version="1.3.2 (091e20ef0f, 2023-11-25, custom)"
   xmlns:inkscape="http://www.inkscape.org/namespaces/inkscape"
   xmlns:sodipodi="http://sodipodi.sourceforge.net/DTD/sodipodi-0.dtd"
   xmlns="http://www.w3.org/2000/svg"
   xmlns:svg="http://www.w3.org/2000/svg"><defs
     id="defs2"><clipPath
       clipPathUnits="userSpaceOnUse"
       id="clipPath10"><path
         id="path11"
         style="fill:#ff0000;fill-opacity:1;fill-rule:nonzero;stroke:none"
         d="m 100,90 v 4.449219 c 0.0235,-7.26e-4 0.0467,-0.0022 0.0703,-0.002 0.0734,8.43e-4 0.14797,0.0056 0.22071,0.0098 0.21753,0.0169 0.43548,0.04123 0.64648,0.09961 0.20179,0.05897 0.39261,0.140883 0.56836,0.257812 0.15014,0.09784 0.2953,0.200277 0.43359,0.314453 0.12457,0.09404 0.24844,0.189213 0.37305,0.283203 0.15896,0.11785 0.32023,0.235829 0.49805,0.324219 0.2401,0.127161 0.47946,0.2539 0.7207,0.378906 0.26984,0.132588 0.54445,0.256609 0.81641,0.384766 0.33647,0.157118 0.6817,0.294206 1.02734,0.429688 0.31174,0.128609 0.62429,0.25638 0.91016,0.4375 0.20437,0.120644 0.4096,0.242506 0.5957,0.390624 0.19694,0.159155 0.37802,0.335004 0.54102,0.529297 0.18072,0.2135 0.3564,0.43071 0.53906,0.642579 0.17498,0.203855 0.36059,0.40594 0.4707,0.654296 0.0869,0.22157 0.12435,0.397103 0.0527,0.630858 -0.0402,0.12929 -0.0804,0.25894 -0.11915,0.38868 -0.0324,0.11853 -0.0565,0.2381 -0.0762,0.35937 -0.013,0.1337 -0.004,0.26823 -0.004,0.40234 0.003,0.17674 0.009,0.35293 0.0215,0.5293 0.0181,0.23492 0.0421,0.4701 0.0898,0.70117 0.0529,0.25306 0.11717,0.5036 0.18164,0.75391 0.0665,0.27733 0.14032,0.55204 0.19532,0.83203 0.0541,0.26625 0.10577,0.53567 0.10547,0.80859 0.003,0.23457 -0.004,0.46886 -0.0156,0.70313 -0.0158,0.25418 -0.0381,0.50689 -0.0684,0.75976 -0.0226,0.21413 -0.0604,0.42714 -0.0684,0.64258 -0.0123,0.22488 -0.0222,0.45074 -0.0312,0.67578 -0.016,0.27719 -0.0379,0.55437 -0.0859,0.82813 -0.051,0.2834 -0.10972,0.56524 -0.19727,0.83984 h 9.77734 V 90 Z m 0.0742,4.820312 c -0.0249,-3.77e-4 -0.0495,0.0029 -0.0742,0.0039 v 0.207031 c 0.0696,0.02275 0.13358,0.09753 0.1543,0.234375 0.0638,0.421497 0.26155,0.801761 0.45508,1.175781 0.27437,0.475261 0.56349,0.944469 0.86914,1.400391 0.16082,0.239875 0.38143,0.550858 0.54687,0.785156 0.59692,0.84215 1.22323,1.663864 1.82031,2.505854 0.26555,0.37147 0.511,0.75543 0.75586,1.14063 0.19785,0.31124 -0.11664,0.51049 -0.31445,0.19922 -0.24144,-0.37992 -0.48419,-0.75866 -0.74609,-1.125 -0.59718,-0.84223 -1.22144,-1.663404 -1.81836,-2.50586 -0.17218,-0.24387 -0.38974,-0.547861 -0.55664,-0.796875 -0.31247,-0.466222 -0.60701,-0.945182 -0.88672,-1.431641 -0.0977,-0.189597 -0.19523,-0.381696 -0.2793,-0.578125 v 9.845701 c 0.23373,0.54144 0.52301,1.05848 0.87891,1.5293 0.0725,0.096 0.15106,0.18569 0.22656,0.27929 0.2076,0.24862 0.43725,0.47863 0.67578,0.69727 0.0731,0.067 0.28835,0.25752 0.37305,0.32422 0.0521,0.041 0.10831,0.0784 0.16211,0.11718 0.2483,0.16657 0.52851,0.26766 0.82226,0.31446 0.24343,0.0214 0.48485,-0.0205 0.72461,-0.0566 0.22686,-0.0317 0.45067,-0.0752 0.67774,-0.10547 0.18941,-0.0231 0.38015,-0.0355 0.57031,-0.0508 0.23423,-0.0232 0.46925,-0.006 0.69922,0.041 0.28454,0.0718 0.53709,0.22351 0.78125,0.38086 0.0432,0.0324 0.0891,0.0599 0.13476,0.0879 h 1.28906 c 0.0134,-0.0337 0.0266,-0.0674 0.0391,-0.10156 0.0841,-0.26291 0.1388,-0.53336 0.1875,-0.80469 0.0453,-0.25906 0.067,-0.52092 0.082,-0.7832 0.009,-0.22471 0.017,-0.44929 0.0293,-0.67383 0.007,-0.22173 0.0472,-0.43983 0.0703,-0.66015 0.0297,-0.2476 0.053,-0.49723 0.0684,-0.7461 0.0112,-0.22496 0.0186,-0.45053 0.0156,-0.67578 3e-4,-0.24954 -0.0501,-0.4949 -0.0996,-0.73828 -0.0543,-0.27572 -0.12786,-0.54524 -0.19336,-0.81836 -0.0655,-0.25381 -0.12989,-0.50902 -0.18359,-0.76562 -0.0511,-0.24674 -0.0763,-0.49716 -0.0957,-0.74805 -0.0131,-0.18349 -0.0175,-0.3669 -0.0215,-0.55078 -0.003,-0.14787 -0.009,-0.29589 0.004,-0.44336 0.0208,-0.14307 0.0503,-0.28428 0.0879,-0.42383 0.0398,-0.13409 0.0816,-0.26875 0.12305,-0.40234 0.0452,-0.131532 0.01,-0.257642 -0.043,-0.380861 -0.0984,-0.208488 -0.25748,-0.377534 -0.40625,-0.550781 -0.18326,-0.212479 -0.36166,-0.430383 -0.54297,-0.644531 -0.14788,-0.176246 -0.3113,-0.334513 -0.49024,-0.478516 -0.17225,-0.136465 -0.36196,-0.247918 -0.55078,-0.359375 -0.27071,-0.172072 -0.56783,-0.294204 -0.86328,-0.416015 -0.35103,-0.137215 -0.7013,-0.276237 -1.04297,-0.435547 -0.27426,-0.129096 -0.55015,-0.253134 -0.82226,-0.386719 -0.24471,-0.126536 -0.48702,-0.257785 -0.73047,-0.386719 -0.19438,-0.09714 -0.37087,-0.222627 -0.54492,-0.351562 -0.1255,-0.09463 -0.25151,-0.19241 -0.37696,-0.28711 -0.13161,-0.108741 -0.2691,-0.207731 -0.41211,-0.300781 -0.14509,-0.09669 -0.30184,-0.163268 -0.46875,-0.210938 -0.18669,-0.05077 -0.38003,-0.06919 -0.57226,-0.08398 -0.0623,-0.0033 -0.12454,-0.0088 -0.1875,-0.0098 z M 100,106.73438 v 2.70507 h 2.77539 c -0.23992,-0.0682 -0.46877,-0.16771 -0.67773,-0.31054 -0.0613,-0.0446 -0.1241,-0.0879 -0.1836,-0.13477 -0.088,-0.0694 -0.31257,-0.26604 -0.38867,-0.33594 -0.25099,-0.23046 -0.49064,-0.47234 -0.70898,-0.73437 -0.0802,-0.0998 -0.16324,-0.19663 -0.24024,-0.29883 -0.21328,-0.28288 -0.40506,-0.58084 -0.57617,-0.89062 z m 5.28906,2.55859 c -0.0498,8.5e-4 -0.0988,0.003 -0.14844,0.008 -0.18368,0.0147 -0.36775,0.0268 -0.55078,0.0488 -0.19553,0.026 -0.38913,0.0605 -0.58398,0.0898 h 1.99219 c -0.0848,-0.0411 -0.17196,-0.0784 -0.26367,-0.10351 -0.14604,-0.0313 -0.29604,-0.0455 -0.44532,-0.043 z" /></clipPath><clipPath
       clipPathUnits="userSpaceOnUse"
       id="clipPath10-6"><path
         id="path11-7"
         style="fill:#ff0000;fill-opacity:1;fill-rule:nonzero;stroke:none"
         d="m 100,90 v 4.449219 c 0.0235,-7.26e-4 0.0467,-0.0022 0.0703,-0.002 0.0734,8.43e-4 0.14797,0.0056 0.22071,0.0098 0.21753,0.0169 0.43548,0.04123 0.64648,0.09961 0.20179,0.05897 0.39261,0.140883 0.56836,0.257812 0.15014,0.09784 0.2953,0.200277 0.43359,0.314453 0.12457,0.09404 0.24844,0.189213 0.37305,0.283203 0.15896,0.11785 0.32023,0.235829 0.49805,0.324219 0.2401,0.127161 0.47946,0.2539 0.7207,0.378906 0.26984,0.132588 0.54445,0.256609 0.81641,0.384766 0.33647,0.157118 0.6817,0.294206 1.02734,0.429688 0.31174,0.128609 0.62429,0.25638 0.91016,0.4375 0.20437,0.120644 0.4096,0.242506 0.5957,0.390624 0.19694,0.159155 0.37802,0.335004 0.54102,0.529297 0.18072,0.2135 0.3564,0.43071 0.53906,0.642579 0.17498,0.203855 0.36059,0.40594 0.4707,0.654296 0.0869,0.22157 0.12435,0.397103 0.0527,0.630858 -0.0402,0.12929 -0.0804,0.25894 -0.11915,0.38868 -0.0324,0.11853 -0.0565,0.2381 -0.0762,0.35937 -0.013,0.1337 -0.004,0.26823 -0.004,0.40234 0.003,0.17674 0.009,0.35293 0.0215,0.5293 0.0181,0.23492 0.0421,0.4701 0.0898,0.70117 0.0529,0.25306 0.11717,0.5036 0.18164,0.75391 0.0665,0.27733 0.14032,0.55204 0.19532,0.83203 0.0541,0.26625 0.10577,0.53567 0.10547,0.80859 0.003,0.23457 -0.004,0.46886 -0.0156,0.70313 -0.0158,0.25418 -0.0381,0.50689 -0.0684,0.75976 -0.0226,0.21413 -0.0604,0.42714 -0.0684,0.64258 -0.0123,0.22488 -0.0222,0.45074 -0.0312,0.67578 -0.016,0.27719 -0.0379,0.55437 -0.0859,0.82813 -0.051,0.2834 -0.10972,0.56524 -0.19727,0.83984 h 9.77734 V 90 Z m 0.0742,4.820312 c -0.0249,-3.77e-4 -0.0495,0.0029 -0.0742,0.0039 v 0.207031 c 0.0696,0.02275 0.13358,0.09753 0.1543,0.234375 0.0638,0.421497 0.26155,0.801761 0.45508,1.175781 0.27437,0.475261 0.56349,0.944469 0.86914,1.400391 0.16082,0.239875 0.38143,0.550858 0.54687,0.785156 0.59692,0.84215 1.22323,1.663864 1.82031,2.505854 0.26555,0.37147 0.511,0.75543 0.75586,1.14063 0.19785,0.31124 -0.11664,0.51049 -0.31445,0.19922 -0.24144,-0.37992 -0.48419,-0.75866 -0.74609,-1.125 -0.59718,-0.84223 -1.22144,-1.663404 -1.81836,-2.50586 -0.17218,-0.24387 -0.38974,-0.547861 -0.55664,-0.796875 -0.31247,-0.466222 -0.60701,-0.945182 -0.88672,-1.431641 -0.0977,-0.189597 -0.19523,-0.381696 -0.2793,-0.578125 v 9.845701 c 0.23373,0.54144 0.52301,1.05848 0.87891,1.5293 0.0725,0.096 0.15106,0.18569 0.22656,0.27929 0.2076,0.24862 0.43725,0.47863 0.67578,0.69727 0.0731,0.067 0.28835,0.25752 0.37305,0.32422 0.0521,0.041 0.10831,0.0784 0.16211,0.11718 0.2483,0.16657 0.52851,0.26766 0.82226,0.31446 0.24343,0.0214 0.48485,-0.0205 0.72461,-0.0566 0.22686,-0.0317 0.45067,-0.0752 0.67774,-0.10547 0.18941,-0.0231 0.38015,-0.0355 0.57031,-0.0508 0.23423,-0.0232 0.46925,-0.006 0.69922,0.041 0.28454,0.0718 0.53709,0.22351 0.78125,0.38086 0.0432,0.0324 0.0891,0.0599 0.13476,0.0879 h 1.28906 c 0.0134,-0.0337 0.0266,-0.0674 0.0391,-0.10156 0.0841,-0.26291 0.1388,-0.53336 0.1875,-0.80469 0.0453,-0.25906 0.067,-0.52092 0.082,-0.7832 0.009,-0.22471 0.017,-0.44929 0.0293,-0.67383 0.007,-0.22173 0.0472,-0.43983 0.0703,-0.66015 0.0297,-0.2476 0.053,-0.49723 0.0684,-0.7461 0.0112,-0.22496 0.0186,-0.45053 0.0156,-0.67578 3e-4,-0.24954 -0.0501,-0.4949 -0.0996,-0.73828 -0.0543,-0.27572 -0.12786,-0.54524 -0.19336,-0.81836 -0.0655,-0.25381 -0.12989,-0.50902 -0.18359,-0.76562 -0.0511,-0.24674 -0.0763,-0.49716 -0.0957,-0.74805 -0.0131,-0.18349 -0.0175,-0.3669 -0.0215,-0.55078 -0.003,-0.14787 -0.009,-0.29589 0.004,-0.44336 0.0208,-0.14307 0.0503,-0.28428 0.0879,-0.42383 0.0398,-0.13409 0.0816,-0.26875 0.12305,-0.40234 0.0452,-0.131532 0.01,-0.257642 -0.043,-0.380861 -0.0984,-0.208488 -0.25748,-0.377534 -0.40625,-0.550781 -0.18326,-0.212479 -0.36166,-0.430383 -0.54297,-0.644531 -0.14788,-0.176246 -0.3113,-0.334513 -0.49024,-0.478516 -0.17225,-0.136465 -0.36196,-0.247918 -0.55078,-0.359375 -0.27071,-0.172072 -0.56783,-0.294204 -0.86328,-0.416015 -0.35103,-0.137215 -0.7013,-0.276237 -1.04297,-0.435547 -0.27426,-0.129096 -0.55015,-0.253134 -0.82226,-0.386719 -0.24471,-0.126536 -0.48702,-0.257785 -0.73047,-0.386719 -0.19438,-0.09714 -0.37087,-0.222627 -0.54492,-0.351562 -0.1255,-0.09463 -0.25151,-0.19241 -0.37696,-0.28711 -0.13161,-0.108741 -0.2691,-0.207731 -0.41211,-0.300781 -0.14509,-0.09669 -0.30184,-0.163268 -0.46875,-0.210938 -0.18669,-0.05077 -0.38003,-0.06919 -0.57226,-0.08398 -0.0623,-0.0033 -0.12454,-0.0088 -0.1875,-0.0098 z M 100,106.73438 v 2.70507 h 2.77539 c -0.23992,-0.0682 -0.46877,-0.16771 -0.67773,-0.31054 -0.0613,-0.0446 -0.1241,-0.0879 -0.1836,-0.13477 -0.088,-0.0694 -0.31257,-0.26604 -0.38867,-0.33594 -0.25099,-0.23046 -0.49064,-0.47234 -0.70898,-0.73437 -0.0802,-0.0998 -0.16324,-0.19663 -0.24024,-0.29883 -0.21328,-0.28288 -0.40506,-0.58084 -0.57617,-0.89062 z m 5.28906,2.55859 c -0.0498,8.5e-4 -0.0988,0.003 -0.14844,0.008 -0.18368,0.0147 -0.36775,0.0268 -0.55078,0.0488 -0.19553,0.026 -0.38913,0.0605 -0.58398,0.0898 h 1.99219 c -0.0848,-0.0411 -0.17196,-0.0784 -0.26367,-0.10351 -0.14604,-0.0313 -0.29604,-0.0455 -0.44532,-0.043 z" /></clipPath></defs><sodipodi:namedview
     id="namedview2"
     pagecolor="#505050"
     bordercolor="#ffffff"
     borderopacity="1"
     inkscape:showpageshadow="0"
     inkscape:pageopacity="0"
     inkscape:pagecheckerboard="1"
     inkscape:deskcolor="#505050"
     inkscape:zoom="3.8166672"
     inkscape:cx="95.240162"
     inkscape:cy="83.318767"
     inkscape:window-width="1920"
     inkscape:window-height="1080"
     inkscape:window-x="0"
     inkscape:window-y="0"
     inkscape:window-maximized="0"
     inkscape:current-layer="svg2" /><path
     id="path191"
     style="stroke-width:0.729"
     d="M 72.557746,8.0996095 50.741535,18.980469 73.459503,30.434375 94.591926,19.143945 Z M 40.148956,24.269727 15.203839,36.72207 38.549348,48.436133 62.87923,35.737695 Z M 105.13001,24.433204 83.834113,35.66914 107.7263,47.711914 129.62338,36.72207 Z M 73.308331,41.000586 49.018878,53.699024 72.406574,65.453515 97.133723,53.029297 Z M 9.2061832,44.50039 V 74.093164 L 32.005011,85.68418 32.033136,55.845312 Z m 126.8824268,0 -22.8252,11.344922 0.0193,22.343555 c -2.97634,1.430033 -5.77543,3.346259 -8.24061,5.80957 -0.36185,0.361842 -0.68381,0.751813 -1.02482,1.128517 L 103.99446,60.450782 77.368878,73.695899 V 103.48028 L 98.984699,92.738282 c -1.697167,3.694048 -2.638265,7.716698 -2.729883,11.888078 l -18.885938,9.44649 v 30.07266 l 26.694142,-13.32773 -0.005,-5.29805 c 0.32842,0.3614 0.63672,0.73692 0.98439,1.08457 5.87696,5.86798 13.58996,8.81016 21.30292,8.81016 6.44397,0 12.87859,-2.0521 18.24258,-6.14708 l 23.4457,23.44571 c 0.765,0.765 1.77293,1.17949 2.85293,1.17949 1.08,0 2.09694,-0.42349 2.85293,-1.17949 0.765,-0.765 1.17774,-1.77293 1.17774,-2.85293 0.018,-1.098 -0.40417,-2.11453 -1.16016,-2.87051 l -23.44571,-23.44571 c 8.99997,-11.79893 8.11889,-28.772544 -2.66308,-39.545503 -4.27318,-4.273163 -9.52455,-6.971402 -15.03809,-8.135155 l 3.48047,-1.770118 z M 41.300324,60.450782 41.272199,90.235157 67.927668,103.48028 V 73.695899 Z m 85.044726,17.193163 c 0.84256,0 1.68452,0.04489 2.52422,0.12129 6.21945,0.56583 12.28438,3.220225 17.04199,7.969922 10.10696,10.10696 10.74519,26.153263 1.90723,37.007223 l -0.0264,0.0281 c -0.16199,0.198 -0.32472,0.3768 -0.49572,0.5748 -0.144,0.171 -0.2882,0.34228 -0.4412,0.51328 -0.306,0.342 -0.61995,0.67444 -0.94395,0.99844 -0.324,0.324 -0.65665,0.63991 -0.98965,0.93691 -0.207,0.189 -0.41505,0.35965 -0.63105,0.53965 -0.144,0.126 -0.29721,0.26094 -0.44121,0.37794 l -0.0633,0.0545 c -10.85393,8.83797 -26.89147,8.19799 -36.99843,-1.90898 -1.00969,-1.00969 -1.90324,-2.09914 -2.7334,-3.22734 -3.46905,-4.71451 -5.366602,-10.36768 -5.366602,-16.33711 0,-0.64901 0.04909,-1.29051 0.09316,-1.93184 0.307898,-4.48056 1.682662,-8.742675 3.999012,-12.508591 0.38748,-0.629951 0.80142,-1.243706 1.24102,-1.843945 0.83885,-1.145365 1.74436,-2.250603 2.7668,-3.273047 1.96664,-1.966655 4.16377,-3.564679 6.49863,-4.814649 4.06543,-2.176432 8.55973,-3.276563 13.05879,-3.276563 z m 0.009,3.15 c -1.41861,0 -2.81303,0.141481 -4.1836,0.376172 -3.16993,0.542806 -6.17567,1.698225 -8.88222,3.411915 -1.52055,0.962776 -2.95592,2.082287 -4.25918,3.385547 -3.85294,3.852943 -6.12412,8.684999 -6.86778,13.703901 -0.6835,4.61291 -0.0552,9.37412 1.8879,13.69336 1.1823,2.62814 2.82515,5.09799 4.97988,7.25274 1.31908,1.31907 2.75971,2.43632 4.275,3.39082 v 0.20215 l 0.18632,-0.0932 c 3.93051,2.42713 8.39201,3.66328 12.86368,3.66328 6.27297,0 12.54602,-2.38412 17.325,-7.16308 4.62597,-4.62598 7.17364,-10.77304 7.17364,-17.325 0,-6.542972 -2.54767,-12.699029 -7.17364,-17.325001 -4.62598,-4.625972 -10.78203,-7.173634 -17.325,-7.173634 z m 0,2.457422 c 3.09116,0 6.07926,0.647596 8.82949,1.850977 0.30593,0.133859 0.60559,0.281017 0.90528,0.428906 2.13612,1.054155 4.11837,2.44164 5.85352,4.173047 4.16698,4.166976 6.45292,9.702311 6.45292,15.588283 0,5.88596 -2.29494,11.41954 -6.45292,15.58652 -6.98835,6.98103 -17.52163,8.29155 -25.83634,3.93223 -0.97181,-0.50953 -1.90169,-1.11976 -2.80371,-1.78418 -0.88213,-0.6498 -1.73855,-1.35008 -2.53652,-2.14805 -8.59495,-8.59494 -8.59495,-22.579852 0,-31.174803 4.16698,-4.166975 9.70232,-6.45293 15.58828,-6.45293 z M 9.2061832,84.645312 v 30.193948 l 22.7847658,11.37129 0.01406,-30.056839 z M 133.81399,91.873437 c -0.67497,0 -1.23222,0.548231 -1.23222,1.232227 v 23.484376 0.90527 c 0,0.675 0.54826,1.23398 1.23222,1.23399 h 5.81485 c 0.675,0 1.23222,-0.54999 1.23222,-1.23399 V 93.105664 c 0,-0.683996 -0.54822,-1.232227 -1.23222,-1.232227 h -3.54023 z m 1.23399,2.455665 h 1.04063 2.31679 v 21.933988 h -3.35742 v -0.90352 z m -11.60157,3.78984 c -0.67498,0 -1.23222,0.548235 -1.23222,1.232226 v 18.144142 c 0,0.675 0.54824,1.23398 1.23222,1.23399 h 4.84805 0.9668 c 0.62148,0 1.12342,-0.47341 1.20235,-1.08106 0.007,-0.0523 0.0299,-0.0987 0.0299,-0.15293 V 99.342384 c -0.009,-0.675 -0.55723,-1.223442 -1.23223,-1.223442 z m 1.2252,2.457418 h 3.35567 v 15.68673 h -3.35567 z m -83.411716,0.15645 -0.02813,30.08497 26.695899,13.32773 v -30.07266 z m 71.810156,4.54922 c -0.675,0 -1.23399,0.54998 -1.23399,1.23398 v 10.9793 c 0,0.675 0.54999,1.23399 1.23399,1.23399 h 0.23028 5.58281 c 0.675,0 1.23398,-0.54999 1.23399,-1.23399 v -10.9793 c -0.009,-0.684 -0.55899,-1.23398 -1.23399,-1.23398 h -5.58985 z m 1.22344,2.45743 h 3.35742 v 8.52363 h -3.35742 z m 34.44257,17.71171 c -0.351,0.387 -0.71008,0.76634 -1.08808,1.14434 -0.369,0.378 -0.75558,0.73708 -1.14258,1.08808 0.387,-0.351 0.77358,-0.71008 1.14258,-1.08808 0.378,-0.378 0.73708,-0.75734 1.08808,-1.14434 z" /></svg>
