<?xml version="1.0" encoding="UTF-8" standalone="no"?>
<svg
   data-name="Layer 1"
   viewBox="0 0 486.00098 512.02972"
   x="0px"
   y="0px"
   version="1.1"
   id="svg2"
   sodipodi:docname="noun-windsock-4502486.svg"
   inkscape:version="1.3.2 (091e20ef0f, 2023-11-25, custom)"
   width="486.00098"
   height="512.02972"
   xmlns:inkscape="http://www.inkscape.org/namespaces/inkscape"
   xmlns:sodipodi="http://sodipodi.sourceforge.net/DTD/sodipodi-0.dtd"
   xmlns="http://www.w3.org/2000/svg"
   xmlns:svg="http://www.w3.org/2000/svg">
  <defs
     id="defs2" />
  <sodipodi:namedview
     id="namedview2"
     pagecolor="#505050"
     bordercolor="#ffffff"
     borderopacity="1"
     inkscape:showpageshadow="0"
     inkscape:pageopacity="0"
     inkscape:pagecheckerboard="1"
     inkscape:deskcolor="#505050"
     inkscape:zoom="1.3375"
     inkscape:cx="242.61682"
     inkscape:cy="320"
     inkscape:window-width="1920"
     inkscape:window-height="1080"
     inkscape:window-x="0"
     inkscape:window-y="0"
     inkscape:window-maximized="0"
     inkscape:current-layer="svg2" />
  <path
     d="m 447.39453,125.50496 a 6.748326,6.748326 0 0 0 -6.80097,-2.79668 86.895198,86.895198 0 0 1 -34.63726,-0.0395 c -20.07202,-4.25 -32.93349,-13.07158 -54.24125,-27.687354 -11.23732,-7.708059 -24.76737,-16.984035 -42.71908,-27.904176 -0.023,-0.01367 -0.0455,-0.02829 -0.0688,-0.04169 -3.68339,-2.240055 -7.5381,-4.543839 -11.61343,-6.923421 -43.06904,-25.149906 -93.8808,-25.157376 -151.02113,-0.02461 a 6.740802,6.740802 0 0 0 -2.19584,1.555389 6.740253,6.740253 0 0 0 -1.09875,1.19295 L 89.100049,138.31744 v -8.73919 a 6.750054,6.750054 0 0 0 -6.75,-6.75 h -5.4 V 83.293729 a 32.4,32.4 0 1 0 -40.5,0 v 39.534521 h -5.4 a 6.750054,6.750054 0 0 0 -6.75,6.75 v 55.8 a 6.750054,6.750054 0 0 0 6.75,6.75 h 5.4 v 287.55 a 6.750054,6.750054 0 0 0 6.75,6.75 h 27 a 6.750054,6.750054 0 0 0 6.75,-6.75 v -287.55 h 5.4 a 6.750054,6.750054 0 0 0 6.75,-6.75 v -9.0018 l 54.886381,58.1753 a 6.7383,6.7383 0 0 0 9.40765,0.3921 c 37.58911,-23.33051 75.10276,-32.43999 111.51886,-27.06647 14.91461,2.20166 25.0875,6.12686 35.85806,10.28189 9.3006,3.58857 18.91757,7.29887 32.0625,10.18696 22.9144,5.03394 47.45742,5.18775 72.94833,0.45967 a 255.12492,255.12492 0 0 0 39.47125,-10.82988 6.750126,6.750126 0 0 0 3.375,-2.66924 80.525214,80.525214 0 0 0 -1.23355,-89.80181 z M 63.450049,472.92825 h -13.5 v -280.8 h 13.5 z m 12.15,-294.3 h -37.8 v -42.3 h 37.8 z m -25.65,-55.8 V 89.716012 a 32.341383,32.341383 0 0 0 13.5,0 v 33.112238 z m 6.75,-45.899996 a 18.9,18.9 0 1 1 18.9,-18.9 18.921231,18.921231 0 0 1 -18.9,18.9 z m 34.368804,81.862866 32.174997,-45.05949 a 164.17858,164.17858 0 0 0 3.84187,83.23462 z m 57.624827,56.06411 a 151.1812,151.1812 0 0 1 0.0568,-133.765628 165.27356,165.27356 0 0 1 14.15007,69.095488 165.51997,165.51997 0 0 1 -14.20681,64.67014 z m 80.81384,-80.19426 a 163.00609,163.00609 0 0 1 -15.0405,61.0964 190.3086,190.3086 0 0 0 -50.57996,17.75335 178.69445,178.69445 0 0 0 12.51253,-63.1393 179.09429,179.09429 0 0 0 -18.0729,-80.722708 q 28.75029,-11.7162 54.90027,-14.175495 a 165.42876,165.42876 0 0 1 16.28056,79.187753 z m 80.99517,9.13098 a 182.6539,182.6539 0 0 1 -11.58135,59.21752 150.6699,150.6699 0 0 0 -32.03701,-8.48705 153.56603,153.56603 0 0 0 -22.46573,-1.65103 q -7.1217,0 -14.272,0.66792 a 176.01696,176.01696 0 0 0 12.84598,-58.24374 178.5895,178.5895 0 0 0 -15.20244,-80.475681 123.7725,123.7725 0 0 1 62.71655,16.950087 c 3.30068,1.927278 6.45205,3.803688 9.49148,5.639562 a 182.59261,182.59261 0 0 1 10.50452,66.382412 z m 61.74377,74.91989 a 158.03515,158.03515 0 0 1 -36.51609,-3.55094 170.7724,170.7724 0 0 1 -24.19573,-7.34123 196.74022,196.74022 0 0 0 5.97947,-119.488416 c 10.34577,6.658875 18.98273,12.582256 26.56455,17.782856 10.31051,7.07228 18.97411,13.00018 27.62337,17.81114 a 184.9311,184.9311 0 0 1 0.54443,94.78658 z m 66.2531,-12.6652 a 239.71563,239.71563 0 0 1 -35.18041,9.486 q -8.57808,1.59125 -16.97707,2.38662 a 198.06039,198.06039 0 0 0 1.00541,-86.64187 107.34444,107.34444 0 0 0 15.8121,4.59866 99.957906,99.957906 0 0 0 35.41069,0.85781 66.962205,66.962205 0 0 1 -0.0707,69.31274 z"
     id="path1"
     style="stroke-width:0.9" />
</svg>
