<?xml version="1.0" encoding="UTF-8" standalone="no"?>
<svg
   viewBox="0 0 110.00014 110.00014"
   version="1.1"
   id="svg1"
   sodipodi:docname="radius-outline.svg"
   width="110"
   height="110"
   inkscape:version="1.4 (e7c3feb100, 2024-10-09)"
   xmlns:inkscape="http://www.inkscape.org/namespaces/inkscape"
   xmlns:sodipodi="http://sodipodi.sourceforge.net/DTD/sodipodi-0.dtd"
   xmlns="http://www.w3.org/2000/svg"
   xmlns:svg="http://www.w3.org/2000/svg">
  <defs
     id="defs1" />
  <sodipodi:namedview
     id="namedview1"
     pagecolor="#505050"
     bordercolor="#ffffff"
     borderopacity="1"
     inkscape:showpageshadow="0"
     inkscape:pageopacity="0"
     inkscape:pagecheckerboard="1"
     inkscape:deskcolor="#505050"
     inkscape:zoom="3.5206439"
     inkscape:cx="65.186939"
     inkscape:cy="74.844264"
     inkscape:window-width="1920"
     inkscape:window-height="2128"
     inkscape:window-x="0"
     inkscape:window-y="0"
     inkscape:window-maximized="0"
     inkscape:current-layer="svg1" />
  <g
     id="g15"
     transform="matrix(1.0633497,0,0,1.0633497,1.8325862,1.8325862)">
    <g
       id="g14">
      <path
         d="M 50,4.979 C 25.176,4.979 4.979,25.176 4.979,50 4.979,74.824 25.176,95.021 50,95.021 74.824,95.021 95.021,74.824 95.021,50 95.021,25.176 74.824,4.979 50,4.979 Z m 0,81.042 C 30.139,86.021 13.979,69.862 13.979,50 13.979,30.138 30.139,13.979 50,13.979 c 19.861,0 36.021,16.16 36.021,36.021 0,19.861 -16.16,36.021 -36.021,36.021 z"
         id="path13" />
      <path
         d="M 54.429,48.7 C 54.465,48.47 54.5,48.24 54.5,48 V 28.374 c 0,-2.485 -2.015,-4.5 -4.5,-4.5 -2.485,0 -4.5,2.015 -4.5,4.5 V 48 c 0,0.383 -0.048,4.739 1.365,6.006 L 60.79,66.489 c 0.859,0.771 1.933,1.149 3.002,1.149 1.234,0 2.464,-0.505 3.353,-1.496 1.659,-1.851 1.504,-4.695 -0.347,-6.354 z"
         id="path14" />
    </g>
  </g>
</svg>
