<?xml version="1.0" encoding="UTF-8" standalone="no"?>
<svg
   version="1.1"
   x="0px"
   y="0px"
   viewBox="0 0 100 125"
   style="enable-background:new 0 0 100 100;"
   xml:space="preserve"
   id="svg7"
   sodipodi:docname="noun-solar-energy-853048.svg"
   inkscape:version="1.3.2 (091e20ef0f, 2023-11-25, custom)"
   xmlns:inkscape="http://www.inkscape.org/namespaces/inkscape"
   xmlns:sodipodi="http://sodipodi.sourceforge.net/DTD/sodipodi-0.dtd"
   xmlns="http://www.w3.org/2000/svg"
   xmlns:svg="http://www.w3.org/2000/svg"><defs
     id="defs7" /><sodipodi:namedview
     id="namedview7"
     pagecolor="#505050"
     bordercolor="#ffffff"
     borderopacity="1"
     inkscape:showpageshadow="0"
     inkscape:pageopacity="0"
     inkscape:pagecheckerboard="1"
     inkscape:deskcolor="#505050"
     inkscape:zoom="4.16"
     inkscape:cx="50"
     inkscape:cy="62.5"
     inkscape:window-width="768"
     inkscape:window-height="1034"
     inkscape:window-x="0"
     inkscape:window-y="0"
     inkscape:window-maximized="0"
     inkscape:current-layer="svg7" /><g
     id="g6"><path
       d="M50.6,23c1.4,0,2.6-1.2,2.6-2.6v-8.6c0-1.4-1.2-2.6-2.6-2.6S48,10.4,48,11.8v8.6C48,21.9,49.1,23,50.6,23z"
       id="path1" /><path
       d="M27.4,31.1c0.5,0.5,1.2,0.8,1.8,0.8c0.7,0,1.3-0.3,1.8-0.8c1-1,1-2.6,0-3.6L25,21.4c-1-1-2.6-1-3.6,0c-1,1-1,2.6,0,3.6   L27.4,31.1z"
       id="path2" /><path
       d="M23,50.6c0-1.4-1.2-2.6-2.6-2.6h-8.6c-1.4,0-2.6,1.2-2.6,2.6s1.2,2.6,2.6,2.6h8.6C21.8,53.2,23,52,23,50.6z"
       id="path3" /><path
       d="M27.4,70.1l-6.1,6.1c-1,1-1,2.6,0,3.6c0.5,0.5,1.2,0.8,1.8,0.8c0.7,0,1.3-0.3,1.8-0.8l6.1-6.1c1-1,1-2.6,0-3.6   C30,69.1,28.4,69.1,27.4,70.1z"
       id="path4" /><path
       d="M71.9,31.8c0.7,0,1.3-0.3,1.8-0.8l6.1-6.1c1-1,1-2.6,0-3.6c-1-1-2.6-1-3.6,0l-6.1,6.1c-1,1-1,2.6,0,3.6   C70.6,31.6,71.2,31.8,71.9,31.8z"
       id="path5" /><path
       d="M86.6,74l-4.3,0l0-6l4.3,0c0.6,0,1.2-0.5,1.2-1.2c0-0.6-0.5-1.2-1.2-1.2l-4.3,0l0-2.6c0-0.8-0.7-1.5-1.5-1.5   s-1.5,0.7-1.5,1.5l0,0.5l-1.1,0c-2.1,0-4.1,0.8-5.7,2.2c-0.8,0.8-1.5,1.7-1.9,2.7h-20c-9.8,0-17.9-8-17.9-17.9s8-17.9,17.9-17.9   s17.9,8,17.9,17.9c0,1.4,1.2,2.6,2.6,2.6s2.6-1.2,2.6-2.6c0-12.7-10.3-23-23-23s-23,10.3-23,23s10.3,23,23,23h20c0.4,1,1,2,1.9,2.8   c1.5,1.4,3.5,2.2,5.7,2.2c0,0,0,0,0,0l1.1,0l0,0.5c0,0.8,0.7,1.5,1.5,1.5h0c0.8,0,1.5-0.7,1.5-1.5l0-2.6l4.3,0   c0.6,0,1.2-0.5,1.2-1.2C87.7,74.6,87.2,74,86.6,74z"
       id="path6" /></g></svg>
