<?xml version="1.0" encoding="UTF-8" standalone="no"?>
<svg
   version="1.1"
   x="0px"
   y="0px"
   viewBox="0 0 331.16073 377.62713"
   enable-background="new 0 0 100 100"
   xml:space="preserve"
   id="svg8"
   sodipodi:docname="noun-sun-525998.svg"
   width="331.16074"
   height="377.62714"
   inkscape:version="1.3.2 (091e20ef0f, 2023-11-25, custom)"
   xmlns:inkscape="http://www.inkscape.org/namespaces/inkscape"
   xmlns:sodipodi="http://sodipodi.sourceforge.net/DTD/sodipodi-0.dtd"
   xmlns="http://www.w3.org/2000/svg"
   xmlns:svg="http://www.w3.org/2000/svg"><defs
     id="defs8"><rect
       x="184.87517"
       y="43.409958"
       width="44.796974"
       height="50.896748"
       id="rect8" /></defs><sodipodi:namedview
     id="namedview8"
     pagecolor="#505050"
     bordercolor="#ffffff"
     borderopacity="1"
     inkscape:showpageshadow="0"
     inkscape:pageopacity="0"
     inkscape:pagecheckerboard="1"
     inkscape:deskcolor="#505050"
     inkscape:zoom="1.1872827"
     inkscape:cx="376.91108"
     inkscape:cy="116.2318"
     inkscape:window-width="1920"
     inkscape:window-height="1080"
     inkscape:window-x="0"
     inkscape:window-y="0"
     inkscape:window-maximized="0"
     inkscape:current-layer="svg8" /><path
     d="m 200.89334,154.40889 c 10.10029,6.24024 21.68046,9.53896 33.49755,9.53896 22.32198,0 42.64285,-11.32137 54.36153,-30.28995 18.50202,-29.94367 9.18904,-69.357055 -20.75099,-87.859075 -10.10029,-6.24024 -21.68046,-9.538964 -33.4939,-9.538964 -22.32198,0 -42.64286,11.32137 -54.36154,30.289949 -8.96305,14.503455 -11.74054,31.63131 -7.82217,48.22699 3.91838,16.59569 14.06606,30.67268 28.56952,39.63209 z m -11.9629,-82.424385 c 9.82328,-15.89949 26.86001,-25.39107 45.57344,-25.39107 9.89253,0 19.59917,2.766556 28.06286,7.993486 12.15607,7.512344 20.6635,19.307564 23.94765,33.216884 3.28414,13.905675 0.95863,28.263335 -6.55371,40.419405 -9.82328,15.89584 -26.86001,25.38742 -45.56979,25.38742 -9.89618,0 -19.59917,-2.76655 -28.0665,-7.99348 -12.15608,-7.51235 -20.66351,-19.30756 -23.94766,-33.21689 -3.28414,-13.90567 -0.95499,-28.25968 6.55371,-40.415755 z"
     id="path1"
     style="stroke-width:3.645" /><path
     d="m 138.23215,127.83319 c 2.05578,7.1114 9.70663,10.41377 16.45352,13.32612 4.10791,1.77512 8.76258,3.78351 10.2388,5.96687 1.43978,2.12868 1.56006,7.14784 1.66941,11.57652 0.18225,7.40299 0.38637,15.79378 6.29856,20.39742 2.43122,1.8954 5.46386,2.81758 9.26195,2.81758 3.69967,0 7.66908,-0.88573 11.50362,-1.74231 4.70934,-1.0534 9.85244,-2.01933 12.18888,-1.17004 2.64992,0.96228 5.81378,5.07748 8.60585,8.7079 4.6255,6.01425 9.40774,12.23627 16.62849,12.48048 0.0584,0 0.36814,0.008 0.42646,0.008 0,0 0,0 0,0 7.27542,0 12.69554,-6.17827 17.47413,-11.62755 2.91965,-3.33153 6.23295,-7.1041 8.70062,-7.81852 2.28906,-0.65975 7.21345,0.65245 11.68587,1.97923 4.32297,1.2794 8.78809,2.60253 12.99807,2.60253 3.17115,0 5.92312,-0.76909 8.17209,-2.28906 6.07986,-4.10427 6.86353,-12.34926 7.55608,-19.62468 0.42647,-4.49064 0.91125,-9.58635 2.57702,-11.72232 1.51996,-1.95007 6.18192,-3.59032 10.29348,-5.03739 7.04214,-2.47495 15.02469,-5.2816 17.61628,-12.44038 2.59524,-7.15878 -1.73502,-14.42691 -5.55133,-20.83846 -2.23074,-3.74706 -4.76037,-7.99349 -4.67654,-10.4648 0.0912,-2.70823 2.98161,-6.925499 5.53676,-10.647044 4.12978,-6.025185 8.81361,-12.855915 6.7797,-19.9017 -2.05578,-7.111395 -9.70299,-10.41012 -16.45353,-13.32612 -4.10792,-1.775115 -8.76623,-3.78351 -10.23881,-5.97051 -1.43977,-2.12868 -1.56006,-7.147845 -1.66941,-11.57652 -0.18225,-7.402995 -0.38637,-15.79014 -6.29856,-20.39742 -2.43121,-1.8954 -5.46385,-2.817585 -9.26194,-2.817585 -3.69968,0 -7.66908,0.885735 -11.50362,1.74231 -4.70934,1.04976 -9.85244,2.01204 -12.18888,1.170045 C 260.40525,20.23715 257.24139,16.1183 254.44932,12.48788 249.82382,6.47363 245.04158,0.251615 237.82083,0.0074 237.76263,0.0074 237.45269,0 237.39437,0 c -7.27907,0 -12.69554,6.178275 -17.47778,11.62755 -2.91964,3.33153 -6.23295,7.104105 -8.70061,7.818525 -2.28177,0.659745 -7.20981,-0.652455 -11.68588,-1.979235 -4.32297,-1.279395 -8.78809,-2.60253 -12.99807,-2.60253 -3.17115,0 -5.92312,0.769095 -8.17209,2.28906 -6.07986,4.10427 -6.86353,12.34926 -7.55608,19.624681 -0.42647,4.49064 -0.91125,9.58635 -2.57702,11.72232 -1.51996,1.950074 -6.18192,3.590325 -10.29348,5.03739 -7.04214,2.474954 -15.02468,5.281604 -17.61627,12.440384 -2.59524,7.15878 1.73502,14.42691 5.55133,20.838465 2.23074,3.74706 4.76036,7.993485 4.67653,10.464795 -0.091,2.708235 -2.98525,6.925505 -5.53675,10.647045 -4.12978,6.02883 -8.81361,12.85956 -6.77605,19.90535 z m 15.29805,-14.0624 c 3.51378,-5.12487 7.1442,-10.4247 7.34103,-16.143709 0.1859,-5.500306 -3.0217,-10.887615 -6.1236,-16.099966 -2.5114,-4.22091 -5.64245,-9.476999 -4.71298,-12.032145 0.92583,-2.555144 6.69586,-4.585409 11.3323,-6.214724 5.71901,-2.012041 11.63484,-4.08969 15.0174,-8.430885 3.51378,-4.51251 4.1225,-10.909485 4.70934,-17.091405 0.45198,-4.75308 1.01331,-10.66527 3.04722,-12.039435 0.51395,-0.346275 1.31585,-0.521235 2.39112,-0.521235 2.71188,0 6.44801,1.10808 10.06385,2.17971 4.31204,1.279395 8.77352,2.598885 12.97256,2.598885 1.62202,0 3.13834,-0.200475 4.51615,-0.59778 5.37273,-1.55277 9.55719,-6.32043 13.5995,-10.931355 3.1675,-3.612195 7.11139,-8.110125 9.78682,-8.110125 v 0 c 2.35103,0.08019 5.91948,4.720275 8.78445,8.452755 3.8309,4.98636 7.79301,10.14039 13.27509,12.126915 4.86243,1.760535 11.69316,0.601425 17.96256,-0.798255 3.44088,-0.769095 6.68858,-1.49445 9.25101,-1.49445 0.95499,0 2.23803,0.10935 2.91236,0.63423 2.05213,1.59651 2.19793,7.63992 2.31457,12.49506 0.1494,6.13089 0.30254,12.47319 3.43359,17.105985 3.16751,4.691115 9.03596,7.22439 14.70758,9.67383 4.41774,1.90998 9.92169,4.282875 10.62153,6.710445 0.68161,2.358315 -2.67543,7.257195 -5.37273,11.193795 -3.51378,5.12487 -7.1442,10.4247 -7.34103,16.140059 -0.18585,5.50031 3.0217,10.88762 6.1236,16.09997 2.5114,4.22091 5.64246,9.477 4.71298,12.03214 -0.92583,2.55515 -6.69586,4.58541 -11.3323,6.21473 -5.71901,2.01204 -11.63484,4.08969 -15.0174,8.43088 -3.51378,4.51251 -4.1225,10.90948 -4.70934,17.0914 -0.45198,4.75308 -1.01331,10.66527 -3.04722,12.03944 -0.51395,0.34627 -1.31585,0.52123 -2.39112,0.52123 -2.71188,0 -6.44801,-1.10808 -10.06385,-2.17971 -4.31203,-1.27939 -8.77351,-2.59888 -12.97255,-2.59888 -1.62203,0 -3.13835,0.20047 -4.51616,0.59778 -5.37273,1.55277 -9.55719,6.32043 -13.59949,10.93135 -3.17115,3.6122 -7.11504,8.11013 -9.71393,8.11013 v 5.16496 l -0.0765,-5.16496 c -2.35102,-0.0802 -5.91948,-4.72028 -8.78809,-8.45276 -3.8309,-4.98271 -7.79301,-10.13674 -13.27509,-12.12327 -1.8225,-0.65974 -3.8309,-0.9805 -6.14183,-0.9805 -3.84912,0 -7.90236,0.90396 -11.82438,1.77876 -3.44088,0.76909 -6.68858,1.49445 -9.25101,1.49445 -0.95499,0 -2.23803,-0.10935 -2.91236,-0.63423 -2.05213,-1.59651 -2.19793,-7.63992 -2.31822,-12.49871 -0.1494,-6.13089 -0.30253,-12.46954 -3.43359,-17.10598 -3.1675,-4.69111 -9.03231,-7.22074 -14.70757,-9.67383 -4.42139,-1.90633 -9.92168,-4.28287 -10.62152,-6.71044 -0.66704,-2.35467 2.69,-7.25355 5.3873,-11.19015 z"
     id="path2"
     style="stroke-width:3.645" /><path
     d="m 23.19959,195.80149 c 1.242945,0 2.489535,-0.44469 3.47733,-1.34865 2.693655,-2.45308 4.661955,-2.64625 7.643565,-2.93421 3.728835,-0.3645 8.372565,-0.81648 13.60314,-5.58414 5.23422,-4.76766 6.112665,-9.34942 6.81615,-13.03087 0.564975,-2.94152 0.936765,-4.8843 3.63042,-7.33739 2.69001,-2.44944 4.65831,-2.64262 7.636275,-2.93058 3.728835,-0.3645 8.36892,-0.81283 13.599495,-5.58049 5.22693,-4.76402 6.10173,-9.34214 6.805215,-13.01994 0.56133,-2.93787 0.93312,-4.87701 3.61584,-7.32645 2.68272,-2.4458 4.65102,-2.63533 7.62534,-2.92329 3.72884,-0.36085 8.36892,-0.80554 13.59221,-5.56956 2.11045,-1.92091 2.2599,-5.19048 0.33898,-7.29729 -1.92091,-2.11045 -5.19048,-2.2599 -7.29729,-0.33898 -2.68272,2.44579 -4.65102,2.63533 -7.62534,2.92329 -3.728835,0.36085 -8.36892,0.80554 -13.592205,5.56956 -5.22693,4.76401 -6.10173,9.34213 -6.805215,13.01994 -0.56133,2.93787 -0.93312,4.877 -3.619485,7.32644 -2.686365,2.44944 -4.654665,2.64263 -7.636275,2.93058 -3.728835,0.36086 -8.36892,0.81284 -13.599495,5.57685 -5.23422,4.76766 -6.112665,9.34943 -6.81615,13.03088 -0.564975,2.94151 -0.936765,4.8843 -3.63042,7.34103 -2.693655,2.45308 -4.661955,2.64627 -7.643565,2.93422 -3.728835,0.3645 -8.372565,0.81648 -13.60314,5.58414 -2.110455,1.92092 -2.2599,5.18684 -0.338985,7.29729 1.024245,1.11902 2.423925,1.68764 3.823605,1.68762 z"
     id="path3"
     style="stroke-width:3.645" /><path
     d="m 5.16413,248.31865 c 1.242945,0 2.489535,-0.44833 3.47733,-1.34865 3.794445,-3.45546 6.367815,-3.95482 9.932625,-4.64737 4.005855,-0.77639 8.98857,-1.74596 14.92263,-7.15514 5.93406,-5.40918 7.3629,-10.2789 8.503785,-14.19727 1.0206,-3.48827 1.75689,-6.00332 5.54769,-9.46242 3.7908,-3.45182 6.36417,-3.95118 9.925335,-4.64009 4.00221,-0.77638 8.984925,-1.74595 14.91534,-7.15149 5.930415,-5.40189 7.351965,-10.27161 8.49285,-14.18632 1.016955,-3.48098 1.7496,-5.99603 5.53311,-9.4442 3.787155,-3.44817 6.360525,-3.94753 9.92169,-4.63644 4.002215,-0.77638 8.984925,-1.74231 14.915345,-7.14784 2.11045,-1.92092 2.2599,-5.19048 0.33898,-7.29729 -1.92091,-2.10681 -5.19048,-2.25626 -7.29729,-0.33899 -3.78715,3.45182 -6.360525,3.94754 -9.92169,4.64009 -4.00221,0.77638 -8.98128,1.74231 -14.911695,7.14784 -5.930415,5.40189 -7.351965,10.27161 -8.49285,14.18634 -1.016955,3.48098 -1.7496,5.99601 -5.53311,9.44418 -3.7908,3.45182 -6.36417,3.95118 -9.925335,4.64009 -4.00221,0.77638 -8.984925,1.74597 -14.91534,7.1515 -5.93406,5.40918 -7.3629,10.27889 -8.503785,14.19726 -1.0206,3.48827 -1.75689,6.00333 -5.54769,9.46242 -3.7908,3.45911 -6.367815,3.95483 -9.932625,4.64738 -4.005855,0.7764 -8.98857,1.74595 -14.92263,7.15513 -2.11045095,1.92092 -2.25990095,5.18684 -0.338985,7.29729 1.01331,1.11903 2.41299,1.68399 3.816315,1.68399 z"
     id="path4"
     style="stroke-width:3.645" /><path
     d="m 104.60338,195.26203 c -3.72884,0.36087 -8.37257,0.81284 -13.5995,5.57685 -5.230575,4.76766 -6.10902,9.34578 -6.81615,13.02723 -0.564975,2.94152 -0.936765,4.88432 -3.63042,7.34103 -2.693655,2.45309 -4.661955,2.64627 -7.643565,2.93423 -3.728835,0.36451 -8.372565,0.81283 -13.60314,5.58414 -2.110455,1.92091 -2.2599,5.19048 -0.338985,7.29729 1.016955,1.11901 2.416635,1.68763 3.81996,1.68763 1.242945,0 2.489535,-0.44833 3.47733,-1.34865 2.693655,-2.45308 4.661955,-2.64627 7.643565,-2.93422 3.728835,-0.3645 8.372565,-0.81284 13.60314,-5.58414 5.23422,-4.76766 6.112665,-9.34578 6.819795,-13.02723 0.564975,-2.94516 0.936765,-4.88795 3.626775,-7.34103 2.690015,-2.44944 4.658315,-2.64261 7.636275,-2.93058 3.72884,-0.36086 8.37257,-0.80919 13.5995,-5.57685 5.22693,-4.76402 6.10173,-9.34212 6.80521,-13.01994 0.56133,-2.93786 0.92948,-4.877 3.61584,-7.32279 2.68637,-2.4458 4.65102,-2.63534 7.62534,-2.92329 3.72884,-0.36086 8.36892,-0.80919 13.5922,-5.57321 2.11045,-1.92091 2.2599,-5.19048 0.33898,-7.29729 -1.9209,-2.11045 -5.18682,-2.25625 -7.29728,-0.33898 -2.68272,2.44579 -4.65102,2.63533 -7.62534,2.92329 -3.72883,0.36085 -8.36527,0.80919 -13.5922,5.56956 -5.22693,4.76037 -6.10173,9.34213 -6.80522,13.01994 -0.56133,2.93785 -0.92947,4.87699 -3.61584,7.32643 -2.69001,2.44944 -4.65831,2.64263 -7.63627,2.93058 z"
     id="path5"
     style="stroke-width:3.645" /><path
     d="m 136.57732,215.0872 c 2.68272,-2.44579 4.65102,-2.63533 7.62534,-2.92327 3.72883,-0.36087 8.36891,-0.80558 13.59219,-5.56956 2.11046,-1.92092 2.2599,-5.19048 0.33899,-7.29731 -1.92092,-2.11045 -5.18684,-2.25991 -7.29729,-0.339 -2.68271,2.44581 -4.65101,2.63535 -7.62533,2.92331 -3.72884,0.36087 -8.36892,0.80553 -13.59221,5.56954 -5.22693,4.76403 -6.10173,9.34214 -6.80521,13.01994 -0.56133,2.93787 -0.93312,4.87701 -3.61584,7.32645 -2.69001,2.44944 -4.65831,2.64263 -7.63992,2.93058 -3.72884,0.36086 -8.36892,0.81284 -13.595855,5.57685 -5.23422,4.76768 -6.112665,9.34944 -6.81615,13.03089 -0.564975,2.9415 -0.936765,4.8843 -3.63042,7.34103 -2.693655,2.45309 -4.661955,2.64629 -7.643565,2.93424 -3.728835,0.36449 -8.372565,0.81647 -13.60314,5.58413 -2.110455,1.92091 -2.2599,5.18683 -0.338985,7.29729 1.016955,1.11901 2.416635,1.68763 3.81996,1.68763 1.242945,0 2.489535,-0.44469 3.47733,-1.34865 2.693655,-2.45308 4.661955,-2.64627 7.643565,-2.93422 3.728835,-0.36452 8.372565,-0.81648 13.60314,-5.58416 5.23422,-4.76766 6.11267,-9.34941 6.81615,-13.03086 0.56498,-2.94153 0.93677,-4.8843 3.63042,-7.33738 2.69001,-2.44944 4.65831,-2.64263 7.63628,-2.93058 3.72883,-0.3645 8.36892,-0.81284 13.59949,-5.5805 5.22693,-4.76403 6.10173,-9.34213 6.80522,-13.01994 0.56497,-2.94151 0.93312,-4.88065 3.61584,-7.32645 z"
     id="path6"
     style="stroke-width:3.645" /><path
     d="m 137.96971,261.31672 c 1.24294,0 2.48953,-0.44469 3.47733,-1.34865 1.71315,-1.56006 2.92329,-1.62202 5.74087,-1.62567 3.35704,-0.005 7.95703,-0.009 12.68824,-4.32297 4.73121,-4.31566 5.16496,-8.89015 5.47479,-12.23262 0.26244,-2.80665 0.44104,-4.00585 2.15055,-5.56591 1.70586,-1.55277 2.91235,-1.61474 5.72629,-1.61474 3.35705,0 7.95339,0 12.68096,-4.31202 4.73121,-4.31203 5.15403,-8.88652 5.4675,-12.22897 0.25879,-2.79935 0.43375,-3.99492 2.13597,-5.54769 1.69857,-1.54548 2.90142,-1.61109 5.69349,-1.61109 0.009,0 0.018,0 0.0292,0 3.25499,-0.0948 7.94975,0 12.68096,-4.31204 2.11045,-1.92091 2.2599,-5.19048 0.33898,-7.29729 -1.92091,-2.11045 -5.19048,-2.2599 -7.29729,-0.33898 -1.69857,1.54548 -2.90142,1.61109 -5.69349,1.61109 -0.009,0 -0.018,0 -0.0292,0 -3.40443,0.1203 -7.94975,0 -12.68096,4.31205 -4.73121,4.31202 -5.15767,8.88651 -5.4675,12.22896 -0.25879,2.79937 -0.43375,3.99492 -2.13597,5.54769 -1.70586,1.55277 -2.91235,1.61473 -5.72629,1.61473 -3.35705,0 -7.95339,0 -12.68096,4.31204 -4.73485,4.31568 -5.16496,8.89015 -5.47479,12.23262 -0.26244,2.80665 -0.44104,4.00585 -2.15055,5.56227 -1.71315,1.56006 -2.92328,1.62202 -5.74086,1.62567 -3.35705,0.005 -7.95704,0.009 -12.68825,4.31932 -2.11045,1.92092 -2.2599,5.19048 -0.33898,7.29729 1.0206,1.12995 2.42028,1.69493 3.81996,1.69491 z"
     id="path7"
     style="stroke-width:3.645" /><path
     d="m 268.57657,340.20845 c -1.49517,0 -2.70864,-1.21346 -2.70864,-2.70864 v -22.94489 c 0,-1.49517 1.21347,-2.70864 2.70864,-2.70864 1.49516,0 2.70864,1.21347 2.70864,2.70864 v 22.94489 c 0,1.49653 -1.21213,2.70864 -2.70864,2.70864 z m 30.29479,-6.39509 c -0.99409,0 -1.95024,-0.54851 -2.42562,-1.49789 l -8.15977,-16.33581 c -0.66901,-1.33806 -0.12583,-2.96459 1.2135,-3.63363 1.33534,-0.67039 2.96458,-0.12594 3.63361,1.21347 l 8.16114,16.33716 c 0.66904,1.33807 0.12583,2.9646 -1.21346,3.63364 -0.38869,0.19231 -0.80177,0.28306 -1.2094,0.28306 z m -61.93171,0 c -0.40629,0 -0.81937,-0.0907 -1.20805,-0.28577 -1.33808,-0.66768 -1.88115,-2.29422 -1.21348,-3.63364 l 8.16112,-16.33716 c 0.6677,-1.33807 2.29425,-1.88386 3.63365,-1.21347 1.33809,0.66768 1.88117,2.29422 1.21347,3.63364 l -8.16249,16.33851 c -0.47401,0.94938 -1.43014,1.49789 -2.42422,1.49789 z m 83.05368,-7.29167 c -0.78146,0 -1.55747,-0.33722 -2.09244,-0.9873 l -7.44197,-9.04414 c -0.95074,-1.15524 -0.78416,-2.86167 0.36972,-3.81106 1.15523,-0.95073 2.86166,-0.78415 3.8124,0.36973 l 7.44199,9.04416 c 0.95073,1.15522 0.78416,2.86166 -0.36973,3.81104 -0.50381,0.41442 -1.11326,0.61757 -1.71997,0.61757 z m -104.17564,0 c -0.60538,0 -1.21483,-0.2018 -1.71999,-0.61757 -1.15525,-0.94938 -1.32046,-2.65717 -0.36975,-3.81104 l 7.442,-9.04416 c 0.9521,-1.15523 2.65717,-1.32182 3.81239,-0.36973 1.15525,0.94939 1.32047,2.65717 0.36975,3.81106 l -7.44199,9.04414 c -0.53631,0.65008 -1.31098,0.9873 -2.09241,0.9873 z M 323.83283,308.02846 H 211.01797 c -1.49517,0 -2.70864,-1.21347 -2.70864,-2.70864 v -45.89114 c 0,-1.49517 1.21347,-2.70864 2.70864,-2.70864 h 112.81486 c 1.49516,0 2.70864,1.21347 2.70864,2.70864 v 45.89249 c 0,1.49517 -1.21348,2.70729 -2.70864,2.70729 z m -20.3148,-5.41728 h 17.60616 v -40.47386 h -17.60616 z m -67.22846,0 h 61.81118 v -40.47386 h -61.81118 z m -22.56296,0 h 17.14568 v -40.47386 h -17.14568 z m 53.46854,-50.2683 c -1.49517,0 -2.70864,-1.21347 -2.70864,-2.70864 v -22.94489 c 0,-1.49516 1.21347,-2.70864 2.70864,-2.70864 1.49518,0 2.70864,1.21348 2.70864,2.70864 v 22.94489 c 0,1.49652 -1.21212,2.70864 -2.70864,2.70864 z m 23.51101,-0.21398 c -0.4063,0 -0.81938,-0.0907 -1.20806,-0.28576 -1.33808,-0.66769 -1.88114,-2.29422 -1.21347,-3.63364 l 8.16111,-16.33716 c 0.6677,-1.33807 2.29425,-1.88522 3.63365,-1.21348 1.33809,0.66768 1.88117,2.29422 1.21347,3.63365 l -8.16114,16.33716 c -0.47402,0.95073 -1.43148,1.49923 -2.42556,1.49923 z m -45.6013,0 c -0.99409,0 -1.95024,-0.5485 -2.42562,-1.49788 l -8.16112,-16.33716 c -0.66904,-1.33807 -0.12597,-2.96461 1.21348,-3.63364 1.33536,-0.67174 2.9646,-0.12594 3.63361,1.21347 l 8.16115,16.33716 c 0.66904,1.33807 0.12583,2.9646 -1.21348,3.63364 -0.38866,0.19366 -0.80173,0.28441 -1.20802,0.28441 z m 67.44513,0 c -0.60538,0 -1.21482,-0.2018 -1.71998,-0.61758 -1.15525,-0.94937 -1.32047,-2.65716 -0.36975,-3.81104 l 7.44199,-9.04416 c 0.95073,-1.15523 2.65581,-1.32182 3.8124,-0.36973 1.15525,0.94939 1.32046,2.65718 0.36975,3.81106 l -7.442,9.04414 c -0.53494,0.65008 -1.31098,0.98731 -2.09241,0.98731 z m -89.28897,0 c -0.78146,0 -1.55747,-0.33723 -2.09243,-0.98731 l -7.44198,-9.04414 c -0.95074,-1.15524 -0.78416,-2.86167 0.36972,-3.81106 1.15523,-0.95073 2.86304,-0.78414 3.8124,0.36973 l 7.442,9.04416 c 0.95073,1.15522 0.78416,2.86167 -0.36973,3.81104 -0.50382,0.41578 -1.1146,0.61758 -1.71998,0.61758 z"
     id="path1-3"
     style="stroke-width:1.35432" /><text
     xml:space="preserve"
     id="text8"
     style="font-size:32px;font-family:'Source Code Pro';-inkscape-font-specification:'Source Code Pro, Normal';white-space:pre;shape-inside:url(#rect8);display:inline;fill:none;stroke:#000000;stroke-width:2;stroke-linecap:round;stroke-linejoin:round"
     transform="matrix(1.92375,0,0,1.92375,-229.9159,182.05677)"><tspan
       x="184.875"
       y="72.526162"
       id="tspan2"><tspan
         style="font-weight:bold;font-family:Sans;-inkscape-font-specification:'Sans Bold'"
         id="tspan1">vs</tspan></tspan></text></svg>
