<?xml version="1.0" encoding="UTF-8" standalone="no"?>
<svg
   version="1.1"
   x="0px"
   y="0px"
   viewBox="0 0 3151.2419 3155.8142"
   xml:space="preserve"
   id="svg26"
   sodipodi:docname="noun-transmission-control-protocol-6111114.svg"
   width="3151.2419"
   height="3155.8142"
   inkscape:version="1.3.2 (091e20ef0f, 2023-11-25, custom)"
   xmlns:inkscape="http://www.inkscape.org/namespaces/inkscape"
   xmlns:sodipodi="http://sodipodi.sourceforge.net/DTD/sodipodi-0.dtd"
   xmlns="http://www.w3.org/2000/svg"
   xmlns:svg="http://www.w3.org/2000/svg"><defs
     id="defs26" /><sodipodi:namedview
     id="namedview26"
     pagecolor="#505050"
     bordercolor="#ffffff"
     borderopacity="1"
     inkscape:showpageshadow="0"
     inkscape:pageopacity="0"
     inkscape:pagecheckerboard="1"
     inkscape:deskcolor="#505050"
     inkscape:zoom="0.0832"
     inkscape:cx="1574.5192"
     inkscape:cy="2199.5192"
     inkscape:window-width="807"
     inkscape:window-height="1034"
     inkscape:window-x="0"
     inkscape:window-y="0"
     inkscape:window-maximized="0"
     inkscape:current-layer="svg26" /><g
     id="g25"
     transform="matrix(0.81,0,0,0.81,-449.379,-447.09277)"><path
       d="m 3868.374,2151.498 117.103,117.104 c 7.967,7.967 20.883,7.967 28.85,0 l 44.186,-44.184 c 7.967,-7.967 7.967,-20.884 0,-28.851 l -102.68,-102.678 c -7.967,-7.967 -20.883,-7.967 -28.85,0 z"
       id="path1" /><path
       d="m 3640.68,1923.803 58.608,-58.608 c 7.967,-7.967 7.967,-20.883 0,-28.85 L 3596.61,1733.667 c -7.967,-7.967 -20.883,-7.967 -28.85,0 l -58.608,58.607 z"
       id="path2" /><path
       d="m 3339.461,1428.437 c 0,0 0,0 -0.01,0.01 l -242.22,242.222 c 0,0 0,0 0,0.01 0,0 -0.01,0 -0.01,0 l -56.583,56.582 c -7.967,7.967 -7.967,20.883 0,28.85 l 94.916,94.915 94.916,94.915 c 7.967,7.967 20.883,7.966 28.85,0 l 177.702,-177.702 c 0,-10e-4 0,0 0,0 0,-10e-4 0,0 0,0 l 212.806,-212.804 c 16.405,-16.405 16.405,-43.002 0,-59.407 l -159.279,-159.275 c -16.403,-16.403 -42.997,-16.403 -59.4,0 l -91.687,91.685 c 0,0 0,0 -0.01,0.01 z"
       id="path3" /><path
       d="m 3820.289,2199.582 -58.606,58.607 c -7.967,7.967 -7.966,20.883 0,28.85 l 102.678,102.678 c 7.967,7.967 20.883,7.967 28.85,0 l 44.183,-44.182 c 7.967,-7.967 7.967,-20.884 0,-28.85 z"
       id="path4" /><path
       d="m 2786.998,1166.287 -117.102,-117.102 c -7.967,-7.967 -20.884,-7.967 -28.85,0 l -44.184,44.184 c -7.967,7.967 -7.967,20.883 0,28.85 l 102.677,102.677 c 7.967,7.967 20.883,7.967 28.85,0 z"
       id="path5" /><path
       d="m 3713.599,2210.105 58.608,-58.608 -131.527,-131.527 -58.608,58.608 c -7.967,7.967 -7.967,20.883 0,28.85 l 102.677,102.677 c 7.967,7.967 20.883,7.967 28.85,0 z"
       id="path6" /><path
       d="m 3062.776,1345.899 131.528,131.528 58.608,-58.608 c 7.967,-7.967 7.967,-20.883 0,-28.85 l -102.677,-102.678 c -7.967,-7.967 -20.883,-7.967 -28.85,0 z"
       id="path7" /><path
       d="m 2835.083,1118.204 58.606,-58.609 c 7.966,-7.967 7.966,-20.883 0,-28.849 L 2791.014,928.068 c -7.967,-7.967 -20.883,-7.967 -28.85,0 l -44.184,44.183 c -7.967,7.967 -7.967,20.883 0,28.85 z"
       id="path8" /><path
       d="m 2896.943,1843.387 c -1.235,0.906 -1.922,2.142 -2.039,3.669 -0.12,1.531 0.372,2.856 1.454,3.938 l 119.604,119.602 c 0,0 0.01,0.01 0.01,0.01 0,0 0.01,0.01 0.01,0.012 l 119.604,119.603 c 1.083,1.082 2.404,1.59 3.938,1.458 1.527,-0.116 2.762,-0.803 3.669,-2.039 l 46.686,-63.662 c 5.955,-8.12 5.094,-19.369 -2.026,-26.489 l -200.761,-200.761 c -7.12,-7.12 -18.369,-7.98 -26.489,-2.026 z"
       id="path9" /><path
       d="m 2908.001,1404.508 58.609,-58.609 -131.528,-131.527 -58.611,58.608 c -7.967,7.967 -7.967,20.884 0,28.85 l 102.68,102.678 c 7.967,7.967 20.884,7.967 28.85,0 z"
       id="path10" /><path
       d="m 3014.695,1297.814 58.606,-58.607 c 7.967,-7.967 7.967,-20.883 0,-28.85 l -102.678,-102.678 c -7.967,-7.967 -20.883,-7.967 -28.85,0 l -58.609,58.608 z"
       id="path11" /><path
       d="m 3533.99,2030.494 58.605,-58.607 -131.527,-131.528 -58.606,58.609 c -7.967,7.967 -7.966,20.883 0,28.85 l 102.678,102.678 c 7.967,7.965 20.883,7.965 28.85,0 z"
       id="path12" /><path
       d="m 3820.289,2103.414 58.609,-58.609 c 7.967,-7.967 7.967,-20.883 0,-28.85 l -102.675,-102.676 c -7.967,-7.967 -20.883,-7.967 -28.85,0 l -58.608,58.608 z"
       id="path13" /><path
       d="m 3014.695,1393.982 -58.609,58.609 c -7.967,7.967 -7.967,20.883 0,28.85 l 102.678,102.678 c 7.967,7.967 20.883,7.967 28.85,0 l 58.609,-58.609 z"
       id="path14" /><path
       d="m 4036.757,2780.259 h -622.482 c -22.269,0 -40.322,18.053 -40.322,40.322 v 1206.272 c 0,22.563 18.291,40.854 40.854,40.854 h 263.874 357.543 c 21.668,0 39.397,-17.729 39.397,-39.397 V 2819.124 c 0,-21.465 -17.4,-38.865 -38.864,-38.865 z m -311.973,1172.652 c -60.656,0 -110.002,-49.35 -110.002,-110.005 0,-60.656 49.347,-110.002 110.002,-110.002 60.659,0 110.005,49.347 110.005,110.002 0,60.655 -49.347,110.005 -110.005,110.005 z m 239.789,-507.52 h -478.626 c -18.78,0 -34,-15.224 -34,-34 0,-18.776 15.22,-34 34,-34 h 478.626 c 18.776,0 34,15.224 34,34 0,18.776 -15.223,34 -34,34 z m 0,-160.082 h -478.626 c -18.78,0 -34,-15.223 -34,-34 0,-18.776 15.22,-34 34,-34 h 478.626 c 18.776,0 34,15.224 34,34 0,18.776 -15.223,34 -34,34 z m 34,-199.03 c 0,29.222 -23.777,52.999 -53.002,52.999 h -440.625 c -29.226,0 -52.999,-23.777 -52.999,-52.999 v -186.2 c 0,-29.222 23.773,-52.999 52.999,-52.999 h 440.625 c 29.225,0 53.002,23.777 53.002,52.999 z"
       id="path15" /><rect
       x="3519.947"
       y="2915.0811"
       width="410.62601"
       height="156.19701"
       id="rect15" /><path
       d="m 2066.803,3335.871 c -1.019,-3.289 -2.779,-6.35 -4.874,-8.534 -2.062,-2.149 -4.217,-4.215 -6.322,-6.319 l -64.477,-64.477 c -17.199,-17.199 -34.399,-34.399 -51.598,-51.599 l -61.336,-61.336 c -22.9,-22.9 -45.8,-45.8 -68.701,-68.7 -24.564,-24.562 -49.124,-49.124 -73.688,-73.686 -25.43,-25.432 -50.864,-50.865 -76.294,-76.297 l -76.533,-76.531 c -24.796,-24.796 -49.592,-49.593 -74.388,-74.389 -23.292,-23.29 -46.581,-46.581 -69.873,-69.871 l -62.976,-62.978 c -17.903,-17.903 -35.806,-35.805 -53.709,-53.708 l -42.062,-42.063 c -9.347,-9.347 -18.693,-18.693 -28.04,-28.04 -2.78,-2.778 -5.558,-5.557 -8.336,-8.335 -1.188,-1.188 -2.852,-1.81 -4.521,-1.612 -1.549,0.183 -3.084,0.419 -4.597,0.732 -1.329,0.275 -2.503,1.073 -3.316,2.159 -61.844,82.644 -82.824,196.191 -58.542,320.927 25.533,131.172 98.567,262.381 205.637,369.451 107.07,107.073 238.279,180.104 369.451,205.64 121.912,23.729 233.209,4.322 315.25,-54.425 5.12,-3.666 5.644,-10.195 3.845,-16.009 z"
       id="path16" /><path
       d="m 3724.784,3800.903 c -23.159,0 -42.002,18.843 -42.002,42.002 0,23.162 18.843,42.005 42.002,42.005 23.162,0 42.005,-18.843 42.005,-42.005 0,-23.159 -18.843,-42.002 -42.005,-42.002 z"
       id="path17" /><path
       d="M 2061.314,3912.054 H 957.582 c -18.338,0 -33.203,14.866 -33.203,33.203 v 112.25 c 0,11.267 9.133,20.4 20.4,20.4 h 1129.338 c 11.267,0 20.4,-9.134 20.4,-20.4 v -112.25 c 0,-18.337 -14.866,-33.203 -33.203,-33.203 z"
       id="path18" /><path
       d="m 1878.805,3864.454 c 14.66,0 24.534,-15.001 18.737,-28.467 l -160.564,-372.956 -5.229,-1.062 c -27.246,-5.528 -55.041,-13.095 -82.603,-22.492 l -6.196,-2.112 c -5.983,-2.04 -11.55,3.98 -9.051,9.786 l 174.346,404.969 c 3.222,7.484 10.589,12.333 18.737,12.333 h 51.823 z"
       id="path19" /><path
       d="m 1438.416,3329.912 c -1.136,-3.407 -4.442,-4.978 -4.442,-4.978 -18.803,-13.985 -37.071,-28.737 -54.3,-43.845 v 0 c -5.207,-4.566 -13.353,-2.726 -16.091,3.635 l -237.331,551.263 c -5.797,13.465 4.077,28.467 18.737,28.467 h 51.822 c 8.148,0 15.515,-4.849 18.737,-12.333 l 222.057,-515.963 c -10e-4,0 1.946,-2.839 0.811,-6.246 z"
       id="path20" /><path
       d="m 1864.705,2776.723 c 7.751,-7.752 13.134,-17.834 14.022,-28.76 1.103,-13.566 -3.853,-26.494 -13.618,-35.783 -17.599,-16.74 -45.855,-15.021 -63.031,2.154 l -104.453,104.451 c -17.262,17.262 -17.262,45.249 0,62.511 v 0 c 17.262,17.261 45.247,17.26 62.509,-10e-4 z"
       id="path21" /><path
       d="m 2978.26,2013.702 c -1.478,-1.683 -3.125,-3.356 -4.951,-5.016 -12.067,-10.963 -30.659,-14.757 -45.49,-7.986 -8.268,3.775 -14.888,10.329 -21.32,16.751 -11.958,11.939 -23.916,23.878 -35.873,35.817 -7.957,7.944 -16.107,16.17 -20.446,26.543 -6.55,15.659 -2.761,35.091 9.191,47.142 11.953,12.051 31.353,15.999 47.065,9.578 10.631,-4.345 19.045,-12.677 27.158,-20.806 10.824,-10.844 21.647,-21.688 32.471,-32.532 20.359,-20.397 32.817,-45.995 12.195,-69.491 z"
       id="path22" /><path
       d="m 2872.141,2278.238 c -90.319,0 -163.801,-73.482 -163.801,-163.801 0,-24.371 -19.829,-44.2 -44.2,-44.2 -24.371,0 -44.2,19.829 -44.2,44.2 0,139.065 113.136,252.201 252.201,252.201 24.371,0 44.2,-19.829 44.2,-44.2 0,-24.371 -19.829,-44.2 -44.2,-44.2 z"
       id="path23" /><path
       d="m 2872.141,2617.591 c -275.669,0 -499.943,-224.274 -499.943,-499.943 0,-24.371 -19.829,-44.2 -44.2,-44.2 -24.371,0 -44.2,19.829 -44.2,44.2 0,324.415 263.928,588.343 588.343,588.343 24.371,0 44.2,-19.829 44.2,-44.2 0,-24.371 -19.829,-44.2 -44.2,-44.2 z"
       id="path24" /><path
       d="m 2872.141,2977.2 c -475.728,0 -862.763,-387.035 -862.763,-862.763 0,-24.371 -19.829,-44.2 -44.2,-44.2 -24.371,0 -44.2,19.829 -44.2,44.2 0,524.473 426.69,951.163 951.163,951.163 24.371,0 44.2,-19.829 44.2,-44.2 0,-24.371 -19.829,-44.2 -44.2,-44.2 z"
       id="path25" /></g><text
     x="-924.37903"
     y="4092.9072"
     fill="#000000"
     font-size="5px"
     font-weight="bold"
     font-family="'Helvetica Neue', Helvetica, Arial-Unicode, Arial, Sans-serif"
     id="text25">Created by bsd studio</text><text
     x="-924.37903"
     y="4097.9072"
     fill="#000000"
     font-size="5px"
     font-weight="bold"
     font-family="'Helvetica Neue', Helvetica, Arial-Unicode, Arial, Sans-serif"
     id="text26">from the Noun Project</text></svg>
