<?xml version="1.0" encoding="UTF-8" standalone="no"?>
<svg
   version="1.1"
   viewBox="-5.0 -10.0 110.0 135.0"
   id="svg2"
   sodipodi:docname="noun-solar-panel-6862742.svg"
   inkscape:version="1.3.2 (091e20ef0f, 2023-11-25, custom)"
   xmlns:inkscape="http://www.inkscape.org/namespaces/inkscape"
   xmlns:sodipodi="http://sodipodi.sourceforge.net/DTD/sodipodi-0.dtd"
   xmlns="http://www.w3.org/2000/svg"
   xmlns:svg="http://www.w3.org/2000/svg">
  <defs
     id="defs2" />
  <sodipodi:namedview
     id="namedview2"
     pagecolor="#505050"
     bordercolor="#ffffff"
     borderopacity="1"
     inkscape:showpageshadow="0"
     inkscape:pageopacity="0"
     inkscape:pagecheckerboard="1"
     inkscape:deskcolor="#505050"
     inkscape:zoom="3.7818182"
     inkscape:cx="55"
     inkscape:cy="67.427885"
     inkscape:window-width="769"
     inkscape:window-height="1034"
     inkscape:window-x="0"
     inkscape:window-y="0"
     inkscape:window-maximized="0"
     inkscape:current-layer="svg2" />
  <path
     d="m87.5 26.953h-16.035c0.003906-0.13281 0.019531-0.25781 0.019531-0.39062 0-11.848-9.6367-21.484-21.484-21.484s-21.484 9.6367-21.484 21.484c0 0.13281 0.015625 0.25781 0.019531 0.39062h-16.035c-4.0938 0-7.4219 3.3281-7.4219 7.4219v53.125c0 4.0938 3.3281 7.4219 7.4219 7.4219h75c4.0938 0 7.4219-3.3281 7.4219-7.4219v-53.125c0-4.0938-3.3281-7.4219-7.4219-7.4219zm-37.5-19.531c10.555 0 19.141 8.5859 19.141 19.141s-8.5859 19.141-19.141 19.141-19.141-8.5859-19.141-19.141 8.5859-19.141 19.141-19.141zm4.2969 75.781v-13.281h13.281v13.281zm13.281-44.328v13.078h-13.281v-4.3398c5.4688-1.1133 10.18-4.3203 13.281-8.7383zm15.625 28.703h-13.281v-13.281h13.281zm-15.625 0h-13.281v-13.281h13.281zm2.3438 2.3438h13.281v13.281h-13.281zm13.281-17.969h-13.281v-13.281h13.281zm-66.406 31.25v-13.281h13.281v13.281zm28.906-15.625h-13.281v-13.281h13.281zm-15.625 0h-13.281v-13.281h13.281zm-13.281-15.625v-13.281h13.281v13.281zm15.625 17.969h13.281v13.281h-13.281zm13.281-17.969h-13.281v-13.078c3.1016 4.4141 7.8125 7.6211 13.281 8.7383zm46.875 35.547c0 2.8008-2.2773 5.0781-5.0781 5.0781h-75c-2.8008 0-5.0781-2.2773-5.0781-5.0781v-53.125c0-2.8008 2.2773-5.0781 5.0781-5.0781h16.211c0.32031 2.5039 1.0703 4.8711 2.1797 7.0312h-15.262c-0.64844 0-1.1719 0.52344-1.1719 1.1719v46.875c0 0.64844 0.52344 1.1719 1.1719 1.1719h31.25c0.64844 0 1.1719-0.52344 1.1719-1.1719v-36.426c0.64453 0.058593 1.293 0.097656 1.9531 0.097656s1.3086-0.039063 1.9531-0.097656v36.426c0 0.64844 0.52344 1.1719 1.1719 1.1719h31.25c0.64844 0 1.1719-0.52344 1.1719-1.1719v-46.875c0-0.64844-0.52344-1.1719-1.1719-1.1719h-15.262c1.1094-2.1602 1.8594-4.5273 2.1797-7.0312h16.211c2.8008 0 5.0781 2.2773 5.0781 5.0781v53.125zm-48.949-60.352c-0.21094-0.35938-0.21094-0.80469-0.003906-1.168l7.1445-12.5c0.32422-0.5625 1.0391-0.75391 1.5977-0.4375 0.5625 0.32031 0.75781 1.0391 0.4375 1.5977l-6.1406 10.746h8.6953c0.41797 0 0.80469 0.22266 1.0156 0.58594 0.21094 0.35938 0.21094 0.80469 0.003906 1.168l-7.1445 12.5c-0.21484 0.37891-0.61328 0.58984-1.0195 0.58984-0.19922 0-0.39844-0.050781-0.58203-0.15234-0.5625-0.32031-0.75781-1.0391-0.4375-1.5977l6.1406-10.746h-8.6953c-0.41797 0-0.80469-0.22266-1.0156-0.58594z"
     id="path1" />
</svg>
