<?xml version="1.0" encoding="UTF-8" standalone="no"?>
<svg
   version="1.1"
   x="0px"
   y="0px"
   viewBox="0 0 110.00011 110"
   xml:space="preserve"
   id="svg16"
   sodipodi:docname="noun_global_horizontal_irradiance.svg"
   width="110.00011"
   height="110"
   inkscape:version="1.3.2 (091e20ef0f, 2023-11-25, custom)"
   xmlns:inkscape="http://www.inkscape.org/namespaces/inkscape"
   xmlns:sodipodi="http://sodipodi.sourceforge.net/DTD/sodipodi-0.dtd"
   xmlns="http://www.w3.org/2000/svg"
   xmlns:svg="http://www.w3.org/2000/svg"><defs
     id="defs16" /><sodipodi:namedview
     id="namedview16"
     pagecolor="#505050"
     bordercolor="#ffffff"
     borderopacity="1"
     inkscape:showpageshadow="0"
     inkscape:pageopacity="0"
     inkscape:pagecheckerboard="1"
     inkscape:deskcolor="#505050"
     inkscape:zoom="5.7651221"
     inkscape:cx="6.6780893"
     inkscape:cy="49.435206"
     inkscape:window-width="1920"
     inkscape:window-height="1080"
     inkscape:window-x="0"
     inkscape:window-y="0"
     inkscape:window-maximized="0"
     inkscape:current-layer="svg16" /><g
     id="g1"
     transform="translate(5.8380392,-7.4796293)"><g
       id="g43"
       transform="matrix(0.03722686,0,0,0.03722685,15.067968,44.338264)"><g
         id="g44"
         transform="rotate(-42.152123,804.09961,1158.4502)"><path
           id="path30"
           d="m 527.00175,1443.161 c 4.55568,4.1075 10.68477,6.4684 17.32592,6.1248 l 567.94123,-29.3874 112.4505,-5.8184 198.039,-10.2473 112.6451,-5.8285 422.8346,-21.8787 c 13.2823,-0.6873 23.414,-11.9259 22.7267,-25.2081 l -7.7866,-150.4991 c -0.6873,-13.2823 -11.9262,-23.4168 -25.2083,-22.7295 l -1413.90891,73.1603 c -13.28226,0.6873 -23.41556,11.9246 -22.72826,25.2069 l 7.78823,150.5005 c 0.3435,6.641 3.32486,12.4957 7.88071,16.6033 z m 38.8145,-43.0522 -5.30649,-102.5631 1365.97154,-70.6799 5.308,102.5642 z" /></g></g><path
       d="m 64.521055,67.796951 c -0.160306,0.148386 -0.371747,0.242292 -0.607064,0.2399 -0.494872,-0.0024 -0.893015,-0.404381 -0.887993,-0.896628 l 0.01068,-2.258847 -1.248955,-1.35084 c -0.335209,-0.359618 -0.901119,-0.380758 -1.263356,-0.04819 l -0.02113,0.02092 c -0.34121,0.337925 -0.354319,0.885431 -0.03226,1.242352 l 2.786299,3.00908 c 0.170227,0.18245 0.403977,0.286207 0.651411,0.287402 0.228952,0.0011 0.444836,-0.08896 0.612385,-0.245171 z"
       id="path37"
       style="stroke-width:0.0372268" /><path
       d="m 64.821561,64.884595 -0.899602,0.954321 -0.885301,-0.957522 -0.01068,2.258848 c -0.005,0.492228 0.393138,0.894226 0.887993,0.896628 0.235316,0.0024 0.446782,-0.09149 0.607063,-0.2399 0.01065,-0.0099 0.0227,-0.01784 0.03294,-0.02832 0.156468,-0.159994 0.25544,-0.377457 0.256609,-0.619786 z"
       id="path36"
       style="stroke-width:0.0372268" /><path
       d="m 64.821561,64.884595 -0.01096,2.264246 c -0.0012,0.242329 -0.100117,0.459816 -0.25661,0.619787 0.0028,-0.0028 0.0061,-0.0048 0.0089,-0.0077 l 2.815215,-2.982039 c 0.341306,-0.358989 0.322919,-0.922404 -0.03607,-1.263709 -0.358989,-0.341305 -0.922353,-0.322971 -1.263658,0.03602 z"
       id="path35"
       style="stroke-width:0.0372268" /><path
       d="m 64.83094,54.933926 -1.607918,-0.0041 -0.09193,10.455356 0.796772,0.464495 0.809642,-0.462942 z"
       id="path34"
       style="stroke-width:0.0245976" /><path
       d="m 54.802435,76.842651 c -0.160306,0.148386 -0.371747,0.242292 -0.607064,0.2399 -0.494872,-0.0024 -0.893015,-0.404381 -0.887993,-0.896628 l 0.01068,-2.258847 -1.248955,-1.35084 c -0.335209,-0.359618 -0.901119,-0.380758 -1.263356,-0.04819 l -0.02113,0.02092 c -0.34121,0.337925 -0.354319,0.885431 -0.03226,1.242352 l 2.786299,3.00908 c 0.170227,0.18245 0.403977,0.286207 0.651411,0.287402 0.228952,0.0011 0.444836,-0.08896 0.612385,-0.245171 z"
       id="path37-0"
       style="stroke-width:0.0372268" /><path
       d="m 55.102941,73.930295 -0.899602,0.954321 -0.885301,-0.957522 -0.01068,2.258848 c -0.005,0.492228 0.393138,0.894226 0.887993,0.896628 0.235316,0.0024 0.446782,-0.09149 0.607063,-0.2399 0.01065,-0.0099 0.0227,-0.01784 0.03294,-0.02832 0.156468,-0.159994 0.25544,-0.377457 0.256609,-0.619786 z"
       id="path36-2"
       style="stroke-width:0.0372268" /><path
       d="m 55.102941,73.930295 -0.01096,2.264246 c -0.0012,0.242329 -0.100117,0.459816 -0.25661,0.619787 0.0028,-0.0028 0.0061,-0.0048 0.0089,-0.0077 l 2.815215,-2.982039 c 0.341306,-0.358989 0.322919,-0.922404 -0.03607,-1.263709 -0.358989,-0.341305 -0.922353,-0.322971 -1.263658,0.03602 z"
       id="path35-3"
       style="stroke-width:0.0372268" /><path
       d="m 55.027328,65.879273 -1.447127,-0.0037 -0.08274,9.40982 0.717095,0.418045 0.728678,-0.416647 z"
       id="path34-7"
       style="stroke-width:0.0221378" /><path
       d="m 65.412346,41.778967 -1.78678,-0.0086 -0.0084,1.784724 1.786575,0.0086 z"
       id="path33-5-7"
       style="stroke-width:0.0372268" /><g
       id="g45"
       transform="matrix(0.8903493,0.8903493,-0.8903493,0.8903493,50.343099,-26.99262)"><path
         d="m 36.350206,47.38925 c -0.789724,0 -1.425066,0.635344 -1.425066,1.425068 v 3.129279 c 0,0.789725 0.635342,1.425068 1.425066,1.425068 0.789725,0 1.425068,-0.641281 1.425068,-1.425068 v -3.129279 c 0,-0.789724 -0.635343,-1.425068 -1.425068,-1.425068 z"
         id="path41"
         style="stroke-width:0.0593779" /><path
         d="m 36.350206,47.38925 c 0.789725,0 1.425068,0.635344 1.425068,1.425068 v 3.129279 c 0,0.783787 -0.635343,1.425068 -1.425068,1.425068 -0.789724,0 -1.425066,-0.635343 -1.425066,-1.425068 v -3.129279 c 0,-0.789724 0.635342,-1.425068 1.425066,-1.425068 z"
         id="path40"
         style="stroke-width:0.0593779" /><path
         d="m 47.981646,42.570719 c -0.364431,0 -0.729652,0.139584 -1.008728,0.418659 -0.279074,0.279076 -0.415644,0.641282 -0.415644,1.009423 0,0.368142 0.13657,0.730348 0.415644,1.009422 l 0.950045,0.950045 1.258764,1.258764 c 0.279075,0.279075 0.647218,0.415644 1.009423,0.415644 0.368142,0 0.73037,-0.136569 1.003507,-0.415644 0.279076,-0.279076 0.415646,-0.64128 0.415646,-1.009422 0,-0.368144 -0.13657,-0.730348 -0.415646,-1.009423 L 48.98585,42.989378 c -0.276107,-0.279075 -0.639774,-0.418659 -1.004204,-0.418659 z"
         id="path39"
         style="stroke-width:0.0593779" /><path
         d="m 24.717375,42.570719 c -0.36443,0 -0.729651,0.139584 -1.008726,0.418659 l -2.208808,2.208809 c -0.279075,0.279075 -0.415645,0.641279 -0.415645,1.009423 0,0.368142 0.13657,0.730346 0.415645,1.009422 0.279075,0.279075 0.647218,0.415644 1.009423,0.415644 0.368142,0 0.73037,-0.136569 1.003508,-0.415644 l 2.208807,-2.208809 c 0.279076,-0.279074 0.415646,-0.64128 0.415646,-1.009422 0,-0.368141 -0.13657,-0.730347 -0.415646,-1.009423 -0.276106,-0.279075 -0.639773,-0.418659 -1.004204,-0.418659 z"
         id="path38"
         style="stroke-width:0.0593779" /><path
         d="m 52.797858,30.941599 c -0.789724,0 -1.425068,0.635343 -1.425068,1.425067 0,0.789725 0.635344,1.425068 1.425068,1.425068 h 3.129279 c 0.783788,0 1.425068,-0.635343 1.425068,-1.425068 0,-0.789724 -0.635343,-1.425067 -1.425068,-1.425067 z"
         id="path23"
         style="stroke-width:0.0593779" /><path
         d="m 16.779305,30.941599 c -0.789723,0 -1.425067,0.635343 -1.425067,1.425067 0,0.789725 0.635344,1.425068 1.425067,1.425068 h 3.129164 c 0.783787,0 1.425068,-0.635343 1.425068,-1.425068 0,-0.789724 -0.635343,-1.425067 -1.425068,-1.425067 z"
         id="path22"
         style="stroke-width:0.0593779" /><path
         d="m 36.350206,22.622792 c -5.373685,0 -9.749789,4.370166 -9.749789,9.749789 0,5.373686 4.370166,9.749905 9.749789,9.749905 5.373687,0 9.749905,-4.370281 9.749905,-9.749905 0,-5.379623 -4.370281,-9.749789 -9.749905,-9.749789 z"
         id="path21"
         style="stroke-width:0.0593779" /><path
         d="m 36.350206,19.766742 c -6.947195,0 -12.599924,5.652728 -12.599924,12.599924 0,6.947196 5.652729,12.60004 12.599924,12.60004 6.947196,0 12.60004,-5.652844 12.60004,-12.60004 0,-6.947196 -5.652844,-12.599924 -12.60004,-12.599924 z m 0,2.85605 c 5.379624,0 9.749905,4.370166 9.749905,9.749789 0,5.379624 -4.376218,9.749905 -9.749905,9.749905 -5.379623,0 -9.749789,-4.376219 -9.749789,-9.749905 0,-5.379623 4.376104,-9.749789 9.749789,-9.749789 z"
         id="path20"
         style="stroke-width:0.0593779" /><path
         d="m 50.190453,17.103672 c -0.36443,0 -0.729651,0.139469 -1.008726,0.418543 l -2.208809,2.208924 c -0.279074,0.279076 -0.415644,0.641282 -0.415644,1.009422 0,0.368144 0.13657,0.730348 0.415644,1.009423 0.279076,0.279076 0.647219,0.415645 1.009423,0.415645 0.362205,0 0.730371,-0.142506 1.003509,-0.415645 l 2.208807,-2.208923 c 0.279076,-0.279076 0.415646,-0.647218 0.415646,-1.009423 0,-0.368142 -0.13657,-0.730347 -0.415646,-1.009423 -0.276106,-0.279074 -0.639773,-0.418543 -1.004204,-0.418543 z"
         id="path18"
         style="stroke-width:0.0593779" /><path
         d="m 50.190453,17.103672 c 0.364431,0 0.728098,0.139469 1.004204,0.418543 0.279076,0.279076 0.415646,0.641281 0.415646,1.009423 0,0.362205 -0.13657,0.730347 -0.415646,1.009423 l -2.208807,2.208923 c -0.273138,0.273139 -0.641304,0.415645 -1.003509,0.415645 -0.362204,0 -0.730347,-0.136569 -1.009423,-0.415645 -0.279074,-0.279075 -0.415644,-0.641279 -0.415644,-1.009423 0,-0.36814 0.13657,-0.730346 0.415644,-1.009422 l 2.208809,-2.208924 c 0.279075,-0.279074 0.644296,-0.418543 1.008726,-0.418543 z"
         id="path17"
         style="stroke-width:0.0593779" /><path
         d="m 22.514483,17.103672 c -0.364431,0 -0.729652,0.139469 -1.008728,0.418543 -0.279074,0.279076 -0.415644,0.641281 -0.415644,1.009423 0,0.368142 0.13657,0.730347 0.415644,1.009423 l 2.208924,2.208923 c 0.279076,0.279076 0.647219,0.415645 1.009423,0.415645 0.362204,0 0.730255,-0.142506 1.003392,-0.415645 0.279075,-0.279075 0.415644,-0.641279 0.415644,-1.009423 0,-0.36814 -0.136569,-0.730346 -0.415644,-1.009422 l -2.208807,-2.208924 c -0.276108,-0.279074 -0.639774,-0.418543 -1.004204,-0.418543 z"
         id="path16"
         style="stroke-width:0.0593779" /><path
         d="m 36.350206,11.370698 c -0.789724,0 -1.425066,0.635344 -1.425066,1.425067 v 3.129164 c 0,0.789725 0.635342,1.425068 1.425066,1.425068 0.789725,0 1.425068,-0.641282 1.425068,-1.425068 v -3.129164 c 0,-0.789723 -0.635343,-1.425067 -1.425068,-1.425067 z"
         id="path15"
         style="stroke-width:0.0593779" /></g><g
       id="g50"
       transform="rotate(-13.956332,32.147584,63.971604)"><path
         d="m 29.801046,60.053563 c 0.396551,-0.621214 0.772347,-0.762411 1.340132,-0.976075 0.711831,-0.267844 1.597841,-0.600289 2.369861,-1.8102 0.312136,-0.488087 0.168594,-1.136866 -0.319333,-1.448288 -0.488087,-0.312136 -1.136154,-0.168796 -1.448291,0.319289 -0.396564,0.621224 -0.77236,0.762421 -1.340137,0.976087 -0.711846,0.267846 -1.597851,0.600279 -2.369869,1.810199 -0.772709,1.21011 -0.702196,2.153728 -0.645675,2.911815 0.04527,0.605536 0.07489,1.005288 -0.321472,1.62722 -0.397808,0.622324 -0.773415,0.764233 -1.342626,0.978287 -0.711831,0.267841 -1.597463,0.601711 -2.370187,1.81182 -0.773953,1.211214 -0.703957,2.155739 -0.647238,2.914539 0.04477,0.606437 0.07457,1.006909 -0.323573,1.630858 -0.398319,0.623217 -0.773917,0.765136 -1.343135,0.979185 -0.711642,0.268556 -1.597986,0.602626 -2.371235,1.813635 -0.312131,0.488081 -0.168791,1.136151 0.31926,1.448294 0.258497,0.165582 0.562922,0.203054 0.837995,0.128875 0.243623,-0.0657 0.46447,-0.218766 0.610308,-0.448177 0.39832,-0.623212 0.773926,-0.76513 1.343137,-0.979181 0.711648,-0.268563 1.597996,-0.602611 2.371232,-1.813648 0.773963,-1.211197 0.70396,-2.155718 0.647256,-2.914523 -0.04477,-0.606445 -0.07458,-1.006918 0.323749,-1.630135 0.3978,-0.622324 0.773407,-0.764232 1.341911,-0.978097 0.711636,-0.268549 1.597457,-0.601708 2.37069,-1.812721 0.772737,-1.21012 0.702204,-2.15373 0.645689,-2.911821 -0.04477,-0.606437 -0.07508,-1.006001 0.32148,-1.627221 z"
         id="path6"
         style="stroke-width:0.740001" /><path
         d="m 20.429173,74.705483 c 0.396551,-0.621214 0.772347,-0.762412 1.340132,-0.976076 0.711831,-0.267843 1.597841,-0.600289 2.369861,-1.8102 0.312136,-0.488087 0.168594,-1.136865 -0.319333,-1.448287 -0.488087,-0.312137 -1.136154,-0.168796 -1.448291,0.319289 -0.396564,0.621224 -0.77236,0.762421 -1.340137,0.976086 -0.711846,0.267847 -1.597851,0.600279 -2.369869,1.810199 -0.772709,1.21011 -0.702196,2.153729 -0.645675,2.911815 0.04527,0.605537 0.07489,1.005288 -0.321472,1.627221 -0.397808,0.622323 -0.773415,0.764232 -1.342626,0.978286 -0.711831,0.267841 -1.597463,0.601711 -2.370187,1.811821 -0.773953,1.211214 -0.703957,2.155739 -0.647238,2.914538 0.04477,0.606438 0.07457,1.00691 -0.323573,1.630859 -0.398319,0.623217 -0.773917,0.765135 -1.343135,0.979184 -0.711642,0.268557 -1.597986,0.602626 -2.3712353,1.813635 -0.3121304,0.488082 -0.1687911,1.136152 0.31926,1.448294 0.2584969,0.165582 0.5629223,0.203054 0.8379953,0.128875 0.243623,-0.0657 0.46447,-0.218766 0.610308,-0.448176 0.39832,-0.623212 0.773926,-0.76513 1.343137,-0.979181 0.711648,-0.268563 1.597996,-0.602612 2.371232,-1.813648 0.773963,-1.211197 0.70396,-2.155718 0.647256,-2.914524 -0.04477,-0.606444 -0.07458,-1.006918 0.323749,-1.630135 0.3978,-0.622324 0.773407,-0.764232 1.341911,-0.978097 0.711636,-0.268549 1.597457,-0.601708 2.37069,-1.81272 0.772737,-1.21012 0.702204,-2.153731 0.645689,-2.911821 -0.04477,-0.606437 -0.07508,-1.006002 0.32148,-1.627222 z"
         id="path6-5"
         style="stroke-width:0.740001" /></g><path
       d="m 39.468255,66.907301 c 0.45604,-0.578953 0.843956,-0.682297 1.430089,-0.838765 0.734828,-0.196138 1.649371,-0.439333 2.537255,-1.56697 0.358874,-0.454827 0.280193,-1.11462 -0.174541,-1.472767 -0.454828,-0.358875 -1.113893,-0.280324 -1.472767,0.174502 -0.456053,0.578962 -0.84397,0.682304 -1.430095,0.838775 -0.734842,0.196142 -1.649379,0.439325 -2.537264,1.566968 -0.888589,1.127763 -0.911737,2.073731 -0.930461,2.83369 -0.01483,0.607045 -0.02489,1.007767 -0.480813,1.587454 -0.457399,0.579934 -0.845199,0.684003 -1.432787,0.840718 -0.734829,0.196138 -1.649137,0.440787 -2.537742,1.568551 -0.889936,1.12874 -0.913689,2.075558 -0.932285,2.836247 -0.01542,0.607891 -0.02537,1.009348 -0.483265,1.590866 -0.457996,0.580772 -0.845787,0.684851 -1.433382,0.841561 -0.734713,0.196865 -1.649747,0.441649 -2.538965,1.570252 -0.358867,0.454822 -0.280317,1.113892 0.174471,1.472767 0.240856,0.190333 0.540084,0.257727 0.821145,0.211113 0.248926,-0.04129 0.483827,-0.17176 0.651636,-0.385625 0.457997,-0.580767 0.845797,-0.684846 1.433385,-0.841559 0.73472,-0.196867 1.649756,-0.44163 2.538962,-1.570265 0.889946,-1.128722 0.91369,-2.075536 0.932303,-2.83623 0.01542,-0.607899 0.02536,-1.009358 0.483367,-1.590129 0.457392,-0.579935 0.845191,-0.684004 1.432057,-0.8406 0.734704,-0.196863 1.649131,-0.440785 2.538331,-1.569397 0.888618,-1.127771 0.911745,-2.073731 0.930476,-2.833694 0.01542,-0.607893 0.02477,-1.008495 0.480821,-1.587455 z"
       id="path6-5-9"
       style="stroke-width:0.740001" /><path
       d="m 28.643835,80.672242 c 0.45604,-0.578953 0.843956,-0.682297 1.430089,-0.838765 0.734828,-0.196138 1.649371,-0.439333 2.537255,-1.56697 0.358874,-0.454827 0.280193,-1.11462 -0.174541,-1.472767 -0.454828,-0.358875 -1.113893,-0.280324 -1.472767,0.174502 -0.456053,0.578962 -0.84397,0.682304 -1.430095,0.838775 -0.734842,0.196142 -1.649379,0.439325 -2.537264,1.566968 -0.888589,1.127763 -0.911737,2.073731 -0.930461,2.83369 -0.01483,0.607045 -0.02489,1.007767 -0.480813,1.587454 -0.457399,0.579934 -0.845199,0.684003 -1.432787,0.840718 -0.734829,0.196138 -1.649137,0.440787 -2.537742,1.568551 -0.889936,1.12874 -0.913689,2.075558 -0.932285,2.836247 -0.01542,0.607891 -0.02537,1.009348 -0.483265,1.590866 -0.457996,0.580772 -0.845787,0.684851 -1.433382,0.841561 -0.734713,0.196865 -1.649747,0.441649 -2.538965,1.570252 -0.358867,0.454822 -0.280317,1.113892 0.174471,1.472767 0.240856,0.190333 0.540084,0.257727 0.821145,0.211113 0.248926,-0.04129 0.483827,-0.17176 0.651636,-0.385625 0.457997,-0.580767 0.845797,-0.684846 1.433385,-0.841559 0.73472,-0.196867 1.649756,-0.44163 2.538962,-1.570265 0.889946,-1.128722 0.91369,-2.075536 0.932303,-2.83623 0.01542,-0.607899 0.02536,-1.009358 0.483367,-1.590129 0.457392,-0.579935 0.845191,-0.684004 1.432057,-0.8406 0.734704,-0.196863 1.649131,-0.440785 2.538331,-1.569397 0.888618,-1.127771 0.911745,-2.073731 0.930476,-2.833694 0.01542,-0.607893 0.02477,-1.008495 0.480821,-1.587455 z"
       id="path6-5-9-2"
       style="stroke-width:0.740001" /><g
       id="g49"
       transform="translate(-0.15735556,0.66797057)"><g
         id="g48"
         transform="translate(-25.1396,15.034553)"><path
           d="m 69.282965,70.550731 c -0.160306,0.148386 -0.371747,0.242292 -0.607064,0.2399 -0.494872,-0.0024 -0.893015,-0.404381 -0.887993,-0.896628 l 0.01068,-2.258847 -1.248955,-1.35084 c -0.335209,-0.359618 -0.901119,-0.380758 -1.263356,-0.04819 l -0.02113,0.02092 c -0.34121,0.337925 -0.354319,0.885431 -0.03226,1.242352 l 2.786299,3.00908 c 0.170227,0.18245 0.403977,0.286207 0.651411,0.287402 0.228952,0.0011 0.444836,-0.08896 0.612385,-0.245171 z"
           id="path37-7"
           style="stroke-width:0.0372268" /><path
           d="m 69.583471,67.638375 -0.899602,0.954321 -0.885301,-0.957522 -0.01068,2.258848 c -0.005,0.492228 0.393138,0.894226 0.887993,0.896628 0.235316,0.0024 0.446782,-0.09149 0.607063,-0.2399 0.01065,-0.0099 0.0227,-0.01784 0.03294,-0.02832 0.156468,-0.159994 0.25544,-0.377457 0.256609,-0.619786 z"
           id="path36-9"
           style="stroke-width:0.0372268" /><path
           d="m 69.583471,67.638375 -0.01096,2.264246 c -0.0012,0.242329 -0.100117,0.459816 -0.25661,0.619787 0.0028,-0.0028 0.0061,-0.0048 0.0089,-0.0077 l 2.815215,-2.982039 c 0.341306,-0.358989 0.322919,-0.922404 -0.03607,-1.263709 -0.358989,-0.341305 -0.922353,-0.322971 -1.263658,0.03602 z"
           id="path35-2"
           style="stroke-width:0.0372268" /></g><path
         d="m 44.105311,72.328309 c 0.389567,0.577392 0.874343,1.296743 0.809843,2.610056 -0.06459,1.314268 -0.617087,1.98205 -1.061277,2.519154 -0.354909,0.42915 -0.589497,0.71238 -0.622966,1.38938 -0.03296,0.676565 0.172293,0.981663 0.483876,1.443277 0.389042,0.577814 0.874344,1.296735 0.809232,2.61144 -0.02567,0.529957 -0.476801,0.938345 -1.00622,0.912268 -0.280813,-0.01339 -0.527996,-0.14679 -0.694081,-0.348012 -0.147104,-0.178234 -0.230353,-0.410032 -0.218164,-0.658226 0.03295,-0.676567 -0.172296,-0.981668 -0.483885,-1.443286 -0.389042,-0.577812 -0.874344,-1.296742 -0.809229,-2.611437 0.06416,-1.314795 0.616651,-1.982577 1.060849,-2.519671 0.35544,-0.429577 0.590019,-0.712813 0.6234,-1.388859 0.03286,-0.675614 -0.172392,-0.980713 -0.483541,-1.4418 -0.389569,-0.577391 -0.87487,-1.296313 -0.809842,-2.610054 0.0645,-1.313319 0.617423,-1.980573 1.061524,-2.516723 0.354808,-0.428206 0.589313,-0.710467 0.622079,-1.385132 0.03277,-0.674658 -0.172569,-0.978804 -0.48329,-1.439368 -0.38957,-0.57739 -0.874438,-1.295785 -0.809504,-2.608577 0.02567,-0.529964 0.476803,-0.938346 1.00622,-0.912268 0.529957,0.02567 0.937386,0.47671 0.912245,1.006239 -0.0332,0.674132 0.172568,0.978796 0.48329,1.439368 0.389569,0.577385 0.874007,1.295265 0.810026,2.608144 -0.06398,1.312886 -0.617426,1.980573 -1.061529,2.516718 -0.354848,0.428162 -0.589303,0.710477 -0.622599,1.385564 -0.03286,0.675614 0.172389,0.980714 0.483543,1.441805 z"
         id="path5-3-2"
         style="stroke-width:0.677692" /></g></g></svg>
