<?xml version="1.0" encoding="UTF-8" standalone="no"?>
<svg
   viewBox="0 0 110 110"
   x="0px"
   y="0px"
   version="1.1"
   id="svg2"
   sodipodi:docname="noun-user-6616649.svg"
   inkscape:version="1.3.2 (091e20ef0f, 2023-11-25, custom)"
   width="110"
   height="110"
   xmlns:inkscape="http://www.inkscape.org/namespaces/inkscape"
   xmlns:sodipodi="http://sodipodi.sourceforge.net/DTD/sodipodi-0.dtd"
   xmlns="http://www.w3.org/2000/svg"
   xmlns:svg="http://www.w3.org/2000/svg"
   xmlns:rdf="http://www.w3.org/1999/02/22-rdf-syntax-ns#"
   xmlns:cc="http://creativecommons.org/ns#"
   xmlns:dc="http://purl.org/dc/elements/1.1/">
  <defs
     id="defs2" />
  <sodipodi:namedview
     id="namedview2"
     pagecolor="#505050"
     bordercolor="#ffffff"
     borderopacity="1"
     inkscape:showpageshadow="0"
     inkscape:pageopacity="0"
     inkscape:pagecheckerboard="1"
     inkscape:deskcolor="#505050"
     inkscape:zoom="6.671875"
     inkscape:cx="42.117096"
     inkscape:cy="55.306792"
     inkscape:window-width="797"
     inkscape:window-height="1034"
     inkscape:window-x="0"
     inkscape:window-y="0"
     inkscape:window-maximized="0"
     inkscape:current-layer="svg2" />
  <title
     id="title1">User</title>
  <g
     data-name="Play Radio"
     id="g1"
     transform="matrix(1.7497813,0,0,1.7497813,-13.99825,-8.7489065)">
    <path
       d="M 44,17 A 12,12 0 1 1 32,5 12,12 0 0 1 44,17 Z M 55.93,49.47 A 17,17 0 0 0 39,34 H 25 a 17,17 0 0 0 -17,17 8,8 0 0 0 8,8 h 32 a 8,8 0 0 0 8,-8 c 0,-0.52 0,-1 -0.07,-1.53 z"
       id="path1" />
  </g>
  <metadata
     id="metadata2">
    <rdf:RDF>
      <cc:Work
         rdf:about="">
        <dc:title>User</dc:title>
      </cc:Work>
    </rdf:RDF>
  </metadata>
</svg>
