<?xml version="1.0" encoding="UTF-8" standalone="no"?>
<svg
   viewBox="0 0 110 110"
   version="1.1"
   id="svg1"
   sodipodi:docname="radius-outline.svg"
   width="110"
   height="110"
   inkscape:version="1.4 (e7c3feb100, 2024-10-09)"
   xmlns:inkscape="http://www.inkscape.org/namespaces/inkscape"
   xmlns:sodipodi="http://sodipodi.sourceforge.net/DTD/sodipodi-0.dtd"
   xmlns="http://www.w3.org/2000/svg"
   xmlns:svg="http://www.w3.org/2000/svg">
  <defs
     id="defs1" />
  <sodipodi:namedview
     id="namedview1"
     pagecolor="#505050"
     bordercolor="#ffffff"
     borderopacity="1"
     inkscape:showpageshadow="0"
     inkscape:pageopacity="0"
     inkscape:pagecheckerboard="1"
     inkscape:deskcolor="#505050"
     inkscape:zoom="3.5206439"
     inkscape:cx="29.113992"
     inkscape:cy="74.844264"
     inkscape:window-width="1920"
     inkscape:window-height="2128"
     inkscape:window-x="0"
     inkscape:window-y="0"
     inkscape:window-maximized="0"
     inkscape:current-layer="svg1" />
  <path
     d="M 55.000002,7.7559079 A 47.244094,47.244094 0 0 0 7.755908,55.000002 47.244094,47.244094 0 0 0 55.000002,102.24409 47.244094,47.244094 0 0 0 102.24409,55.000002 47.244094,47.244094 0 0 0 55.000002,7.7559079 m 0,85.0393701 A 37.795276,37.795276 0 0 1 17.204726,55.000002 37.795276,37.795276 0 0 1 55.000002,17.204726 37.795276,37.795276 0 0 1 92.795278,55.000002 37.795276,37.795276 0 0 1 55.000002,92.795278 M 73.89764,69.17323 V 59.724411 H 63.125986 c -1.700787,2.929134 -4.771653,4.72441 -8.125984,4.72441 a 9.4488189,9.4488189 0 0 1 -9.448819,-9.448819 9.4488189,9.4488189 0 0 1 9.448819,-9.448819 c 3.354331,0 6.425197,1.795276 8.125984,4.72441 H 73.89764 v -9.448819 l 14.173228,14.173228 z"
     id="path1"
     style="stroke-width:4.72441" />
</svg>
