<?xml version="1.0" encoding="UTF-8" standalone="no"?>
<svg
   viewBox="0 0 110 110"
   version="1.1"
   id="svg1"
   sodipodi:docname="radius-outline.svg"
   width="110"
   height="110"
   inkscape:version="1.3.2 (091e20ef0f, 2023-11-25, custom)"
   xmlns:inkscape="http://www.inkscape.org/namespaces/inkscape"
   xmlns:sodipodi="http://sodipodi.sourceforge.net/DTD/sodipodi-0.dtd"
   xmlns="http://www.w3.org/2000/svg"
   xmlns:svg="http://www.w3.org/2000/svg">
  <defs
     id="defs1" />
  <sodipodi:namedview
     id="namedview1"
     pagecolor="#505050"
     bordercolor="#ffffff"
     borderopacity="1"
     inkscape:showpageshadow="0"
     inkscape:pageopacity="0"
     inkscape:pagecheckerboard="1"
     inkscape:deskcolor="#505050"
     inkscape:zoom="3.5206439"
     inkscape:cx="29.113993"
     inkscape:cy="74.986283"
     inkscape:window-width="1920"
     inkscape:window-height="1080"
     inkscape:window-x="0"
     inkscape:window-y="0"
     inkscape:window-maximized="1"
     inkscape:current-layer="svg1" />
  <path
     d="M 55,0.3239839 A 47.244094,47.244094 0 0 0 7.755906,47.568078 47.244094,47.244094 0 0 0 55,94.812168 47.244094,47.244094 0 0 0 102.24409,47.568078 47.244094,47.244094 0 0 0 55,0.3239839 M 55,85.363354 A 37.795276,37.795276 0 0 1 17.204724,47.568078 37.795276,37.795276 0 0 1 55,9.772802 37.795276,37.795276 0 0 1 92.795276,47.568078 37.795276,37.795276 0 0 1 55,85.363354 M 73.897638,61.741306 V 52.292487 H 63.125984 C 61.425197,55.221621 58.354331,57.016897 55,57.016897 A 9.4488189,9.4488189 0 0 1 45.551181,47.568078 9.4488189,9.4488189 0 0 1 55,38.119259 c 3.354331,0 6.425197,1.795276 8.125984,4.72441 H 73.897638 V 33.39485 l 14.173228,14.173228 z"
     id="path1"
     style="stroke-width:4.72441" />
</svg>
