<?xml version="1.0" encoding="UTF-8" standalone="no"?>
<svg
   viewBox="0 0 110.00014 110.00014"
   version="1.1"
   id="svg1"
   sodipodi:docname="solar-hour-angle_x.svg"
   width="110"
   height="110"
   inkscape:version="1.4 (e7c3feb100, 2024-10-09)"
   xmlns:inkscape="http://www.inkscape.org/namespaces/inkscape"
   xmlns:sodipodi="http://sodipodi.sourceforge.net/DTD/sodipodi-0.dtd"
   xmlns="http://www.w3.org/2000/svg"
   xmlns:svg="http://www.w3.org/2000/svg">
  <defs
     id="defs1">
    <inkscape:path-effect
       effect="powerclip"
       message=""
       id="path-effect5"
       is_visible="true"
       lpeversion="1"
       inverse="true"
       flatten="false"
       hide_clip="false" />
    <clipPath
       clipPathUnits="userSpaceOnUse"
       id="clipPath5">
      <path
         id="path6"
         style="fill:#ffff00;fill-opacity:0.5;stroke-width:1.88976;stroke-linecap:round;stroke-linejoin:round;stroke-opacity:0.3"
         class="powerclip"
         d="M 1.8102559,1.8102559 H 108.18989 V 108.18989 H 1.8102559 Z M 67.258991,63.547147 V 105.869 H 105.6043 V 63.547147 Z" />
    </clipPath>
    <clipPath
       clipPathUnits="userSpaceOnUse"
       id="clipPath6">
      <path
         id="path7"
         style="fill:#ffff00;fill-opacity:0.5;stroke-width:1.88976;stroke-linecap:round;stroke-linejoin:round;stroke-opacity:0.3"
         class="powerclip"
         d="M 1.8102559,1.8102559 H 108.18989 V 108.18989 H 1.8102559 Z M 67.258991,63.547147 V 105.869 H 105.6043 V 63.547147 Z" />
    </clipPath>
  </defs>
  <sodipodi:namedview
     id="namedview1"
     pagecolor="#505050"
     bordercolor="#ffffff"
     borderopacity="1"
     inkscape:showpageshadow="0"
     inkscape:pageopacity="0"
     inkscape:pagecheckerboard="1"
     inkscape:deskcolor="#505050"
     inkscape:zoom="3.5206439"
     inkscape:cx="64.9029"
     inkscape:cy="74.844264"
     inkscape:window-width="1488"
     inkscape:window-height="2128"
     inkscape:window-x="0"
     inkscape:window-y="0"
     inkscape:window-maximized="0"
     inkscape:current-layer="svg1" />
  <path
     d="m 55.000071,7.1270044 c -26.396593,0 -47.8730666,21.4764736 -47.8730666,47.8730666 0,26.396593 21.4764736,47.873069 47.8730666,47.873069 26.396593,0 47.873069,-21.476476 47.873069,-47.873069 0,-26.396593 -21.476476,-47.8730666 -47.873069,-47.8730666 z m 0,86.1759866 c -21.119188,0 -38.302919,-17.182668 -38.302919,-38.30292 0,-21.120252 17.183731,-38.302919 38.302919,-38.302919 21.119189,0 38.30292,17.183731 38.30292,38.302919 0,21.119189 -17.183731,38.30292 -38.30292,38.30292 z"
     id="path13"
     style="stroke-width:1.06335"
     clip-path="url(#clipPath6)" />
  <path
     d="m 92.143082,79.182334 a 10.3315,10.3315 0 0 1 10.331508,10.3315 10.3315,10.3315 0 0 1 -10.331508,10.3315 10.3315,10.3315 0 0 1 -10.33149,-10.3315 10.3315,10.3315 0 0 1 10.33149,-10.3315 m 0,4.1326 a 6.1989004,6.1989004 0 0 0 -6.198891,6.1989 6.1989004,6.1989004 0 0 0 6.198891,6.1989 6.1989004,6.1989004 0 0 0 6.198899,-6.1989 6.1989004,6.1989004 0 0 0 -6.198899,-6.1989 m 0,-14.4641 4.938453,7.06675 c -1.529053,-0.55789 -3.202756,-0.86785 -4.938453,-0.86785 -1.735697,0 -3.409392,0.30996 -4.938445,0.86785 l 4.938445,-7.06675 m -17.894157,10.3315 8.595809,-0.7232 c -1.239771,1.05382 -2.355583,2.33492 -3.223416,3.82266 -0.909184,1.52906 -1.425755,3.09944 -1.715038,4.73182 l -3.657355,-7.83128 m 0.04127,20.66301 3.636673,-7.78996 c 0.289283,1.59105 0.847189,3.20277 1.715038,4.6905 0.867848,1.52907 1.983645,2.81018 3.202756,3.863986 l -8.554467,-0.764526 m 35.726335,-20.66301 -3.65736,7.83128 c -0.28927,-1.63238 -0.84718,-3.22343 -1.71504,-4.73182 -0.86785,-1.48774 -1.96299,-2.7895 -3.20276,-3.84332 l 8.57516,0.74386 m -0.0207,20.663 -8.5545,0.743876 c 1.21913,-1.053826 2.31427,-2.355586 3.18211,-3.843326 0.86786,-1.50839 1.42576,-3.09945 1.71505,-4.73182 l 3.65734,7.83127 m -17.852841,10.331506 -4.979765,-7.10808 c 1.529053,0.55792 3.202748,0.90918 4.979765,0.90918 1.694378,0 3.368088,-0.35126 4.897142,-0.90918 z"
     id="path1-8"
     style="stroke-width:2.06632" />
  <path
     d="m 57.511734,56.994414 c 0.03828,-0.24457 0.0755,-0.48914 0.0755,-0.74434 v -20.86931 c 0,-2.64242 -2.14265,-4.78507 -4.785074,-4.78507 -2.642424,0 -4.785074,2.14265 -4.785074,4.78507 v 20.86931 c 0,0.40726 -0.05104,5.03921 1.451473,6.38647 l 14.807144,13.2738 c 0.913417,0.81984 2.055455,1.22179 3.192176,1.22179 1.312173,0 2.620094,-0.53699 3.565411,-1.59077 1.764098,-1.96826 1.599278,-4.99243 -0.368982,-6.75653 z"
     id="path14-4"
     style="stroke-width:1.06335" />
</svg>
