<?xml version="1.0" encoding="UTF-8" standalone="no"?>
<svg
   viewBox="0 0 110 110"
   version="1.1"
   id="svg1"
   sodipodi:docname="sun-compass.svg"
   width="110"
   height="110"
   inkscape:version="1.3.2 (091e20ef0f, 2023-11-25, custom)"
   xmlns:inkscape="http://www.inkscape.org/namespaces/inkscape"
   xmlns:sodipodi="http://sodipodi.sourceforge.net/DTD/sodipodi-0.dtd"
   xmlns="http://www.w3.org/2000/svg"
   xmlns:svg="http://www.w3.org/2000/svg">
  <defs
     id="defs1" />
  <sodipodi:namedview
     id="namedview1"
     pagecolor="#505050"
     bordercolor="#ffffff"
     borderopacity="1"
     inkscape:showpageshadow="0"
     inkscape:pageopacity="0"
     inkscape:pagecheckerboard="1"
     inkscape:deskcolor="#505050"
     inkscape:zoom="6.7901674"
     inkscape:cx="70.322272"
     inkscape:cy="49.925132"
     inkscape:window-width="1920"
     inkscape:window-height="1080"
     inkscape:window-x="0"
     inkscape:window-y="0"
     inkscape:window-maximized="1"
     inkscape:current-layer="svg1" />
  <path
     id="path6"
     style="stroke-width:4.94712"
     d="M 54.75302,0 43.374823,16.325133 c 3.462985,-0.989424 7.420499,-1.484325 11.378197,-1.484325 3.957697,0 7.915212,0.494901 11.378197,1.484325 z M 55,23.661173 A 30.758223,30.758223 0 0 0 24.242432,54.418741 30.758223,30.758223 0 0 0 55,85.176309 30.758223,30.758223 0 0 0 85.757568,54.418741 30.758223,30.758223 0 0 0 55,23.661173 Z M 27.543649,25.725045 7.7559055,27.20937 16.165452,45.512789 c 0.989423,-3.462985 2.472434,-7.419559 3.956571,-10.387832 0.494712,-0.494712 0.496406,-0.495653 0.496405,-0.990365 1.978849,-2.968275 4.45166,-5.935986 6.925221,-8.409547 z m 54.418741,0 c 5.441835,5.441835 9.894062,12.368754 11.378198,20.284149 L 101.75013,27.70333 Z M 51.923754,39.039957 h 4.614369 v 15.995012 l 13.840661,8.304396 -2.460019,3.998141 -15.995011,-9.842519 z M 16.659412,63.324693 8.2498652,81.628112 28.534015,83.112437 c -3.462985,-2.473561 -5.442779,-4.947314 -7.421627,-7.915587 0,-0.494712 -0.49396,-0.495654 -0.49396,-0.990364 -0.494711,-0.494713 -0.496405,-0.493208 -0.496405,-0.987921 -0.494713,-0.989424 -0.98792,-1.485266 -0.98792,-2.474691 -0.989425,-2.473561 -1.979979,-4.945621 -2.474691,-7.419181 z m 77.175136,0.493959 c -0.989423,2.473562 -1.978475,4.945621 -3.462611,7.419183 -0.494712,0.989423 -0.989612,1.979977 -1.484325,2.47469 v 0.990365 c -1.978848,3.462985 -4.451661,5.935234 -6.925222,8.903507 l 20.2817,-1.484326 z M 43.374823,92.512349 54.75302,108.83748 66.131217,92.512349 c -2.473562,0.494712 -5.441272,0.989614 -8.409546,1.484325 H 51.78437 c -2.968273,0 -5.935986,-0.989613 -8.409547,-1.484325 z" />
</svg>
