<?xml version="1.0" encoding="UTF-8" standalone="no"?>
<svg
   viewBox="0 0 110 110"
   version="1.1"
   id="svg1"
   sodipodi:docname="sun-wireless-outline.svg"
   width="110"
   height="110"
   inkscape:version="1.3.2 (091e20ef0f, 2023-11-25, custom)"
   xmlns:inkscape="http://www.inkscape.org/namespaces/inkscape"
   xmlns:sodipodi="http://sodipodi.sourceforge.net/DTD/sodipodi-0.dtd"
   xmlns="http://www.w3.org/2000/svg"
   xmlns:svg="http://www.w3.org/2000/svg">
  <defs
     id="defs1" />
  <sodipodi:namedview
     id="namedview1"
     pagecolor="#505050"
     bordercolor="#ffffff"
     borderopacity="1"
     inkscape:showpageshadow="0"
     inkscape:pageopacity="0"
     inkscape:pagecheckerboard="1"
     inkscape:deskcolor="#505050"
     inkscape:zoom="17.333333"
     inkscape:cx="11.971154"
     inkscape:cy="12"
     inkscape:window-width="1920"
     inkscape:window-height="1080"
     inkscape:window-x="0"
     inkscape:window-y="0"
     inkscape:window-maximized="0"
     inkscape:current-layer="svg1" />
  <path
     d="m 48.401288,11.535433 9.443665,13.513529 c -2.923979,-1.066857 -6.124552,-1.659556 -9.443665,-1.659556 -3.319112,0 -6.519685,0.592699 -9.443665,1.659556 L 48.401288,11.535433 M 14.18282,31.292054 30.620329,29.909091 c -2.370794,2.015175 -4.504509,4.464996 -6.164066,7.30995 -1.738582,2.92398 -2.726413,5.926986 -3.279599,9.048532 L 14.18282,31.292054 m 0.07903,39.513243 6.954331,-14.896492 c 0.553185,3.042519 1.620042,6.124552 3.279599,8.969506 1.659556,2.92398 3.793271,5.373801 6.124552,7.388976 L 14.26185,70.805297 M 82.580243,31.292054 75.586399,46.267573 C 75.033214,43.146027 73.966356,40.103507 72.3068,37.219041 70.647244,34.374087 68.553042,31.884753 66.182248,29.869578 l 16.397995,1.422476 m 13.236937,27.65927 h -7.902649 c 0,8.100215 -3.082033,16.20043 -9.246099,22.364496 -6.203579,6.203579 -14.26428,9.246098 -22.364495,9.246098 v 7.902649 c 10.11539,0 20.23078,-3.951324 27.935863,-11.57738 7.705082,-7.626056 11.57738,-17.820473 11.57738,-27.935863 m -15.805297,0 h -7.902649 c 0,3.951325 -1.541016,8.100215 -4.623049,11.182248 -3.082033,3.082033 -7.230924,4.623049 -11.182248,4.623049 v 7.902649 c 6.085039,0 12.170079,-2.331281 16.793128,-6.954331 4.583536,-4.583536 6.914818,-10.668575 6.914818,-16.753615 M 48.401288,39.194703 c 6.519686,0 11.853973,5.334288 11.853973,11.853973 0,6.519685 -5.334287,11.853973 -11.853973,11.853973 -6.519685,0 -11.853972,-5.334288 -11.853972,-11.853973 0,-6.519685 5.334287,-11.853973 11.853972,-11.853973 m 0,-7.902649 c -10.905655,0 -19.756621,8.850967 -19.756621,19.756622 0,10.905655 8.850966,19.756621 19.756621,19.756621 10.905655,0 19.756622,-8.850966 19.756622,-19.756621 0,-10.905655 -8.850967,-19.756622 -19.756622,-19.756622 z"
     id="path1"
     style="stroke-width:3.95132" />
</svg>
