<?xml version="1.0" encoding="UTF-8" standalone="no"?>
<svg
   viewBox="0 0 110 110"
   version="1.1"
   id="svg1"
   sodipodi:docname="sun-compass.svg"
   width="110"
   height="110"
   inkscape:version="1.3.2 (091e20ef0f, 2023-11-25, custom)"
   xmlns:inkscape="http://www.inkscape.org/namespaces/inkscape"
   xmlns:sodipodi="http://sodipodi.sourceforge.net/DTD/sodipodi-0.dtd"
   xmlns="http://www.w3.org/2000/svg"
   xmlns:svg="http://www.w3.org/2000/svg">
  <defs
     id="defs1" />
  <sodipodi:namedview
     id="namedview1"
     pagecolor="#505050"
     bordercolor="#ffffff"
     borderopacity="1"
     inkscape:showpageshadow="0"
     inkscape:pageopacity="0"
     inkscape:pagecheckerboard="1"
     inkscape:deskcolor="#505050"
     inkscape:zoom="6.7901674"
     inkscape:cx="70.322272"
     inkscape:cy="49.925132"
     inkscape:window-width="1920"
     inkscape:window-height="1080"
     inkscape:window-x="0"
     inkscape:window-y="0"
     inkscape:window-maximized="1"
     inkscape:current-layer="svg1" />
  <path
     d="m 45.714388,24.574803 9.088046,-13.03937 9.088046,13.03937 c -2.765927,-0.790265 -5.926987,-1.185397 -9.088046,-1.185397 -3.16106,0 -6.322119,0.395132 -9.088046,1.185397 m 30.820329,7.507516 c 4.346457,4.346457 7.902649,9.878311 9.088046,16.20043 l 6.717251,-14.6199 -15.805297,-1.58053 m -49.391553,7.507516 c 0.395132,-0.395132 0.395132,-0.395132 0,0 0.395132,-0.395132 0.395132,-0.395132 0.395132,-0.790264 1.58053,-2.370795 3.556192,-4.74159 5.531854,-6.717252 l -15.805297,1.185398 6.717252,14.619899 c 0.790264,-2.765927 1.975662,-5.926986 3.161059,-8.297781 m 56.108805,28.844668 c 0,0 0,0.395132 0,0 -0.395133,0.790264 -0.790265,1.580529 -1.185398,1.975662 v 0.790264 c -1.580529,2.765927 -3.556192,4.74159 -5.531854,7.112384 l 16.20043,-1.185397 -6.717252,-14.6199 c -0.790264,1.975662 -1.580529,3.951324 -2.765926,5.926987 m -55.31854,3.161059 c 0,-0.395133 -0.395133,-0.395133 -0.395133,-0.790265 -0.395132,-0.395132 -0.395132,-0.395132 -0.395132,-0.790265 -0.395133,-0.790265 -0.790265,-1.185397 -0.790265,-1.975662 -0.790265,-1.975662 -1.58053,-3.951324 -1.975662,-5.926986 l -6.717251,14.619899 16.200429,1.185398 c -2.765927,-1.975662 -4.346457,-3.951325 -5.926986,-6.322119 m 29.239799,15.015032 h -4.741589 c -2.370794,0 -4.741589,-0.790265 -6.717251,-1.185397 l 9.088046,13.03937 9.088046,-13.03937 c -1.975663,0.395132 -4.346457,0.790265 -6.717252,1.185397 M 71.397996,38.404438 c -9.088046,-9.088046 -24.103078,-9.088046 -33.586257,0 -9.483178,9.088046 -9.088045,24.103078 0,33.586256 9.088046,9.483179 24.103078,9.088046 33.586257,0 9.483178,-9.088045 9.483178,-24.49821 0,-33.586256 M 40.972799,68.829635 49.27058,49.468146 69.027201,40.775233 60.72942,60.136722 40.972799,68.829635 M 57.568361,57.765927 c -1.58053,1.58053 -3.951324,1.58053 -5.531854,0 -1.58053,-1.58053 -1.58053,-3.951324 0,-5.531854 1.58053,-1.58053 3.951324,-1.58053 5.531854,0 1.580529,1.58053 1.580529,3.951324 0,5.531854 z"
     id="path1"
     style="stroke-width:3.95132" />
</svg>
