<?xml version="1.0" encoding="UTF-8" standalone="no"?>
<svg
   viewBox="0 0 110 110"
   version="1.1"
   id="svg1"
   sodipodi:docname="sun-clock.svg"
   inkscape:version="1.3.2 (091e20ef0f, 2023-11-25, custom)"
   width="110"
   height="110"
   xmlns:inkscape="http://www.inkscape.org/namespaces/inkscape"
   xmlns:sodipodi="http://sodipodi.sourceforge.net/DTD/sodipodi-0.dtd"
   xmlns="http://www.w3.org/2000/svg"
   xmlns:svg="http://www.w3.org/2000/svg">
  <defs
     id="defs1" />
  <sodipodi:namedview
     id="namedview1"
     pagecolor="#505050"
     bordercolor="#ffffff"
     borderopacity="1"
     inkscape:showpageshadow="0"
     inkscape:pageopacity="0"
     inkscape:pagecheckerboard="1"
     inkscape:deskcolor="#505050"
     inkscape:zoom="2.7167194"
     inkscape:cx="-66.808519"
     inkscape:cy="43.43474"
     inkscape:window-width="1920"
     inkscape:window-height="1080"
     inkscape:window-x="0"
     inkscape:window-y="0"
     inkscape:window-maximized="1"
     inkscape:current-layer="svg1" />
  <path
     d="m 79.877325,37.88657 6.84697,-15.063335 -18.715052,-1.825859 c 2.738788,2.282324 5.021112,5.021112 6.846971,8.672829 1.369394,2.738788 2.282323,5.021112 3.195252,7.7599 -2.282323,-0.456465 -5.021111,-0.91293 -7.759899,-0.91293 h -1.825859 c -3.651717,-8.216364 -11.411617,-13.69394 -20.997375,-13.69394 -12.781012,0 -22.823234,10.042223 -22.823234,22.823234 0,9.585758 5.477576,17.345658 13.69394,20.997376 v 1.825858 c 0,17.802123 14.150405,31.952527 31.952528,31.952527 17.802122,0 31.952523,-14.150404 31.952523,-31.952527 0,-14.150405 -9.585754,-26.474951 -22.366765,-30.583133 m -9.585758,53.406367 c -12.781011,0 -22.823234,-10.042223 -22.823234,-22.823234 0,-12.781011 10.042223,-22.823234 22.823234,-22.823234 12.781011,0 22.823234,10.042223 22.823234,22.823234 0,12.781011 -10.042223,22.823234 -22.823234,22.823234 M 72.57389,69.382633 85.811366,77.142532 82.159649,82.620108 65.72692,73.03435 V 50.211116 h 6.84697 V 69.382633 M 47.468333,13.693942 c -3.651718,0 -7.303435,0.912929 -10.955153,1.825858 L 47.468333,0 58.423485,15.5198 C 54.771768,14.606871 51.12005,13.693942 47.468333,13.693942 M 19.623987,61.622733 c 1.825859,3.195253 4.564647,6.390506 7.303435,8.672829 L 8.21237,68.469703 16.428734,51.124045 c 0.456465,3.651718 1.369394,7.303435 3.195253,10.498688 M 15.97227,40.168893 7.755906,22.823235 26.927422,21.453841 c -2.738788,2.282323 -5.021111,5.021112 -7.303435,8.216364 -1.825859,3.195253 -3.195253,6.84697 -3.651717,10.498688 z"
     id="path1"
     style="stroke-width:4.56465" />
</svg>
