<?xml version="1.0" encoding="UTF-8" standalone="no"?>
<svg
   fill-opacity="1"
   color-rendering="auto"
   color-interpolation="auto"
   text-rendering="auto"
   stroke="#000000"
   stroke-linecap="square"
   stroke-miterlimit="10"
   shape-rendering="auto"
   stroke-opacity="1"
   fill="#000000"
   stroke-dasharray="none"
   font-weight="normal"
   stroke-width="1"
   font-family="Dialog"
   font-style="normal"
   stroke-linejoin="miter"
   font-size="12px"
   stroke-dashoffset="0"
   image-rendering="auto"
   version="1.1"
   id="svg2"
   sodipodi:docname="thermometer.svg"
   width="89.015701"
   height="228.375"
   inkscape:version="1.3.2 (091e20ef0f, 2023-11-25, custom)"
   xmlns:inkscape="http://www.inkscape.org/namespaces/inkscape"
   xmlns:sodipodi="http://sodipodi.sourceforge.net/DTD/sodipodi-0.dtd"
   xmlns="http://www.w3.org/2000/svg"
   xmlns:svg="http://www.w3.org/2000/svg">
  <sodipodi:namedview
     id="namedview2"
     pagecolor="#505050"
     bordercolor="#ffffff"
     borderopacity="1"
     inkscape:showpageshadow="0"
     inkscape:pageopacity="0"
     inkscape:pagecheckerboard="1"
     inkscape:deskcolor="#505050"
     inkscape:zoom="1.3866667"
     inkscape:cx="50.480769"
     inkscape:cy="-87.980769"
     inkscape:window-width="802"
     inkscape:window-height="1034"
     inkscape:window-x="0"
     inkscape:window-y="0"
     inkscape:window-maximized="0"
     inkscape:current-layer="svg2" />
  <!--Unicode Character 'THERMOMETER' (U+1F321)-->
  <defs
     id="genericDefs" />
  <g
     id="g2"
     transform="matrix(0.59049,0,0,0.59049,-40.398145,-49.562754)">
    <g
       id="g1">
      <path
         d="m 188.2969,349.7344 q 0,17.8594 -13.2969,29.8125 -13.2812,11.9531 -31.2812,11.9531 -18,0 -31.2188,-11.9531 -13.2188,-11.9531 -13.2188,-29.8125 0,-19.8282 16.4532,-32.3438 V 190.8281 q 0,-11.6719 8.2968,-19.6875 8.2969,-8.0156 19.9688,-8.0156 11.6719,0 19.75,8.0938 8.0938,8.0781 8.0938,19.75 v 126.4218 q 16.4531,12.5156 16.4531,32.3438 z M 166.5,348.3281 q 0,-10.125 -8.4375,-16.5937 V 190.2656 q 0,-5.9062 -4.1563,-10.125 -4.1406,-4.2187 -10.0468,-4.2187 -5.9063,0 -10.2032,4.1562 -4.2812,4.1407 -4.2812,10.0469 v 141.6094 q -8.4375,6.3281 -8.4375,16.5937 0,9.1407 6.75,15.1875 6.75,6.0469 16.0313,6.0469 9.2812,0 16.0312,-6.0469 6.75,-6.0468 6.75,-15.1875 z m -6.1875,0 q 0,6.75 -4.9219,11.1875 -4.9218,4.4219 -11.6718,4.4219 -6.75,0 -11.6719,-4.4219 -4.9219,-4.4375 -4.9219,-11.1875 0,-7.0312 6.6094,-11.9531 v -82.4062 h 20.1094 v 82.4062 q 6.4687,4.9219 6.4687,11.9531 z"
         stroke="none"
         id="path1" />
    </g>
  </g>
</svg>
