<?xml version="1.0" encoding="UTF-8" standalone="no"?>
<svg
   viewBox="0 0 110 110"
   version="1.1"
   id="svg1"
   sodipodi:docname="update.svg"
   width="110"
   height="110"
   inkscape:version="1.3.2 (091e20ef0f, 2023-11-25, custom)"
   xmlns:inkscape="http://www.inkscape.org/namespaces/inkscape"
   xmlns:sodipodi="http://sodipodi.sourceforge.net/DTD/sodipodi-0.dtd"
   xmlns="http://www.w3.org/2000/svg"
   xmlns:svg="http://www.w3.org/2000/svg">
  <defs
     id="defs1" />
  <sodipodi:namedview
     id="namedview1"
     pagecolor="#505050"
     bordercolor="#ffffff"
     borderopacity="1"
     inkscape:showpageshadow="0"
     inkscape:pageopacity="0"
     inkscape:pagecheckerboard="1"
     inkscape:deskcolor="#505050"
     inkscape:zoom="2.2791909"
     inkscape:cx="-48.043365"
     inkscape:cy="48.701493"
     inkscape:window-width="1920"
     inkscape:window-height="1080"
     inkscape:window-x="0"
     inkscape:window-y="0"
     inkscape:window-maximized="1"
     inkscape:current-layer="svg1" />
  <path
     d="M 102.24409,37.375328 H 66.651138 L 81.035312,22.572178 C 66.703635,8.39895 43.499967,7.874015 29.16829,22.047244 c -14.331678,14.225721 -14.331678,37.165354 0,51.443569 14.331677,14.173229 37.535345,14.173229 51.867022,0 7.13959,-7.086614 10.709385,-15.328084 10.709385,-25.721785 h 10.499393 c 0,10.393701 -4.61973,23.884515 -13.8592,33.018373 -18.426442,18.267717 -48.349725,18.267717 -66.776166,0 C 3.2347777,62.572178 3.0772867,32.965879 21.50373,14.750656 c 18.426442,-18.215223 47.982245,-18.215223 66.408687,0 L 102.24409,0 V 37.375328 M 57.621656,26.246719 V 48.55643 L 75.995602,59.475065 72.215819,65.826771 49.747108,52.493438 V 26.246719 Z"
     id="path1"
     style="stroke-width:5.24952" />
</svg>
