<?xml version="1.0" encoding="UTF-8" standalone="no"?>
<svg
   viewBox="0 0 110 110"
   version="1.1"
   id="svg1"
   sodipodi:docname="weather-partly-cloudy.svg"
   width="110"
   height="110"
   inkscape:version="1.3.2 (091e20ef0f, 2023-11-25, custom)"
   xmlns:inkscape="http://www.inkscape.org/namespaces/inkscape"
   xmlns:sodipodi="http://sodipodi.sourceforge.net/DTD/sodipodi-0.dtd"
   xmlns="http://www.w3.org/2000/svg"
   xmlns:svg="http://www.w3.org/2000/svg">
  <defs
     id="defs1" />
  <sodipodi:namedview
     id="namedview1"
     pagecolor="#505050"
     bordercolor="#ffffff"
     borderopacity="1"
     inkscape:showpageshadow="0"
     inkscape:pageopacity="0"
     inkscape:pagecheckerboard="1"
     inkscape:deskcolor="#505050"
     inkscape:zoom="2.2017901"
     inkscape:cx="11.581485"
     inkscape:cy="-17.71286"
     inkscape:window-width="1920"
     inkscape:window-height="1080"
     inkscape:window-x="0"
     inkscape:window-y="0"
     inkscape:window-maximized="0"
     inkscape:current-layer="svg1" />
  <g
     id="g1"
     transform="translate(29.408049,43.09)">
    <path
       d="m 18.962993,-10.483962 c 8.206483,3.5816429 12.553137,12.3792709 11.057888,20.829166 4.416201,3.825056 7.232833,9.493093 7.232833,15.787048 v 0.591146 c 1.07797,-0.382506 2.26026,-0.591146 3.477323,-0.591146 a 10.43197,10.43197 0 0 1 10.43197,10.43197 10.43197,10.43197 0 0 1 -10.43197,10.43197 H -4.4741663 A 13.909293,13.909293 0 0 1 -18.383459,33.086899 13.909293,13.909293 0 0 1 -4.4741663,19.177606 h 0.938878 C -7.9514897,13.787754 -9.3424182,6.1028701 -6.212828,-0.78223011 -1.9704932,-10.379643 9.3308076,-14.76107 18.962993,-10.483962 m -2.816632,6.3635015 C 9.991499,-6.9023191 2.7934398,-4.0856872 0.08112754,2.0344018 -1.5184411,5.5812716 -1.2402553,9.5106469 0.42885987,12.675011 4.2191423,8.1544908 9.991499,5.2683125 16.389774,5.2683125 c 2.434126,0 4.798706,0.4172788 6.954647,1.1822899 -0.20864,-4.4509738 -2.851406,-8.6237619 -7.19806,-10.5710629 m 5.633264,-12.7270035 c -1.912528,-0.834558 -3.825055,-1.425702 -5.80713,-1.808208 l 8.658535,-4.52052 3.129591,10.049464 c -1.773435,-1.460476 -3.755509,-2.712312 -5.980996,-3.720736 m -25.940832,2.781859 c -1.7038886,1.217063 -3.199137,2.607992 -4.4857473,4.1380146 l 0.3825061,-9.7712786 10.2928768,2.36458 c -2.15594039,0.730237 -4.2423343,1.842981 -6.1896356,3.268684 M 37.253714,4.2598887 C 36.940755,2.2082679 36.488703,0.22619367 35.828011,-1.6863342 l 8.27603,5.215985 -7.128513,7.7544312 C 37.358034,9.0238216 37.42758,6.6592418 37.253714,4.2598887 m -52.020757,5.5289441 c 0.243413,2.0863942 0.695465,4.0684682 1.356156,5.9114502 l -8.241256,-5.215985 7.09374,-7.7196583 c -0.347733,2.2602601 -0.452052,4.62484 -0.20864,7.0241931 M 40.731037,33.086899 H 30.299067 V 26.132252 A 13.909293,13.909293 0 0 0 16.389774,12.222959 13.909293,13.909293 0 0 0 2.4804807,26.132252 h -6.954647 a 6.9546466,6.9546466 0 0 0 -6.9546457,6.954647 6.9546466,6.9546466 0 0 0 6.9546457,6.954646 H 40.731037 a 3.4773233,3.4773233 0 0 0 3.477324,-3.477323 3.4773233,3.4773233 0 0 0 -3.477324,-3.477323 z"
       id="path1"
       style="stroke-width:3.47732" />
    <g
       id="g3"
       transform="matrix(0.20533314,0,0,0.20533314,34.172452,-52.15566)">
      <g
         id="g2">
        <path
           d="m 188.2969,349.7344 q 0,17.8594 -13.2969,29.8125 -13.2812,11.9531 -31.2812,11.9531 -18,0 -31.2188,-11.9531 -13.2188,-11.9531 -13.2188,-29.8125 0,-19.8282 16.4532,-32.3438 V 190.8281 q 0,-11.6719 8.2968,-19.6875 8.2969,-8.0156 19.9688,-8.0156 11.6719,0 19.75,8.0938 8.0938,8.0781 8.0938,19.75 v 126.4218 q 16.4531,12.5156 16.4531,32.3438 z M 166.5,348.3281 q 0,-10.125 -8.4375,-16.5937 V 190.2656 q 0,-5.9062 -4.1563,-10.125 -4.1406,-4.2187 -10.0468,-4.2187 -5.9063,0 -10.2032,4.1562 -4.2812,4.1407 -4.2812,10.0469 v 141.6094 q -8.4375,6.3281 -8.4375,16.5937 0,9.1407 6.75,15.1875 6.75,6.0469 16.0313,6.0469 9.2812,0 16.0312,-6.0469 6.75,-6.0468 6.75,-15.1875 z m -6.1875,0 q 0,6.75 -4.9219,11.1875 -4.9218,4.4219 -11.6718,4.4219 -6.75,0 -11.6719,-4.4219 -4.9219,-4.4375 -4.9219,-11.1875 0,-7.0312 6.6094,-11.9531 v -82.4062 h 20.1094 v 82.4062 q 6.4687,4.9219 6.4687,11.9531 z"
           stroke="none"
           id="path1-5" />
      </g>
    </g>
  </g>
</svg>
