<?xml version="1.0" encoding="UTF-8" standalone="no"?>
<svg
   role="img"
   viewBox="0 0 199.99998 199.99999"
   version="1.1"
   id="svg1"
   sodipodi:docname="data_array.svg"
   width="200"
   height="200"
   inkscape:version="1.4 (e7c3feb100, 2024-10-09)"
   xmlns:inkscape="http://www.inkscape.org/namespaces/inkscape"
   xmlns:sodipodi="http://sodipodi.sourceforge.net/DTD/sodipodi-0.dtd"
   xmlns="http://www.w3.org/2000/svg"
   xmlns:svg="http://www.w3.org/2000/svg"
   xmlns:rdf="http://www.w3.org/1999/02/22-rdf-syntax-ns#"
   xmlns:cc="http://creativecommons.org/ns#"
   xmlns:dc="http://purl.org/dc/elements/1.1/">
  <defs
     id="defs1" />
  <sodipodi:namedview
     id="namedview1"
     pagecolor="#505050"
     bordercolor="#ffffff"
     borderopacity="1"
     inkscape:showpageshadow="0"
     inkscape:pageopacity="0"
     inkscape:pagecheckerboard="1"
     inkscape:deskcolor="#505050"
     inkscape:zoom="2.8102308"
     inkscape:cx="103.19437"
     inkscape:cy="107.82033"
     inkscape:window-width="1920"
     inkscape:window-height="2114"
     inkscape:window-x="0"
     inkscape:window-y="0"
     inkscape:window-maximized="0"
     inkscape:current-layer="svg1"
     showguides="true"
     inkscape:document-units="mm">
    <sodipodi:guide
       position="8.4117915,20.20392"
       orientation="0,-1"
       id="guide9"
       inkscape:locked="false" />
    <sodipodi:guide
       position="9.0775004,20.809109"
       orientation="1,0"
       id="guide10"
       inkscape:locked="false" />
  </sodipodi:namedview>
  <title
     id="title1">NumPy</title>
  <path
     id="path8"
     style="stroke-width:7.4079"
     d="M 100.12492,11.090215 71.634382,25.30869 101.30384,40.277382 128.93697,25.540896 Z M 57.77316,32.221438 25.174272,48.494083 55.683254,63.820029 87.478338,47.225855 Z m 84.93572,0.232253 -27.82963,14.665026 31.20562,15.754645 28.61558,-14.379233 z M 101.10734,54.085053 69.383718,70.697088 99.928424,86.040895 132.2415,69.803962 Z m 82.04202,4.572775 -29.81236,14.825796 0.0181,38.993626 29.7945,-15.147325 z M 16.850387,58.693958 V 97.366112 L 46.644875,112.51343 46.662945,73.5198 Z M 141.20844,79.503655 106.41248,96.812332 v 38.922218 l 34.84953,-17.30871 z m -82.434994,0.03613 -0.03613,38.922175 34.84955,17.30871 V 96.84844 Z m 124.375914,31.598595 -29.79449,15.02229 0.035,39.2794 29.75877,-14.84368 z m -166.298973,0.0181 v 39.47586 l 29.758764,14.84368 0.01807,-39.27939 z m 124.411623,20.98851 -34.84953,17.43368 v 39.31514 l 34.88528,-17.41585 z m -82.542151,0.0338 -0.03613,39.33298 34.903137,17.398 v -39.29728 z" />
  <metadata
     id="metadata1">
    <rdf:RDF>
      <cc:Work
         rdf:about="">
        <dc:title>NumPy</dc:title>
      </cc:Work>
    </rdf:RDF>
  </metadata>
</svg>
