<?xml version="1.0" encoding="UTF-8" standalone="no"?>
<svg
   role="img"
   viewBox="0 0 22.455299 24"
   version="1.1"
   id="svg1"
   sodipodi:docname="numpy.svg"
   width="22.455299"
   height="24"
   inkscape:version="1.3.2 (091e20ef0f, 2023-11-25, custom)"
   xmlns:inkscape="http://www.inkscape.org/namespaces/inkscape"
   xmlns:sodipodi="http://sodipodi.sourceforge.net/DTD/sodipodi-0.dtd"
   xmlns="http://www.w3.org/2000/svg"
   xmlns:svg="http://www.w3.org/2000/svg"
   xmlns:rdf="http://www.w3.org/1999/02/22-rdf-syntax-ns#"
   xmlns:cc="http://creativecommons.org/ns#"
   xmlns:dc="http://purl.org/dc/elements/1.1/">
  <defs
     id="defs1" />
  <sodipodi:namedview
     id="namedview1"
     pagecolor="#505050"
     bordercolor="#ffffff"
     borderopacity="1"
     inkscape:showpageshadow="0"
     inkscape:pageopacity="0"
     inkscape:pagecheckerboard="1"
     inkscape:deskcolor="#505050"
     inkscape:zoom="17.333333"
     inkscape:cx="11.221154"
     inkscape:cy="12"
     inkscape:window-width="1920"
     inkscape:window-height="1080"
     inkscape:window-x="0"
     inkscape:window-y="0"
     inkscape:window-maximized="0"
     inkscape:current-layer="svg1" />
  <title
     id="title1">NumPy</title>
  <path
     d="m 9.8622735,6.22956 -3.248262,-1.639683 -3.56481,1.779165 3.336066,1.675323 z M 11.351135,6.980997 14.75678,8.70006 11.223398,10.474446 7.8821475,8.796288 Z M 15.899527,4.614744 19.39816,6.369042 16.26913,7.940604 12.856519,6.219192 Z M 14.393738,3.859095 11.244134,2.28 8.1282255,3.834633 11.373734,5.471481 Z M 11.931257,17.421978 V 21.72 l 3.815667,-1.904067 -0.0043,-4.299885 z m 3.809996,-3.406617 -0.0042,-4.254768 -3.805785,1.891836 v 4.256226 z m 4.580793,-0.797445 v 4.31487 l -3.254417,1.624212 -0.0023,-4.295268 z m 0,-1.508706 V 7.481334 l -3.260493,1.62081 0.0028,4.263273 z m -9.7379,-0.0567 -2.5700495,-1.292274 v 5.58495 c 0,0 -3.143124,-6.687684 -3.434319,-7.28838 C 4.5422745,8.579289 4.3877265,8.494239 4.3482795,8.473584 3.7846815,8.177772 2.1332535,7.341285 2.1332535,7.341285 V 17.2083 l 2.284524,1.221156 v -5.157594 c 0,0 3.109752,5.975775 3.14118,6.04098 0.031509,0.06537 0.343845,0.695142 0.677322,0.916434 0.444285,0.29403 2.3483525,1.439046 2.3483525,1.439046 z"
     id="path1"
     style="stroke-width:0.81" />
  <metadata
     id="metadata1">
    <rdf:RDF>
      <cc:Work
         rdf:about="">
        <dc:title>NumPy</dc:title>
      </cc:Work>
    </rdf:RDF>
  </metadata>
</svg>
