<?xml version="1.0" encoding="UTF-8" standalone="no"?>
<svg
   role="img"
   viewBox="0 0 24 24"
   version="1.1"
   id="svg1"
   sodipodi:docname="pastebin.svg"
   inkscape:version="1.3.2 (091e20ef0f, 2023-11-25, custom)"
   xmlns:inkscape="http://www.inkscape.org/namespaces/inkscape"
   xmlns:sodipodi="http://sodipodi.sourceforge.net/DTD/sodipodi-0.dtd"
   xmlns="http://www.w3.org/2000/svg"
   xmlns:svg="http://www.w3.org/2000/svg"
   xmlns:rdf="http://www.w3.org/1999/02/22-rdf-syntax-ns#"
   xmlns:cc="http://creativecommons.org/ns#"
   xmlns:dc="http://purl.org/dc/elements/1.1/">
  <defs
     id="defs1" />
  <sodipodi:namedview
     id="namedview1"
     pagecolor="#505050"
     bordercolor="#ffffff"
     borderopacity="1"
     inkscape:showpageshadow="0"
     inkscape:pageopacity="0"
     inkscape:pagecheckerboard="1"
     inkscape:deskcolor="#505050"
     inkscape:zoom="17.333333"
     inkscape:cx="12"
     inkscape:cy="12"
     inkscape:window-width="769"
     inkscape:window-height="1034"
     inkscape:window-x="0"
     inkscape:window-y="0"
     inkscape:window-maximized="0"
     inkscape:current-layer="svg1" />
  <title
     id="title1">Pastebin</title>
  <path
     d="m 16.066126,2.2799306 a 1.69776,1.69776 0 0 0 -0.58482,0.09963 l -11.0759403,3.9528 a 1.701,1.701 0 0 0 -1.03194,2.17647 l 4.31244,12.0811494 a 1.70181,1.70181 0 0 0 2.17485,1.03032 l 6.2742603,-2.23965 c 0.64152,-0.24867 1.08945,-0.43254 1.18584,-0.49248 0.43983,-0.25434 0.77922,-0.66177 1.59084,-1.89054 0.73224,-1.10322 1.50579,-2.69163 1.69857,-3.4668 0.1944,-0.7857 0.19359,-1.1988 -0.40662,-2.97594 l -2.54826,-7.1441994 a 1.70262,1.70262 0 0 0 -1.58922,-1.13076 z m -0.06723,0.33534 c 0.5832,-0.02511 1.134,0.32643 1.34217,0.9072 l 2.9808,8.3891694 c 0.08343,0.35073 -0.22761,0.92907 -0.59616,1.0935 -0.162,0.081 -0.5751,0.23733 -0.92502,0.34749 -1.13157,0.37503 -1.6605,0.71118 -1.99098,1.25307 -0.29403,0.47871 -0.25515,0.9558 0.1296,1.92537 0.37422,0.92502 0.43173,1.50984 0.18225,1.944 -0.09153,0.15228 -0.24381,0.26082 -1.09674,0.59373 l -0.0016,-0.004 -6.2742603,2.23965 a 1.3608,1.3608 0 0 1 -1.74717,-0.82782 L 3.6893257,8.3954306 a 1.3608,1.3608 0 0 1 0.82782,-1.74717 l 11.0767503,-3.9528 c 0.13365,-0.0486 0.27054,-0.07452 0.405,-0.08019 z m -0.83997,1.48716 -0.97443,0.71685 0.15147,0.42039 0.42363,-0.25596 0.65043,1.81035 -0.56376,0.20169 c 0.03645,0.11745 0.17496,0.52002 0.19278,0.53784 l 1.75446,-0.6318 -0.19278,-0.53622 -0.55647,0.20088 z m -2.6649,0.95742 -0.97443,0.71685 0.15066,0.42039 0.42444,-0.25596 0.65043,1.81035 -0.56457,0.2025 c 0.03726,0.11664 0.17496,0.5184 0.19278,0.53703 l 1.75527,-0.63018 -0.19278,-0.53703 -0.55647,0.20007 z m -2.8552503,1.09674 c -0.22923,0 -0.4536,0.06156 -0.648,0.18063 -0.59292,0.36288 -0.6885,1.12023 -0.26892,2.07198 0.27297,0.62856 0.70713,0.98658 1.18422,0.98415 1.0894503,-0.00567 1.5066003,-1.134 0.8788503,-2.3895 -0.24867,-0.5346 -0.67797,-0.83916 -1.1461503,-0.84726 z m -0.15471,0.54432 c 0.13608,-0.0081 0.28917,0.06885 0.43659,0.22599 0.1174503,0.12555 0.2810703,0.4131 0.3539703,0.63747 0.2835,0.80838 0.13284,1.36728 -0.3353403,1.25226 -0.48681,-0.1134 -1.00926,-1.6767 -0.67716,-2.01285 a 0.32967,0.32967 0 0 1 0.22113,-0.10287 z m -3.04965,0.6075 c -0.22923,0 -0.4536,0.06156 -0.648,0.18063 -0.59292,0.36288 -0.6885,1.11942 -0.26892,2.07117 0.27297,0.6293704 0.70713,0.9865794 1.18422,0.9841494 1.08864,-0.0057 1.5066,-1.1323794 0.87885,-2.3894994 -0.24867,-0.5346 -0.67878,-0.83916 -1.14615,-0.84645 z m -0.15552,0.54432 c 0.13608,-0.0081 0.28998,0.06885 0.4374,0.22518 0.11745,0.12555 0.28107,0.4131 0.35397,0.63747 0.2835,0.80919 0.13284,1.3680904 -0.33615,1.25307 -0.486,-0.11421 -1.00683,-1.67832 -0.67554,-2.01285 a 0.32967,0.32967 0 0 1 0.22032,-0.10287 z m 10.8232203,0.53055 c -0.22923,0 -0.4536,0.06156 -0.648,0.18063 -0.59292,0.36288 -0.6885,1.11942 -0.26892,2.0719794 0.27297,0.62856 0.70713,0.98658 1.18422,0.98415 1.08945,-0.0057 1.5066,-1.134 0.87885,-2.3894994 -0.24867,-0.5346 -0.67797,-0.83916 -1.14615,-0.84726 z m -0.15471,0.54432 c 0.13608,-0.0081 0.28917,0.06885 0.43659,0.22518 0.11745,0.12555 0.28107,0.4131 0.35397,0.63747 0.2835,0.8091894 0.13284,1.3680894 -0.33534,1.2530694 -0.48681,-0.11421 -1.00764,-1.6783194 -0.67635,-2.0128494 a 0.32967,0.32967 0 0 1 0.22113,-0.10287 z m -3.05046,0.6075 a 1.24092,1.24092 0 0 0 -0.648,0.17982 c -0.5913,0.3628804 -0.68688,1.1202294 -0.26811,2.0719794 0.27297,0.62856 0.70713,0.98658 1.18422,0.98415 1.08864,-0.0057 1.5066,-1.13238 0.87885,-2.3895 -0.24867,-0.5345994 -0.67878,-0.8391594 -1.14696,-0.8464494 z m -0.1539,0.5427004 c 0.13527,-0.0065 0.28917,0.06966 0.43659,0.226799 0.11745,0.12555 0.28107,0.4131 0.35397,0.63747 0.2835,0.80838 0.13284,1.36728 -0.33615,1.25307 -0.486,-0.11502 -1.00764,-1.67832 -0.67635,-2.012849 a 0.33048,0.33048 0 0 1 0.22113,-0.10368 z m -3.03426,0.602639 c -0.22923,-8.1e-4 -0.4536,0.06156 -0.648,0.18063 -0.5929203,0.36288 -0.6885003,1.11942 -0.2689203,2.07117 0.2729703,0.62937 0.7071303,0.98658 1.1842203,0.98415 1.08945,-0.0057 1.5066,-1.13238 0.87885,-2.3895 -0.24867,-0.5346 -0.67878,-0.83916 -1.14615,-0.84645 z m -0.15552,0.54432 c 0.13689,-0.0081 0.28998,0.06885 0.4374,0.22518 0.11745,0.12555 0.28107,0.4131 0.35397,0.63747 0.2835,0.80919 0.13284,1.36809 -0.33534,1.25307 -0.48681,-0.11421 -1.00764,-1.67832 -0.67635,-2.01285 a 0.32967,0.32967 0 0 1 0.22032,-0.10287 z m -2.8471503,0.49896 -0.97443,0.71604 0.15147,0.4212 0.42444,-0.25596 0.64962,1.80873 -0.56376,0.2025 c 0.03645,0.11745 0.17496,0.51921 0.19278,0.53703 l 1.75446,-0.63018 -0.19278,-0.53703 -0.55647,0.20007 z m 12.6878403,1.0773 c 0.02754,0 0.03969,0.03807 0.05184,0.10935 0.01863,0.0891 -0.05184,0.44145 -0.15795,0.77517 -0.3807,1.16235 -1.66212,3.42063 -2.4948,4.37076 l -0.32967,0.3807 0.0405,-0.54027 c 0.0243,-0.45927 -0.01215,-0.65772 -0.30456,-1.3851 -0.40176,-1.02303 -0.43173,-1.4013 -0.12798,-1.8711 0.2754,-0.41634 0.83268,-0.73467 1.98288,-1.1097 0.5832,-0.19278 0.95175,-0.37503 1.12185,-0.53784 0.10692,-0.11745 0.16767,-0.1782 0.20493,-0.19035 a 0.03888,0.03888 0 0 1 0.01215,-0.0024 z m -5.2083,1.19556 -0.97362,0.71685 0.15147,0.4212 0.42363,-0.25677 0.65043,1.81035 -0.56376,0.2025 c 0.03645,0.11664 0.17496,0.51921 0.19278,0.53703 l 1.75446,-0.63099 -0.19278,-0.53622 -0.55647,0.20007 -0.88533,-2.46402 z m -2.89818,1.0773 c -0.22923,0 -0.4536,0.06237 -0.648,0.18063 -0.59211,0.36288 -0.6885,1.11942 -0.26892,2.07198 0.27297,0.62856 0.70713,0.98658 1.18422,0.98415 1.08945,-0.0057 1.5066,-1.13319 0.87966,-2.3895 -0.24867,-0.5346 -0.67878,-0.83916 -1.14696,-0.84726 z m -0.15471,0.54432 c 0.13608,-0.0073 0.28998,0.06885 0.4374,0.2268 0.11664,0.12393 0.28026,0.4131 0.35397,0.63666 0.2835,0.80838 0.13284,1.36728 -0.33615,1.25226 -0.486,-0.1134 -1.00764,-1.67832 -0.67635,-2.01285 a 0.32967,0.32967 0 0 1 0.22113,-0.10287 z m -2.8471503,0.49896 -0.97524,0.71685 0.15147,0.4212 0.42444,-0.25677 0.65043,1.80954 -0.56457,0.2025 c 0.03645,0.11745 0.17496,0.52002 0.19278,0.53784 l 1.7544603,-0.63099 -0.19278,-0.53703 -0.55647,0.20088 z"
     id="path1"
     style="stroke-width:0.81" />
  <metadata
     id="metadata1">
    <rdf:RDF>
      <cc:Work
         rdf:about="">
        <dc:title>Pastebin</dc:title>
      </cc:Work>
    </rdf:RDF>
  </metadata>
</svg>
