<?xml version="1.0" encoding="UTF-8" standalone="no"?>
<svg
   role="img"
   viewBox="0 0 200 200"
   version="1.1"
   id="svg1"
   sodipodi:docname="pastebin.svg"
   inkscape:version="1.4 (e7c3feb100, 2024-10-09)"
   width="200"
   height="200"
   xmlns:inkscape="http://www.inkscape.org/namespaces/inkscape"
   xmlns:sodipodi="http://sodipodi.sourceforge.net/DTD/sodipodi-0.dtd"
   xmlns="http://www.w3.org/2000/svg"
   xmlns:svg="http://www.w3.org/2000/svg"
   xmlns:rdf="http://www.w3.org/1999/02/22-rdf-syntax-ns#"
   xmlns:cc="http://creativecommons.org/ns#"
   xmlns:dc="http://purl.org/dc/elements/1.1/">
  <defs
     id="defs1" />
  <sodipodi:namedview
     id="namedview1"
     pagecolor="#505050"
     bordercolor="#ffffff"
     borderopacity="1"
     inkscape:showpageshadow="0"
     inkscape:pageopacity="0"
     inkscape:pagecheckerboard="1"
     inkscape:deskcolor="#505050"
     inkscape:zoom="5.645"
     inkscape:cx="100"
     inkscape:cy="99.911426"
     inkscape:window-width="1920"
     inkscape:window-height="2114"
     inkscape:window-x="0"
     inkscape:window-y="0"
     inkscape:window-maximized="0"
     inkscape:current-layer="svg1"
     inkscape:document-units="mm" />
  <title
     id="title1">Pastebin</title>
  <path
     d="m 137.02637,11.500367 a 15.458404,15.458404 0 0 0 -5.32489,0.907149 L 30.853066,48.398456 A 15.487905,15.487905 0 0 0 21.45707,68.215599 L 60.722596,178.21663 a 15.49528,15.49528 0 0 0 19.802392,9.38125 l 57.128272,-20.39241 c 5.84115,-2.26418 9.91963,-3.93835 10.79728,-4.48412 4.00473,-2.31581 7.09494,-6.02553 14.48488,-17.2137 6.66717,-10.04501 13.71048,-24.50776 15.46578,-31.56582 1.77004,-7.15394 1.76267,-10.91529 -3.70235,-27.096494 l -23.20236,-65.0492 A 15.502655,15.502655 0 0 0 137.02637,11.500367 Z m -0.61187,3.05333 c 5.31014,-0.228631 10.32527,2.972203 12.22069,8.260216 l 27.14071,76.38487 c 0.75937,3.193497 -2.07243,8.459387 -5.42814,9.956547 -1.47504,0.73752 -5.23639,2.16093 -8.42247,3.16396 -10.30314,3.41471 -15.11914,6.47542 -18.12822,11.40942 -2.6772,4.35874 -2.32319,8.70273 1.18003,17.53083 3.40734,8.42247 3.93097,13.74736 1.65942,17.70047 -0.83313,1.38653 -2.21994,2.37481 -9.98602,5.40601 l -0.0182,-0.0364 -57.128265,20.39241 A 12.390324,12.390324 0 0 1 63.595734,177.18456 L 24.333395,67.183072 A 12.390324,12.390324 0 0 1 31.870842,51.274781 L 132.72663,15.283841 c 1.21691,-0.442511 2.46331,-0.678518 3.6876,-0.730144 z m -7.64808,13.540854 -8.87235,6.527045 1.37916,3.827725 3.85722,-2.330561 5.92228,16.483556 -5.13313,1.836423 c 0.33234,1.069403 1.59304,4.734874 1.7553,4.897128 l 15.97466,-5.75265 -1.75529,-4.882378 -5.06676,1.829048 z m -24.26438,8.717478 -8.872384,6.527045 1.371786,3.827725 3.864628,-2.330561 5.92228,16.483556 -5.14051,1.843798 c 0.33962,1.062028 1.59304,4.720123 1.7553,4.889753 l 15.98204,-5.7379 -1.7553,-4.889753 -5.06675,1.821673 z m -25.997581,9.98601 c -2.08718,0 -4.130108,0.560515 -5.900155,1.644668 -5.398641,3.304087 -6.268913,10.199892 -2.448564,18.865743 2.48544,5.72315 6.438544,8.982985 10.782532,8.960859 9.919634,-0.0519 13.717858,-10.325269 8.002084,-21.756818 -2.264184,-4.867627 -6.173036,-7.6407 -10.435897,-7.714452 z m -1.408662,4.95613 c 1.239032,-0.07375 2.632944,0.626891 3.975229,2.057679 1.069403,1.143154 2.559191,3.761348 3.222959,5.804276 2.581317,7.360443 1.209531,12.449325 -3.05333,11.402048 -4.432491,-1.032527 -9.18949,-15.266649 -6.165661,-18.327354 a 3.0017034,3.0017034 0 0 1 2.013428,-0.936649 z m -27.767601,5.531394 c -2.087179,0 -4.130108,0.560515 -5.900154,1.644668 -5.398641,3.304087 -6.268914,10.192517 -2.448564,18.858368 2.48544,5.730534 6.438543,8.982985 10.782532,8.960859 9.912259,-0.0519 13.717858,-10.310519 8.002084,-21.756818 -2.264184,-4.867627 -6.180411,-7.6407 -10.435898,-7.707077 z m -1.416037,4.95613 c 1.239033,-0.07375 2.640319,0.626891 3.982604,2.050303 1.069403,1.143155 2.559192,3.761349 3.22296,5.804277 2.581317,7.367817 1.209531,12.45671 -3.060705,11.409423 -4.425116,-1.039902 -9.167365,-15.281399 -6.150911,-18.327354 a 3.0017034,3.0017034 0 0 1 2.006052,-0.936649 z m 98.547351,4.830751 c -2.08718,0 -4.13011,0.560515 -5.90015,1.644668 -5.39864,3.304086 -6.26892,10.192516 -2.44857,18.865743 2.48544,5.723149 6.43855,8.982984 10.78253,8.960859 9.91964,-0.0519 13.71786,-10.32527 8.00209,-21.756818 -2.26419,-4.867628 -6.17304,-7.6407 -10.4359,-7.714452 z m -1.40866,4.956129 c 1.23903,-0.07375 2.63294,0.626892 3.97523,2.050304 1.0694,1.143155 2.55919,3.761348 3.22296,5.804277 2.58131,7.367817 1.20953,12.4567 -3.05333,11.409423 -4.43249,-1.039902 -9.17474,-15.281399 -6.15829,-18.327354 a 3.0017034,3.0017034 0 0 1 2.01343,-0.93665 z m -27.77498,5.531395 a 11.298795,11.298795 0 0 0 -5.90015,1.637293 c -5.38389,3.304095 -6.25416,10.199891 -2.44119,18.865743 2.48544,5.723186 6.43854,8.983016 10.78253,8.960896 9.91226,-0.0546 13.71786,-10.310557 8.00209,-21.756856 -2.26419,-4.867627 -6.18041,-7.640699 -10.44328,-7.707076 z m -1.40128,4.941388 c 1.23165,-0.05918 2.63294,0.634267 3.97523,2.065045 1.0694,1.143155 2.55919,3.761348 3.22296,5.804277 2.58131,7.360442 1.20953,12.449362 -3.06071,11.409462 -4.42512,-1.04728 -9.17474,-15.281439 -6.15829,-18.327384 a 3.0090786,3.0090786 0 0 1 2.01343,-0.944025 z M 88.247088,87.98849 c -2.087179,-0.0074 -4.130108,0.560515 -5.900154,1.644668 -5.398641,3.304087 -6.268914,10.192517 -2.448564,18.858402 2.48544,5.73053 6.438543,8.98299 10.782532,8.96086 9.919658,-0.0546 13.717888,-10.31052 8.002084,-21.756853 -2.264184,-4.867627 -6.180412,-7.6407 -10.435898,-7.707077 z m -1.416037,4.95613 c 1.246408,-0.07375 2.640319,0.626891 3.982604,2.050303 1.069403,1.143155 2.559192,3.761349 3.222959,5.804317 2.581318,7.36781 1.209532,12.4567 -3.053329,11.40942 -4.432491,-1.0399 -9.17474,-15.281436 -6.158286,-18.327391 a 3.0017034,3.0017034 0 0 1 2.006052,-0.936649 z m -25.923802,4.543119 -8.872357,6.519711 1.379161,3.8351 3.864601,-2.33057 5.914905,16.46881 -5.133135,1.8438 c 0.331884,1.0694 1.593042,4.7275 1.755296,4.88975 l 15.974668,-5.7379 -1.755296,-4.88975 -5.066758,1.82167 z m 115.525041,9.809041 c 0.2504,0 0.36148,0.34691 0.47165,0.99565 0.16936,0.81127 -0.47165,4.01948 -1.43816,7.05806 -3.46634,10.5834 -15.1339,31.14544 -22.71559,39.79654 l -3.00171,3.46634 0.36876,-4.91925 c 0.22126,-4.18174 -0.11108,-5.98866 -2.77307,-12.61158 -3.6581,-9.31487 -3.93098,-12.75908 -1.16528,-17.0367 2.50757,-3.79085 7.5817,-6.6893 18.05447,-10.10401 5.31014,-1.7553 8.66585,-3.41471 10.21464,-4.89713 0.97353,-1.0694 1.52667,-1.62254 1.86593,-1.73317 a 0.35400925,0.35400925 0 0 1 0.11108,-0.0182 z m -47.42248,10.88579 -8.86499,6.52704 1.37916,3.8351 3.85723,-2.33793 5.92228,16.48355 -5.13313,1.8438 c 0.33233,1.06203 1.59304,4.7275 1.75529,4.88975 l 15.97467,-5.74527 -1.7553,-4.88238 -5.06675,1.82167 -8.06109,-22.43533 z m -26.38844,9.809 c -2.08718,0 -4.130139,0.56816 -5.900186,1.64467 -5.391265,3.30409 -6.268913,10.19252 -2.448564,18.86574 2.48544,5.72315 6.43857,8.98299 10.78256,8.96086 9.91963,-0.0546 13.71786,-10.31789 8.00946,-21.75682 -2.26419,-4.86762 -6.18041,-7.6407 -10.44327,-7.71445 z m -1.40867,4.95613 c 1.23904,-0.0637 2.64032,0.62644 3.98261,2.06506 1.06203,1.1284 2.55181,3.76134 3.22296,5.7969 2.58131,7.36044 1.20953,12.44932 -3.06071,11.40204 -4.42511,-1.03252 -9.174765,-15.28139 -6.158311,-18.32735 a 3.0017034,3.0017034 0 0 1 2.013451,-0.93665 z m -25.923825,4.54312 -8.879732,6.52705 1.379161,3.8351 3.864601,-2.33794 5.922279,16.47618 -5.140509,1.8438 c 0.331884,1.0694 1.593042,4.73487 1.755296,4.89713 l 15.974667,-5.74528 -1.755296,-4.88975 -5.066757,1.82905 z"
     id="path1"
     style="stroke-width:7.37519" />
  <metadata
     id="metadata1">
    <rdf:RDF>
      <cc:Work
         rdf:about="">
        <dc:title>Pastebin</dc:title>
      </cc:Work>
    </rdf:RDF>
  </metadata>
</svg>
