<?xml version="1.0" encoding="UTF-8" standalone="no"?>
<svg
   role="img"
   viewBox="0 0 24 24"
   version="1.1"
   id="svg1"
   sodipodi:docname="pydantic.svg"
   inkscape:version="1.3.2 (091e20ef0f, 2023-11-25, custom)"
   xmlns:inkscape="http://www.inkscape.org/namespaces/inkscape"
   xmlns:sodipodi="http://sodipodi.sourceforge.net/DTD/sodipodi-0.dtd"
   xmlns="http://www.w3.org/2000/svg"
   xmlns:svg="http://www.w3.org/2000/svg"
   xmlns:rdf="http://www.w3.org/1999/02/22-rdf-syntax-ns#"
   xmlns:cc="http://creativecommons.org/ns#"
   xmlns:dc="http://purl.org/dc/elements/1.1/">
  <defs
     id="defs1" />
  <sodipodi:namedview
     id="namedview1"
     pagecolor="#505050"
     bordercolor="#ffffff"
     borderopacity="1"
     inkscape:showpageshadow="0"
     inkscape:pageopacity="0"
     inkscape:pagecheckerboard="1"
     inkscape:deskcolor="#505050"
     inkscape:zoom="17.333333"
     inkscape:cx="12"
     inkscape:cy="12"
     inkscape:window-width="789"
     inkscape:window-height="1034"
     inkscape:window-x="0"
     inkscape:window-y="0"
     inkscape:window-maximized="0"
     inkscape:current-layer="svg1" />
  <title
     id="title1">Pydantic</title>
  <path
     d="m 22.643464,16.784329 -3.807,-5.2794 -6.1623,-8.5463998 c -0.3132,-0.432 -1.0359,-0.432 -1.3473,0 l -6.1605003,8.5445998 -3.8097,5.2812 a 0.8325,0.8325 0 0 0 0.414,1.2753 l 9.9702003,3.2634 h 0.0018 a 0.828,0.828 0 0 0 0.5148,0 h 0.0018 l 9.9693,-3.2634 c 0.252,-0.0828 0.45,-0.279 0.531,-0.5328 a 0.8244,0.8244 0 0 0 -0.117,-0.7425 h 0.0018 z m -10.6425,-11.9213998 3.996,5.5421998 -3.7368,-1.2239998 c -0.0288,-0.009 -0.0594,-0.0072 -0.0882,-0.0144 a 0.72,0.72 0 0 0 -0.0864,-0.0144 c -0.0288,-0.0036 -0.0558,-0.0144 -0.0846,-0.0144 -0.0288,0 -0.0558,0.0108 -0.0846,0.0144 a 0.666,0.666 0 0 0 -0.0864,0.0144 c -0.0288,0.0054 -0.0594,0.0054 -0.0864,0.0144 l -3.7125003,1.2176998 -0.0234,0.0072 3.9960003,-5.5421998 h -0.0018 z m -5.6457003,7.8299998 4.3506003,-1.4247 0.4644,-0.1512 v 8.271 l -7.8012003,-2.5533 2.9853,-4.14 z m 6.4773003,6.6933 v -8.2683 l 4.815,1.5768 2.9844,4.1382 -7.7994,2.5542 z"
     id="path1"
     style="stroke-width:0.9" />
  <metadata
     id="metadata1">
    <rdf:RDF>
      <cc:Work
         rdf:about="">
        <dc:title>Pydantic</dc:title>
      </cc:Work>
    </rdf:RDF>
  </metadata>
</svg>
