<?xml version="1.0" encoding="UTF-8" standalone="no"?>
<svg
   role="img"
   viewBox="0 0 110 110"
   version="1.1"
   id="svg1"
   sodipodi:docname="scipy.svg"
   width="110"
   height="110"
   inkscape:version="1.3.2 (091e20ef0f, 2023-11-25, custom)"
   xmlns:inkscape="http://www.inkscape.org/namespaces/inkscape"
   xmlns:sodipodi="http://sodipodi.sourceforge.net/DTD/sodipodi-0.dtd"
   xmlns="http://www.w3.org/2000/svg"
   xmlns:svg="http://www.w3.org/2000/svg"
   xmlns:rdf="http://www.w3.org/1999/02/22-rdf-syntax-ns#"
   xmlns:cc="http://creativecommons.org/ns#"
   xmlns:dc="http://purl.org/dc/elements/1.1/">
  <defs
     id="defs1" />
  <sodipodi:namedview
     id="namedview1"
     pagecolor="#505050"
     bordercolor="#ffffff"
     borderopacity="1"
     inkscape:showpageshadow="0"
     inkscape:pageopacity="0"
     inkscape:pagecheckerboard="1"
     inkscape:deskcolor="#505050"
     inkscape:zoom="3.8834798"
     inkscape:cx="0.12875051"
     inkscape:cy="51.500203"
     inkscape:window-width="1920"
     inkscape:window-height="1080"
     inkscape:window-x="0"
     inkscape:window-y="0"
     inkscape:window-maximized="0"
     inkscape:current-layer="svg1" />
  <title
     id="title1">SciPy</title>
  <path
     d="M 69.555122,60.88963 C 66.468509,56.669158 61.751974,54.909316 55.011818,53.488056 L 48.744103,52.011678 44.015757,49.98412 C 41.531505,48.228214 39.409458,43.55105 40.011821,39.429003 a 11.811022,11.811022 0 0 1 13.330706,-9.94488 11.661415,11.661415 0 0 1 7.724408,4.547243 l 7.122046,9.35433 c 4.066928,5.236219 8.641731,6.799211 13.618108,4.322833 l 2.507874,-1.062992 a 0.86614159,0.86614159 0 0 1 1.094488,0.34252 l 0.5,0.748031 a 1.2244092,1.2244092 0 0 0 0.614173,0.515748 1.2834644,1.2834644 0 0 0 1.299212,-0.228346 l 5.77559,-5.448818 c 1.011811,-0.866142 0.716535,-1.661417 0.716535,-1.661417 L 92.92126,37.740027 c 0,0 -0.381889,-0.759842 -1.69685,-0.586614 l -7.74803,0.712598 a 1.2874014,1.2874014 0 0 0 -1.062992,1.61811 l 0.279528,0.893701 c 0.05512,0.185039 0.05512,0.393701 -0.01969,0.582677 a 0.86220458,0.86220458 0 0 1 -0.488189,0.492126 l -2.188976,0.925197 c -2.291334,1.342519 -4.897632,0.484252 -6.63779,-1.641732 L 71.370083,38.098295 65.708666,30.578611 A 17.405509,17.405509 0 0 0 54.177172,23.806959 c -9.590549,-1.354331 -18.488185,5.2874 -19.881886,14.814958 -0.704724,4.803149 0.73622,9.350392 3.366141,12.999998 1.909449,2.653543 5.405511,4.173227 7.299212,4.645668 l 4.968503,1.417323 4.755904,1.090551 c 0.653543,0.15748 2.496063,0.610236 3.582677,1.003937 1.007874,0.362204 3.326771,1.220472 5.212597,2.759842 2.251968,2.291338 3.444882,5.562991 2.937008,8.992124 a 10.803148,10.803148 0 0 1 -19.279524,4.940944 l -6.795275,-9.02362 A 9.0314946,9.0314946 0 0 0 34.3819,63.944747 9.0944867,9.0944867 0 0 0 27.657491,65.673093 L 13.358282,76.342383 A 43.314954,43.314954 0 0 1 7.7559209,54.999867 c 0,-24.417319 20.2086571,-44.220465 45.1377871,-44.220465 18.562989,0 34.49212,10.976376 41.429127,26.653539 l 2.287401,-1.062992 1.547244,-4.220472 1.61811,0.566929 -1.389764,3.779527 3.858264,1.326771 -0.58267,1.582677 -4.311026,-1.503937 -2.374016,1.090551 c 1.968504,4.968504 3.062992,10.362204 3.062992,16.007872 0,24.421256 -20.216532,44.220465 -45.145662,44.220465 A 45.377945,45.377945 0 0 1 16.437022,81.070729 L 31.086625,70.094353 a 3.3661412,3.3661412 0 0 1 4.57874,0.748031 l 7.188975,9.665353 a 16.480312,16.480312 0 0 0 10.52362,5.913385 c 9.06299,1.267716 17.476375,-5.011811 18.791335,-14.027557 A 16.29921,16.29921 0 0 0 69.555122,60.88963"
     id="path1"
     style="stroke-width:3.93701" />
  <metadata
     id="metadata1">
    <rdf:RDF>
      <cc:Work
         rdf:about="">
        <dc:title>SciPy</dc:title>
      </cc:Work>
    </rdf:RDF>
  </metadata>
</svg>
