<?xml version="1.0" encoding="UTF-8" standalone="no"?>
<svg
   role="img"
   viewBox="0 0 18.183593 19.443359"
   version="1.1"
   id="svg1"
   sodipodi:docname="data_array.svg"
   width="18.183594"
   height="19.443359"
   inkscape:version="1.3.2 (091e20ef0f, 2023-11-25, custom)"
   xmlns:inkscape="http://www.inkscape.org/namespaces/inkscape"
   xmlns:sodipodi="http://sodipodi.sourceforge.net/DTD/sodipodi-0.dtd"
   xmlns="http://www.w3.org/2000/svg"
   xmlns:svg="http://www.w3.org/2000/svg"
   xmlns:rdf="http://www.w3.org/1999/02/22-rdf-syntax-ns#"
   xmlns:cc="http://creativecommons.org/ns#"
   xmlns:dc="http://purl.org/dc/elements/1.1/">
  <defs
     id="defs1" />
  <sodipodi:namedview
     id="namedview1"
     pagecolor="#505050"
     bordercolor="#ffffff"
     borderopacity="1"
     inkscape:showpageshadow="0"
     inkscape:pageopacity="0"
     inkscape:pagecheckerboard="1"
     inkscape:deskcolor="#505050"
     inkscape:zoom="25.185996"
     inkscape:cx="18.164856"
     inkscape:cy="8.2982623"
     inkscape:window-width="1920"
     inkscape:window-height="1080"
     inkscape:window-x="0"
     inkscape:window-y="0"
     inkscape:window-maximized="0"
     inkscape:current-layer="svg1"
     showguides="true">
    <sodipodi:guide
       position="8.4117921,14.634449"
       orientation="0,-1"
       id="guide9"
       inkscape:locked="false" />
    <sodipodi:guide
       position="9.0775011,15.239638"
       orientation="1,0"
       id="guide10"
       inkscape:locked="false" />
  </sodipodi:namedview>
  <title
     id="title1">NumPy</title>
  <path
     id="path8"
     style="stroke-width:0.6561"
     d="M 9.1028758,1.8471229 6.5795357,3.1064197 9.2072897,4.4321619 11.654692,3.1269862 Z m -3.7509964,1.871543 -2.887207,1.4412304 2.7021094,1.3573828 2.8160156,-1.469707 z m 7.5225586,0.020567 -2.464805,1.2988476 2.763809,1.3953515 2.534414,-1.2735351 z M 9.1898868,5.6550721 6.3801998,7.1263612 9.085473,8.4853257 11.947367,7.0472596 Z m 7.2662702,0.405 -2.640411,1.3130859 0.0016,3.453574 2.638829,-1.3415625 z M 1.7274459,6.0632362 V 9.4883341 L 4.366274,10.829897 4.3678535,7.3763221 Z M 12.741547,7.9063025 9.6597508,9.4392911 v 3.4472459 l 3.0865422,-1.532989 z m -7.3010738,0.00317 -0.00317,3.4472455 3.086543,1.532989 V 9.4424549 Z m 11.0156838,2.7986135 -2.638828,1.330488 0.0031,3.478887 2.635664,-1.314668 z m -14.7287111,0.0016 v 3.496289 l 2.635664,1.314668 0.00158,-3.478887 z M 12.746293,12.56859 9.6597508,14.112652 v 3.482051 l 3.0897072,-1.542481 z m -7.3105658,0.0031 -0.00317,3.483632 3.0912891,1.540899 v -3.480469 z" />
  <metadata
     id="metadata1">
    <rdf:RDF>
      <cc:Work
         rdf:about="">
        <dc:title>NumPy</dc:title>
      </cc:Work>
    </rdf:RDF>
  </metadata>
</svg>
