<?xml version="1.0" encoding="UTF-8" standalone="no"?>
<svg
   version="1.1"
   viewBox="0 0 935.3324930108556 1013.2920201828541"
   width="1870.6649860217112"
   height="2026.5840403657082"
   id="svg178"
   sodipodi:docname="data-chunks.svg"
   inkscape:version="1.3.2 (091e20ef0f, 2023-11-25, custom)"
   xmlns:inkscape="http://www.inkscape.org/namespaces/inkscape"
   xmlns:sodipodi="http://sodipodi.sourceforge.net/DTD/sodipodi-0.dtd"
   xmlns="http://www.w3.org/2000/svg"
   xmlns:svg="http://www.w3.org/2000/svg">
  <sodipodi:namedview
     id="namedview178"
     pagecolor="#505050"
     bordercolor="#ffffff"
     borderopacity="1"
     inkscape:showpageshadow="0"
     inkscape:pageopacity="0"
     inkscape:pagecheckerboard="1"
     inkscape:deskcolor="#505050"
     inkscape:zoom="0.38278457"
     inkscape:cx="1085.467"
     inkscape:cy="846.4291"
     inkscape:window-width="1920"
     inkscape:window-height="1080"
     inkscape:window-x="0"
     inkscape:window-y="0"
     inkscape:window-maximized="0"
     inkscape:current-layer="svg178" />
  <!-- svg-source:excalidraw -->
  <defs
     id="defs1">
    <style
       class="style-fonts"
       id="style1">
      @font-face {
        font-family: &quot;Virgil&quot;;
        src: url(&quot;https://excalidraw.com/Virgil.woff2&quot;);
      }
      @font-face {
        font-family: &quot;Cascadia&quot;;
        src: url(&quot;https://excalidraw.com/Cascadia.woff2&quot;);
      }
      @font-face {
        font-family: &quot;Assistant&quot;;
        src: url(&quot;https://excalidraw.com/Assistant-Regular.woff2&quot;);
      }
    </style>
  </defs>
  <mask
     id="mask2" />
  <mask
     id="mask4" />
  <mask
     id="mask6" />
  <mask
     id="mask8" />
  <mask
     id="mask10" />
  <mask
     id="mask12" />
  <mask
     id="mask14" />
  <mask
     id="mask16" />
  <mask
     id="mask18" />
  <mask
     id="mask20" />
  <mask
     id="mask22" />
  <mask
     id="mask24" />
  <mask
     id="mask26" />
  <mask
     id="mask28" />
  <mask
     id="mask30" />
  <mask
     id="mask32" />
  <mask
     id="mask34" />
  <mask
     id="mask36" />
  <mask
     id="mask38" />
  <mask
     id="mask40" />
  <mask
     id="mask42" />
  <mask
     id="mask44" />
  <mask
     id="mask46" />
  <mask
     id="mask48" />
  <mask
     id="mask50" />
  <mask
     id="mask52" />
  <mask
     id="mask54" />
  <mask
     id="mask56" />
  <mask
     id="mask61" />
  <mask
     id="mask63" />
  <mask
     id="mask65" />
  <mask
     id="mask67" />
  <mask
     id="mask69" />
  <mask
     id="mask71" />
  <mask
     id="mask73" />
  <mask
     id="mask75" />
  <mask
     id="mask77" />
  <mask
     id="mask79" />
  <mask
     id="mask81" />
  <mask
     id="mask83" />
  <mask
     id="mask88" />
  <mask
     id="mask90" />
  <mask
     id="mask92" />
  <mask
     id="mask94" />
  <mask
     id="mask96" />
  <mask
     id="mask98" />
  <mask
     id="mask100" />
  <mask
     id="mask102" />
  <mask
     id="mask104" />
  <mask
     id="mask106" />
  <mask
     id="mask108" />
  <mask
     id="mask110" />
  <mask
     id="mask113" />
  <mask
     id="mask115" />
  <mask
     id="mask117" />
  <mask
     id="mask119" />
  <mask
     id="mask121" />
  <mask
     id="mask123" />
  <mask
     id="mask125" />
  <mask
     id="mask127" />
  <mask
     id="mask129" />
  <mask
     id="mask131" />
  <mask
     id="mask133" />
  <mask
     id="mask135" />
  <mask
     id="mask156" />
  <mask
     id="mask158" />
  <mask
     id="mask160" />
  <mask
     id="mask162" />
  <mask
     id="mask164" />
  <mask
     id="mask166" />
  <mask
     id="mask168" />
  <mask
     id="mask170" />
  <mask
     id="mask172" />
  <mask
     id="mask174" />
  <mask
     id="mask176" />
  <mask
     id="mask178" />
  <path
     id="path8"
     style="stroke-width:4.2088"
     d="m 566.70946,236.08606 -16.18691,8.07824 16.85663,8.50444 15.69988,-8.37256 z m -24.06219,12.00568 -18.52102,9.24536 17.33362,8.70742 18.06442,-9.42794 z m 48.25627,0.1322 -15.81138,8.33188 17.72942,8.95106 16.25798,-8.1696 z m -23.63598,12.28986 -18.02375,9.43808 17.35402,8.71756 18.35859,-9.22496 z m 46.61224,2.59802 -16.93794,8.42326 0.01,22.15426 16.92782,-8.60606 z m -94.48285,0.0202 v 21.9716 l 16.92782,8.60592 0.01,-22.15426 z m 70.65405,11.82302 -19.76922,9.83398 v 22.11362 l 19.79976,-9.83402 z m -46.83539,0.0256 -0.0256,22.11358 19.79978,9.83388 v -22.1136 z m 70.66419,17.95264 -16.9278,8.53498 0.0256,22.31658 16.90754,-8.43336 z m -94.48285,0.01 v 22.42834 l 16.90742,8.43336 0.01,-22.31658 z m 70.68459,11.9246 -19.79976,9.9051 v 22.33682 l 19.82004,-9.8948 z m -46.89645,0.0256 -0.0256,22.34712 19.83016,9.88466 v -22.32668 z" />
  <path
     d="m 421.0751,254.54046 -16.87426,-8.51791 -18.51875,9.24249 17.33037,8.70306 z m 7.73442,3.90363 17.69183,8.93028 -18.35542,9.21766 -17.35739,-8.71781 z m 23.6282,-12.29239 18.17495,9.11334 -16.25493,8.16404 -17.72798,-8.94243 z m -7.82232,-3.92545 -16.36173,-8.2032 -16.18677,8.07614 16.86002,8.50315 z m -12.79224,70.45728 v 22.32762 l 19.82183,-9.89133 -0.0208,-22.33738 z m 19.79242,-17.69691 -0.0208,-22.10289 -19.7706,9.82774 v 22.11058 z m 23.79652,-4.14259 v 22.41509 l -16.90626,8.4376 -0.0104,-22.31328 z m 0,-7.8376 v -21.96314 l -16.93774,8.41983 0.0104,22.14715 z m -50.58704,-0.29506 -13.351,-6.71312 v 29.01299 c 0,0 -16.32807,-34.74157 -17.84082,-37.86212 -0.19429,-0.40312 -0.99741,-0.84468 -1.20261,-0.9517 -2.92782,-1.53622 -11.50672,-5.88172 -11.50672,-5.88172 v 51.2578 l 11.86777,6.34375 v -26.79301 c 0,0 16.15466,31.04334 16.31799,31.38205 0.16416,0.33974 1.7862,3.61116 3.51858,4.76078 2.30798,1.52739 12.19941,7.47561 12.19941,7.47561 z"
     id="path1"
     style="stroke-width:4.20784" />
</svg>
