<?xml version="1.0" encoding="UTF-8" standalone="no"?>
<svg
   role="img"
   viewBox="0 0 18.183593 19.443359"
   version="1.1"
   id="svg1"
   sodipodi:docname="data-array.svg"
   width="18.183594"
   height="19.443359"
   inkscape:version="1.3.2 (091e20ef0f, 2023-11-25, custom)"
   xmlns:inkscape="http://www.inkscape.org/namespaces/inkscape"
   xmlns:sodipodi="http://sodipodi.sourceforge.net/DTD/sodipodi-0.dtd"
   xmlns="http://www.w3.org/2000/svg"
   xmlns:svg="http://www.w3.org/2000/svg"
   xmlns:rdf="http://www.w3.org/1999/02/22-rdf-syntax-ns#"
   xmlns:cc="http://creativecommons.org/ns#"
   xmlns:dc="http://purl.org/dc/elements/1.1/">
  <defs
     id="defs1" />
  <sodipodi:namedview
     id="namedview1"
     pagecolor="#505050"
     bordercolor="#ffffff"
     borderopacity="1"
     inkscape:showpageshadow="0"
     inkscape:pageopacity="0"
     inkscape:pagecheckerboard="1"
     inkscape:deskcolor="#505050"
     inkscape:zoom="25.185996"
     inkscape:cx="18.164856"
     inkscape:cy="8.3379669"
     inkscape:window-width="1920"
     inkscape:window-height="1034"
     inkscape:window-x="0"
     inkscape:window-y="0"
     inkscape:window-maximized="0"
     inkscape:current-layer="svg1"
     showguides="true">
    <sodipodi:guide
       position="8.4117921,14.634449"
       orientation="0,-1"
       id="guide9"
       inkscape:locked="false" />
    <sodipodi:guide
       position="9.0775011,15.239638"
       orientation="1,0"
       id="guide10"
       inkscape:locked="false" />
  </sodipodi:namedview>
  <title
     id="title1">NumPy</title>
  <path
     id="path8"
     style="stroke-width:0.809552"
     d="M 9.1058155,0.0059414 5.9923023,1.55977 9.2346504,3.195584 12.254465,1.585146 Z M 4.4775147,2.3152115 0.91503133,4.0935246 4.2491255,5.7683801 7.7237668,3.9549296 Z m 9.2819813,0.025381 -3.041291,1.6026287 3.410227,1.7217049 3.127178,-1.5713966 z M 9.2131772,4.7045189 5.7463446,6.5199213 9.0843425,8.1967288 12.615595,6.4223198 Z m 8.9657498,0.4997237 -3.257965,1.620198 0.002,4.2613154 3.256014,-1.6553352 z M 0.0053781,5.208191 v 4.2261795 l 3.2560122,1.6553355 0.00195,-4.2613169 z M 13.595523,7.4823238 9.7929356,9.373857 v 4.25351 l 3.8084434,-1.891536 z m -9.0086936,0.00395 -0.00391,4.2535082 3.8084412,1.891535 V 9.377798 Z m 13.5920976,3.4531702 -3.256012,1.641672 0.0038,4.292549 3.252109,-1.62215 z m -18.1735489,0.002 v 4.314023 l 3.2521081,1.62215 0.00195,-4.292549 z m 13.5960009,2.293592 -3.8084434,1.905196 v 4.296453 L 13.605285,17.53344 Z m -9.0204057,0.0038 -0.00391,4.298404 3.8142974,1.901293 v -4.294501 z" />
  <metadata
     id="metadata1">
    <rdf:RDF>
      <cc:Work
         rdf:about="">
        <dc:title>NumPy</dc:title>
      </cc:Work>
    </rdf:RDF>
  </metadata>
</svg>
