<?xml version="1.0" encoding="UTF-8" standalone="no"?>
<svg
   viewBox="0 0 24 24"
   version="1.1"
   id="svg1"
   sodipodi:docname="direct-irradiance.svg"
   width="24"
   height="24"
   inkscape:version="1.4.2 (ebf0e940d0, 2025-05-08)"
   xmlns:inkscape="http://www.inkscape.org/namespaces/inkscape"
   xmlns:sodipodi="http://sodipodi.sourceforge.net/DTD/sodipodi-0.dtd"
   xmlns="http://www.w3.org/2000/svg"
   xmlns:svg="http://www.w3.org/2000/svg">
  <defs
     id="defs1" />
  <sodipodi:namedview
     id="namedview1"
     pagecolor="#505050"
     bordercolor="#ffffff"
     borderopacity="1"
     inkscape:showpageshadow="0"
     inkscape:pageopacity="0"
     inkscape:pagecheckerboard="1"
     inkscape:deskcolor="#505050"
     inkscape:zoom="16.926609"
     inkscape:cx="41.11869"
     inkscape:cy="46.228987"
     inkscape:window-width="3840"
     inkscape:window-height="2128"
     inkscape:window-x="0"
     inkscape:window-y="0"
     inkscape:window-maximized="0"
     inkscape:current-layer="svg1" />
  <path
     id="path7"
     style="stroke-width:0.740186"
     d="M 6.303375,0.956534 4.534384,3.488001 C 5.082122,3.288151 5.681619,3.17701 6.303375,3.17701 c 0.621756,0 1.221619,0.111141 1.769356,0.310991 z m 3.330897,3.434439 c 0.444111,0.377494 0.836496,0.843842 1.147374,1.376775 0.310878,0.540336 0.510673,1.110338 0.614299,1.695085 l 1.310187,-2.80514 z m -6.661429,0.0073 -3.079177,0.259403 1.309821,2.80514 C 1.307113,6.878069 1.49247,6.315469 1.818152,5.767732 2.12903,5.234798 2.528732,4.775768 2.972843,4.398273 Z m 3.330532,0.259403 c -2.042913,0 -3.700794,1.657881 -3.700794,3.700794 0,2.042913 1.657881,3.700794 3.700794,3.700794 2.042913,0 3.701159,-1.657881 3.701159,-3.700794 0,-2.042913 -1.658246,-3.700794 -3.701159,-3.700794 z m 0,1.480318 c 1.221306,0 2.220842,0.999169 2.220842,2.220476 0,1.221306 -0.999536,2.220476 -2.220842,2.220476 -1.221307,0 -2.220477,-0.99917 -2.220477,-2.220476 0,-1.221307 0.99917,-2.220476 2.220477,-2.220476 z m 14.554747,2.830017 -2.706719,2.70672 -1.263356,1.263356 -3.789334,3.879705 -1.263356,1.263355 -4.872316,4.962319 h 17.143293 v -1.80446 H 11.203862 L 22.121476,10.231019 Z M 1.211171,9.268758 -0.091699,12.059263 2.972843,12.3333 C 2.536134,11.955824 2.136347,11.496963 1.825469,10.949225 1.514591,10.416292 1.314796,9.838719 1.211171,9.268776 Z m 9.533522,0.570028 c 0,0.740186 -0.288674,1.517272 -0.866019,2.094616 -0.577344,0.577345 -1.35443,0.866019 -2.094616,0.866019 v 1.480684 c 1.139886,0 2.279749,-0.436853 3.145766,-1.30287 0.858616,-0.858616 1.295187,-1.998562 1.295187,-3.138449 z m 2.960635,0 c 0,1.517382 -0.577348,3.034909 -1.732037,4.189599 -1.162092,1.162092 -2.671852,1.732037 -4.189233,1.732037 v 1.480318 c 1.894876,0 3.789703,-0.74033 5.233065,-2.168889 1.443362,-1.428558 2.168522,-3.338189 2.168522,-5.233065 z" />
</svg>
