<?xml version="1.0" encoding="UTF-8" standalone="no"?>
<svg
   viewBox="0 0 110 110"
   version="1.1"
   id="svg1"
   sodipodi:docname="direct_irradiance.svg.svg"
   width="110"
   height="110"
   inkscape:version="1.3.2 (091e20ef0f, 2023-11-25, custom)"
   xmlns:inkscape="http://www.inkscape.org/namespaces/inkscape"
   xmlns:sodipodi="http://sodipodi.sourceforge.net/DTD/sodipodi-0.dtd"
   xmlns="http://www.w3.org/2000/svg"
   xmlns:svg="http://www.w3.org/2000/svg">
  <defs
     id="defs1" />
  <sodipodi:namedview
     id="namedview1"
     pagecolor="#505050"
     bordercolor="#ffffff"
     borderopacity="1"
     inkscape:showpageshadow="0"
     inkscape:pageopacity="0"
     inkscape:pagecheckerboard="1"
     inkscape:deskcolor="#505050"
     inkscape:zoom="4.5647465"
     inkscape:cx="27.493312"
     inkscape:cy="32.641462"
     inkscape:window-width="1920"
     inkscape:window-height="1080"
     inkscape:window-x="0"
     inkscape:window-y="0"
     inkscape:window-maximized="0"
     inkscape:current-layer="svg1" />
  <path
     id="path7"
     style="stroke-width:3.36448"
     d="m 29.135039,0 -8.040865,11.50667 c 2.489716,-0.90841 5.214701,-1.413596 8.040865,-1.413596 2.826164,0 5.552813,0.505186 8.042528,1.413596 z M 44.27548,15.611087 c 2.018689,1.715884 3.802256,3.835644 5.215337,6.258071 1.413082,2.45607 2.32124,5.046988 2.792268,7.704928 L 58.23848,16.823452 Z M 13.99626,15.644353 0,16.823457 5.9537317,29.574091 c 0.4710284,-2.65794 1.3135599,-5.215213 2.7939308,-7.704928 1.4130825,-2.422427 3.2299085,-4.508925 5.2485975,-6.22481 z m 15.138779,1.179104 c -9.285967,0 -16.821789,7.535822 -16.821789,16.821789 0,9.285968 7.535822,16.82179 16.821789,16.82179 9.285967,0 16.823452,-7.535822 16.823452,-16.82179 0,-9.285967 -7.537485,-16.821789 -16.823452,-16.821789 z m 0,6.728716 c 5.551394,0 10.094736,4.54168 10.094736,10.093073 0,5.551394 -4.543342,10.093075 -10.094736,10.093075 -5.551395,0 -10.093074,-4.541681 -10.093074,-10.093075 0,-5.551393 4.541679,-10.093073 10.093074,-10.093073 z M 95.29298,36.41589 82.989711,48.719162 77.247186,54.461687 60.022938,72.096709 54.280413,77.839234 32.133524,100.39523 H 110.05758 V 92.193054 H 51.409982 L 101.0355,42.156752 Z M 5.9886564,37.78292 0.06652152,50.467031 13.99626,51.712658 C 12.011216,49.996774 10.194004,47.911041 8.7809238,45.421325 7.3678409,42.9989 6.4596825,40.373569 5.9886564,37.78292 Z m 43.3341926,2.591038 c 0,3.364481 -1.312153,6.896688 -3.936448,9.520982 -2.624295,2.624295 -6.156502,3.936449 -9.520983,3.936449 v 6.730379 c 5.1813,0 10.362494,-1.985692 14.298936,-5.922135 3.902799,-3.902798 5.887211,-9.084374 5.887211,-14.265675 z m 13.457432,0 c 0,6.897187 -2.624307,13.795038 -7.872897,19.043628 -5.282235,5.282237 -12.144781,7.872897 -19.041966,7.872897 V 74.0192 c 8.61307,0 17.22592,-3.365136 23.786659,-9.858584 6.560737,-6.493448 9.856919,-15.173587 9.856919,-23.786658 z" />
</svg>
