<?xml version="1.0" encoding="UTF-8" standalone="no"?>
<svg
   version="1.1"
   viewBox="0 0 141.73228 109.9412"
   width="283.46457"
   height="219.8824"
   id="svg178"
   sodipodi:docname="large_time_series.svg"
   inkscape:version="1.3.2 (091e20ef0f, 2023-11-25, custom)"
   xmlns:inkscape="http://www.inkscape.org/namespaces/inkscape"
   xmlns:sodipodi="http://sodipodi.sourceforge.net/DTD/sodipodi-0.dtd"
   xmlns="http://www.w3.org/2000/svg"
   xmlns:svg="http://www.w3.org/2000/svg">
  <sodipodi:namedview
     id="namedview178"
     pagecolor="#505050"
     bordercolor="#ffffff"
     borderopacity="1"
     inkscape:showpageshadow="0"
     inkscape:pageopacity="0"
     inkscape:pagecheckerboard="1"
     inkscape:deskcolor="#505050"
     inkscape:zoom="1.1505188"
     inkscape:cx="49.10828"
     inkscape:cy="70.403021"
     inkscape:window-width="1920"
     inkscape:window-height="1080"
     inkscape:window-x="0"
     inkscape:window-y="0"
     inkscape:window-maximized="0"
     inkscape:current-layer="svg178"
     showgrid="false"
     showguides="true">
    <inkscape:grid
       id="grid198"
       units="px"
       originx="-410.79033"
       originy="-451.59515"
       spacingx="0.49999999"
       spacingy="0.50000001"
       empcolor="#0099e5"
       empopacity="0.30196078"
       color="#0099e5"
       opacity="0.14901961"
       empspacing="5"
       dotted="false"
       gridanglex="30"
       gridanglez="30"
       visible="false" />
    <sodipodi:guide
       position="-8.8222829,993.09661"
       orientation="1,0"
       id="guide198"
       inkscape:locked="false" />
    <sodipodi:guide
       position="-1.9405629,992.19843"
       orientation="1,0"
       id="guide199"
       inkscape:locked="false" />
  </sodipodi:namedview>
  <!-- svg-source:excalidraw -->
  <defs
     id="defs1">
    <style
       class="style-fonts"
       id="style1">
      @font-face {
        font-family: &quot;Virgil&quot;;
        src: url(&quot;https://excalidraw.com/Virgil.woff2&quot;);
      }
      @font-face {
        font-family: &quot;Cascadia&quot;;
        src: url(&quot;https://excalidraw.com/Cascadia.woff2&quot;);
      }
      @font-face {
        font-family: &quot;Assistant&quot;;
        src: url(&quot;https://excalidraw.com/Assistant-Regular.woff2&quot;);
      }
    </style>
  </defs>
  <mask
     id="mask2" />
  <mask
     id="mask4" />
  <mask
     id="mask6" />
  <mask
     id="mask8" />
  <mask
     id="mask10" />
  <mask
     id="mask12" />
  <mask
     id="mask14" />
  <mask
     id="mask16" />
  <mask
     id="mask18" />
  <mask
     id="mask20" />
  <mask
     id="mask22" />
  <mask
     id="mask24" />
  <mask
     id="mask26" />
  <mask
     id="mask28" />
  <mask
     id="mask30" />
  <mask
     id="mask32" />
  <mask
     id="mask34" />
  <mask
     id="mask36" />
  <mask
     id="mask38" />
  <mask
     id="mask40" />
  <mask
     id="mask42" />
  <mask
     id="mask44" />
  <mask
     id="mask46" />
  <mask
     id="mask48" />
  <mask
     id="mask50" />
  <mask
     id="mask52" />
  <mask
     id="mask54" />
  <mask
     id="mask56" />
  <mask
     id="mask61" />
  <mask
     id="mask63" />
  <mask
     id="mask65" />
  <mask
     id="mask67" />
  <mask
     id="mask69" />
  <mask
     id="mask71" />
  <mask
     id="mask73" />
  <mask
     id="mask75" />
  <mask
     id="mask77" />
  <mask
     id="mask79" />
  <mask
     id="mask81" />
  <mask
     id="mask83" />
  <mask
     id="mask88" />
  <mask
     id="mask90" />
  <mask
     id="mask92" />
  <mask
     id="mask94" />
  <mask
     id="mask96" />
  <mask
     id="mask98" />
  <mask
     id="mask100" />
  <mask
     id="mask102" />
  <mask
     id="mask104" />
  <mask
     id="mask106" />
  <mask
     id="mask108" />
  <mask
     id="mask110" />
  <mask
     id="mask113" />
  <mask
     id="mask115" />
  <mask
     id="mask117" />
  <mask
     id="mask119" />
  <mask
     id="mask121" />
  <mask
     id="mask123" />
  <mask
     id="mask125" />
  <mask
     id="mask127" />
  <mask
     id="mask129" />
  <mask
     id="mask131" />
  <mask
     id="mask133" />
  <mask
     id="mask135" />
  <mask
     id="mask156" />
  <mask
     id="mask158" />
  <mask
     id="mask160" />
  <mask
     id="mask162" />
  <mask
     id="mask164" />
  <mask
     id="mask166" />
  <mask
     id="mask168" />
  <mask
     id="mask170" />
  <mask
     id="mask172" />
  <mask
     id="mask174" />
  <mask
     id="mask176" />
  <mask
     id="mask178" />
  <g
     id="g200"
     transform="matrix(0.73328976,0,0,0.73328976,-282.32762,-316.48888)">
    <path
       id="path8"
       style="stroke-width:4.2088"
       d="m 531.12219,480.49091 -16.18691,8.07824 16.85663,8.50444 15.69988,-8.37256 z m -24.06219,12.00568 -18.52102,9.24536 17.33362,8.70742 18.06442,-9.42794 z m 48.25627,0.1322 -15.81138,8.33188 17.72942,8.95106 16.25798,-8.1696 z m -23.63598,12.28986 -18.02375,9.43808 17.35402,8.71756 18.35859,-9.22496 z m 46.61224,2.59802 -16.93794,8.42326 0.01,22.15426 16.92782,-8.60606 z m -94.48285,0.0202 v 21.9716 l 16.92782,8.60592 0.01,-22.15426 z m 70.65405,11.82302 -19.76922,9.83398 v 22.11362 l 19.79976,-9.83402 z m -46.83539,0.0256 -0.0256,22.11358 19.79978,9.83388 v -22.1136 z m 70.66419,17.95264 -16.9278,8.53498 0.0256,22.31658 16.90754,-8.43336 z m -94.48285,0.01 v 22.42834 l 16.90742,8.43336 0.01,-22.31658 z m 70.68459,11.9246 -19.79976,9.9051 v 22.33682 l 19.82004,-9.8948 z m -46.89645,0.0256 -0.0256,22.34712 19.83016,9.88466 v -22.32668 z" />
    <path
       id="path198"
       style="stroke-width:4.2088"
       d="m 482.91837,456.8834 -16.1875,8.07813 16.85645,8.50488 15.70019,-8.37304 z m -24.0625,12.00586 -18.52148,9.24512 17.33398,8.70703 18.06446,-9.42773 z m 48.25586,0.13184 -15.81152,8.33203 17.72949,8.95117 16.25879,-8.16992 z m -23.63574,12.29004 -18.02344,9.4375 17.35352,8.71777 18.3584,-9.22461 z m -47.87012,2.61816 v 21.97168 l 16.92774,8.60547 0.01,-22.1543 z m 23.81836,11.84864 -0.0254,22.11328 19.79981,9.83398 v -22.11328 z m -23.81836,17.96289 v 22.42773 l 16.90723,8.43359 0.01,-22.3164 z m 23.78809,11.95019 -0.0264,22.34668 19.83008,9.88477 V 535.5963 Z" />
    <a
       id="a198-3"
       transform="translate(-108.16705,-11.484552)">
      <path
         id="path198-2-6"
         style="stroke-width:4.2088"
         d="m 540.49464,443.08594 -16.1875,8.07813 16.85645,8.50488 15.70019,-8.37304 z m -24.0625,12.00586 -18.52148,9.24512 17.33398,8.70703 18.06446,-9.42773 z m 48.25586,0.13184 -15.81152,8.33203 17.72949,8.95117 16.25879,-8.16992 z m -23.63574,12.29004 -18.02344,9.4375 17.35352,8.71777 18.3584,-9.22461 z m -47.87012,2.61816 v 21.97168 l 16.92774,8.60547 0.01,-22.1543 z m 23.81836,11.84864 -0.0254,22.11328 19.79981,9.83398 v -22.11328 z m -23.81836,17.96289 v 22.42773 l 16.90723,8.43359 0.01,-22.3164 z m 23.78809,11.95019 -0.0264,22.34668 19.83008,9.88477 v -22.32617 z" />
    </a>
  </g>
</svg>
