<?xml version="1.0" encoding="UTF-8" standalone="no"?>
<svg
   role="img"
   viewBox="0 0 26 26"
   version="1.1"
   id="svg1"
   sodipodi:docname="pytest_coverage.svg"
   inkscape:version="1.3.2 (091e20ef0f, 2023-11-25, custom)"
   width="26"
   height="26"
   xmlns:inkscape="http://www.inkscape.org/namespaces/inkscape"
   xmlns:sodipodi="http://sodipodi.sourceforge.net/DTD/sodipodi-0.dtd"
   xmlns="http://www.w3.org/2000/svg"
   xmlns:svg="http://www.w3.org/2000/svg"
   xmlns:rdf="http://www.w3.org/1999/02/22-rdf-syntax-ns#"
   xmlns:cc="http://creativecommons.org/ns#"
   xmlns:dc="http://purl.org/dc/elements/1.1/">
  <defs
     id="defs1" />
  <sodipodi:namedview
     id="namedview1"
     pagecolor="#505050"
     bordercolor="#ffffff"
     borderopacity="1"
     inkscape:showpageshadow="0"
     inkscape:pageopacity="0"
     inkscape:pagecheckerboard="1"
     inkscape:deskcolor="#505050"
     inkscape:zoom="13.318937"
     inkscape:cx="19.408456"
     inkscape:cy="12.088052"
     inkscape:window-width="1920"
     inkscape:window-height="1080"
     inkscape:window-x="0"
     inkscape:window-y="0"
     inkscape:window-maximized="0"
     inkscape:current-layer="svg1" />
  <title
     id="title1">Pytest</title>
  <path
     d="m 1.1035002,0 v 0.8867 h 3.8399 V 0 Z m 5.0215,0 v 0.8867 h 3.8418 V 0 Z M 11.082,0 v 0.8867 h 3.8418 V 0 Z m 4.9356,0 v 0.8867 h 3.8418 V 0 Z M 0.93560019,1.8945 A 0.935,0.935 0 0 0 1.9263702e-7,2.8301 C 1.9263702e-7,3.3471 0.41850019,3.7676 0.93560019,3.7676 H 20.041 c 0.5171,0 0.9356,-0.4204 0.9356,-0.9375 A 0.935,0.935 0 0 0 20.041,1.8945 Z M 1.1036002,4.7422 V 24 h 3.8397 V 4.7422 Z m 5.0214,0 V 20.543 h 3.8418 V 4.7422 Z m 4.9569998,0 V 15.291 h 3.8497 V 4.7422 Z m 4.9356,0 v 6.4941 h 3.8418 V 4.7422 Z"
     id="path1" />
  <metadata
     id="metadata1">
    <rdf:RDF>
      <cc:Work
         rdf:about="">
        <dc:title>Pytest</dc:title>
      </cc:Work>
    </rdf:RDF>
  </metadata>
  <path
     id="path6"
     d="M 24.5,15.970703 15.970703,24.5 l 1.5,1.5 L 26,17.470703 Z m -6.699219,0.05078 c -0.989998,0 -1.78125,0.789299 -1.78125,1.779297 0,0.979998 0.791252,1.769532 1.78125,1.769532 0.979998,0 1.769531,-0.789534 1.769531,-1.769532 0,-0.989998 -0.789533,-1.779297 -1.769531,-1.779297 z m 6.388672,6.400391 c -0.979998,0 -1.769531,0.789533 -1.769531,1.769531 0,0.979998 0.789533,1.779297 1.769531,1.779297 0.979998,0 1.78125,-0.799299 1.78125,-1.779297 0,-0.979998 -0.801252,-1.769531 -1.78125,-1.769531 z" />
</svg>
